<?xml version="1.0" encoding="UTF-8"?>
<svg id="Layer_2" data-name="Layer 2" xmlns="http://www.w3.org/2000/svg" viewBox="0 0 1640.17 64">
  <defs>
    <style>
      .cls-1 {
        fill: #fff;
      }
    </style>
  </defs>
  <g id="Layer_1-2" data-name="Layer 1">
    <polygon points="16 8 24 8 16 0 0 0 0 8 0 16 0 24 0 32 0 40 0 48 0 56 0 64 24 64 16 56 24 56 16 48 24 48 16 40 24 40 16 32 24 32 16 24 24 24 16 16 24 16 16 8"/>
    <polygon class="cls-1" points="16 0 24 8 16 8 24 16 16 16 24 24 16 24 24 32 16 32 24 40 16 40 24 48 16 48 24 56 16 56 24 64 40.01 64 40.01 56 40.01 48 40.01 40 40.01 32 40.01 24 40.01 16 40.01 8 40.01 0 16 0"/>
    <polygon points="56.01 8 64.01 8 56.01 0 40.01 0 40.01 8 40.01 16 40.01 24 40.01 32 40.01 40 40.01 48 40.01 56 40.01 64 64.01 64 56.01 56 64.01 56 56.01 48 64.01 48 56.01 40 64.01 40 56.01 32 64.01 32 56.01 24 64.01 24 56.01 16 64.01 16 56.01 8"/>
    <polygon class="cls-1" points="56.01 0 64.01 8 56.01 8 64.01 16 56.01 16 64.01 24 56.01 24 64.01 32 56.01 32 64.01 40 56.01 40 64.01 48 56.01 48 64.01 56 56.01 56 64.01 64 80.02 64 80.02 56 80.02 48 80.02 40 80.02 32 80.02 24 80.02 16 80.02 8 80.02 0 56.01 0"/>
    <polygon points="96.02 8 104.02 8 96.02 0 80.02 0 80.02 8 80.02 16 80.02 24 80.02 32 80.02 40 80.02 48 80.02 56 80.02 64 104.02 64 96.02 56 104.02 56 96.02 48 104.02 48 96.02 40 104.02 40 96.02 32 104.02 32 96.02 24 104.02 24 96.02 16 104.02 16 96.02 8"/>
    <polygon class="cls-1" points="96.02 0 104.02 8 96.02 8 104.02 16 96.02 16 104.02 24 96.02 24 104.02 32 96.02 32 104.02 40 96.02 40 104.02 48 96.02 48 104.02 56 96.02 56 104.02 64 120.03 64 120.03 56 120.03 48 120.03 40 120.03 32 120.03 24 120.03 16 120.03 8 120.03 0 96.02 0"/>
    <polygon points="136.03 8 144.03 8 136.03 0 120.03 0 120.03 8 120.03 16 120.03 24 120.03 32 120.03 40 120.03 48 120.03 56 120.03 64 144.03 64 136.03 56 144.03 56 136.03 48 144.03 48 136.03 40 144.03 40 136.03 32 144.03 32 136.03 24 144.03 24 136.03 16 144.03 16 136.03 8"/>
    <polygon class="cls-1" points="136.03 0 144.03 8 136.03 8 144.03 16 136.03 16 144.03 24 136.03 24 144.03 32 136.03 32 144.03 40 136.03 40 144.03 48 136.03 48 144.03 56 136.03 56 144.03 64 160.03 64 160.03 56 160.03 48 160.03 40 160.03 32 160.03 24 160.03 16 160.03 8 160.03 0 136.03 0"/>
    <polygon points="176.04 8 184.04 8 176.04 0 160.03 0 160.03 8 160.03 16 160.03 24 160.03 32 160.03 40 160.03 48 160.03 56 160.03 64 184.04 64 176.04 56 184.04 56 176.04 48 184.04 48 176.04 40 184.04 40 176.04 32 184.04 32 176.04 24 184.04 24 176.04 16 184.04 16 176.04 8"/>
    <polygon class="cls-1" points="176.04 0 184.04 8 176.04 8 184.04 16 176.04 16 184.04 24 176.04 24 184.04 32 176.04 32 184.04 40 176.04 40 184.04 48 176.04 48 184.04 56 176.04 56 184.04 64 200.04 64 200.04 56 200.04 48 200.04 40 200.04 32 200.04 24 200.04 16 200.04 8 200.04 0 176.04 0"/>
    <polygon points="216.05 8 224.05 8 216.05 0 200.04 0 200.04 8 200.04 16 200.04 24 200.04 32 200.04 40 200.04 48 200.04 56 200.04 64 224.05 64 216.05 56 224.05 56 216.05 48 224.05 48 216.05 40 224.05 40 216.05 32 224.05 32 216.05 24 224.05 24 216.05 16 224.05 16 216.05 8"/>
    <polygon class="cls-1" points="216.05 0 224.05 8 216.05 8 224.05 16 216.05 16 224.05 24 216.05 24 224.05 32 216.05 32 224.05 40 216.05 40 224.05 48 216.05 48 224.05 56 216.05 56 224.05 64 240.05 64 240.05 56 240.05 48 240.05 40 240.05 32 240.05 24 240.05 16 240.05 8 240.05 0 216.05 0"/>
    <polygon points="256.05 8 264.05 8 256.05 0 240.05 0 240.05 8 240.05 16 240.05 24 240.05 32 240.05 40 240.05 48 240.05 56 240.05 64 264.05 64 256.05 56 264.05 56 256.05 48 264.05 48 256.05 40 264.05 40 256.05 32 264.05 32 256.05 24 264.05 24 256.05 16 264.05 16 256.05 8"/>
    <polygon class="cls-1" points="256.05 0 264.05 8 256.05 8 264.05 16 256.05 16 264.05 24 256.05 24 264.05 32 256.05 32 264.05 40 256.05 40 264.05 48 256.05 48 264.05 56 256.05 56 264.05 64 280.06 64 280.06 56 280.06 48 280.06 40 280.06 32 280.06 24 280.06 16 280.06 8 280.06 0 256.05 0"/>
    <polygon points="296.06 8 304.06 8 296.06 0 280.06 0 280.06 8 280.06 16 280.06 24 280.06 32 280.06 40 280.06 48 280.06 56 280.06 64 304.06 64 296.06 56 304.06 56 296.06 48 304.06 48 296.06 40 304.06 40 296.06 32 304.06 32 296.06 24 304.06 24 296.06 16 304.06 16 296.06 8"/>
    <polygon class="cls-1" points="296.06 0 304.06 8 296.06 8 304.06 16 296.06 16 304.06 24 296.06 24 304.06 32 296.06 32 304.06 40 296.06 40 304.06 48 296.06 48 304.06 56 296.06 56 304.06 64 320.07 64 320.07 56 320.07 48 320.07 40 320.07 32 320.07 24 320.07 16 320.07 8 320.07 0 296.06 0"/>
    <polygon points="336.07 8 344.07 8 336.07 0 320.07 0 320.07 8 320.07 16 320.07 24 320.07 32 320.07 40 320.07 48 320.07 56 320.07 64 344.07 64 336.07 56 344.07 56 336.07 48 344.07 48 336.07 40 344.07 40 336.07 32 344.07 32 336.07 24 344.07 24 336.07 16 344.07 16 336.07 8"/>
    <polygon class="cls-1" points="336.07 0 344.07 8 336.07 8 344.07 16 336.07 16 344.07 24 336.07 24 344.07 32 336.07 32 344.07 40 336.07 40 344.07 48 336.07 48 344.07 56 336.07 56 344.07 64 360.08 64 360.08 56 360.08 48 360.08 40 360.08 32 360.08 24 360.08 16 360.08 8 360.08 0 336.07 0"/>
    <polygon points="376.08 8 384.08 8 376.08 0 360.08 0 360.08 8 360.08 16 360.08 24 360.08 32 360.08 40 360.08 48 360.08 56 360.08 64 384.08 64 376.08 56 384.08 56 376.08 48 384.08 48 376.08 40 384.08 40 376.08 32 384.08 32 376.08 24 384.08 24 376.08 16 384.08 16 376.08 8"/>
    <polygon class="cls-1" points="376.08 0 384.08 8 376.08 8 384.08 16 376.08 16 384.08 24 376.08 24 384.08 32 376.08 32 384.08 40 376.08 40 384.08 48 376.08 48 384.08 56 376.08 56 384.08 64 400.08 64 400.08 56 400.08 48 400.08 40 400.08 32 400.08 24 400.08 16 400.08 8 400.08 0 376.08 0"/>
    <polygon points="416.09 8 424.09 8 416.09 0 400.08 0 400.08 8 400.08 16 400.08 24 400.08 32 400.08 40 400.08 48 400.08 56 400.08 64 424.09 64 416.09 56 424.09 56 416.09 48 424.09 48 416.09 40 424.09 40 416.09 32 424.09 32 416.09 24 424.09 24 416.09 16 424.09 16 416.09 8"/>
    <polygon class="cls-1" points="416.09 0 424.09 8 416.09 8 424.09 16 416.09 16 424.09 24 416.09 24 424.09 32 416.09 32 424.09 40 416.09 40 424.09 48 416.09 48 424.09 56 416.09 56 424.09 64 440.09 64 440.09 56 440.09 48 440.09 40 440.09 32 440.09 24 440.09 16 440.09 8 440.09 0 416.09 0"/>
    <polygon points="456.1 8 464.1 8 456.1 0 440.09 0 440.09 8 440.09 16 440.09 24 440.09 32 440.09 40 440.09 48 440.09 56 440.09 64 464.1 64 456.1 56 464.1 56 456.1 48 464.1 48 456.1 40 464.1 40 456.1 32 464.1 32 456.1 24 464.1 24 456.1 16 464.1 16 456.1 8"/>
    <polygon class="cls-1" points="456.1 0 464.1 8 456.1 8 464.1 16 456.1 16 464.1 24 456.1 24 464.1 32 456.1 32 464.1 40 456.1 40 464.1 48 456.1 48 464.1 56 456.1 56 464.1 64 480.1 64 480.1 56 480.1 48 480.1 40 480.1 32 480.1 24 480.1 16 480.1 8 480.1 0 456.1 0"/>
    <polygon points="496.1 8 504.1 8 496.1 0 480.1 0 480.1 8 480.1 16 480.1 24 480.1 32 480.1 40 480.1 48 480.1 56 480.1 64 504.1 64 496.1 56 504.1 56 496.1 48 504.1 48 496.1 40 504.1 40 496.1 32 504.1 32 496.1 24 504.1 24 496.1 16 504.1 16 496.1 8"/>
    <polygon class="cls-1" points="496.1 0 504.1 8 496.1 8 504.1 16 496.1 16 504.1 24 496.1 24 504.1 32 496.1 32 504.1 40 496.1 40 504.1 48 496.1 48 504.1 56 496.1 56 504.1 64 520.11 64 520.11 56 520.11 48 520.11 40 520.11 32 520.11 24 520.11 16 520.11 8 520.11 0 496.1 0"/>
    <polygon points="536.11 8 544.11 8 536.11 0 520.11 0 520.11 8 520.11 16 520.11 24 520.11 32 520.11 40 520.11 48 520.11 56 520.11 64 544.11 64 536.11 56 544.11 56 536.11 48 544.11 48 536.11 40 544.11 40 536.11 32 544.11 32 536.11 24 544.11 24 536.11 16 544.11 16 536.11 8"/>
    <polygon class="cls-1" points="536.11 0 544.11 8 536.11 8 544.11 16 536.11 16 544.11 24 536.11 24 544.11 32 536.11 32 544.11 40 536.11 40 544.11 48 536.11 48 544.11 56 536.11 56 544.11 64 560.12 64 560.12 56 560.12 48 560.12 40 560.12 32 560.12 24 560.12 16 560.12 8 560.12 0 536.11 0"/>
    <polygon points="576.12 8 584.12 8 576.12 0 560.12 0 560.12 8 560.12 16 560.12 24 560.12 32 560.12 40 560.12 48 560.12 56 560.12 64 584.12 64 576.12 56 584.12 56 576.12 48 584.12 48 576.12 40 584.12 40 576.12 32 584.12 32 576.12 24 584.12 24 576.12 16 584.12 16 576.12 8"/>
    <polygon class="cls-1" points="576.12 0 584.12 8 576.12 8 584.12 16 576.12 16 584.12 24 576.12 24 584.12 32 576.12 32 584.12 40 576.12 40 584.12 48 576.12 48 584.12 56 576.12 56 584.12 64 600.12 64 600.12 56 600.12 48 600.12 40 600.12 32 600.12 24 600.12 16 600.12 8 600.12 0 576.12 0"/>
    <polygon points="616.13 8 624.13 8 616.13 0 600.12 0 600.12 8 600.12 16 600.12 24 600.12 32 600.12 40 600.12 48 600.12 56 600.12 64 624.13 64 616.13 56 624.13 56 616.13 48 624.13 48 616.13 40 624.13 40 616.13 32 624.13 32 616.13 24 624.13 24 616.13 16 624.13 16 616.13 8"/>
    <polygon class="cls-1" points="616.13 0 624.13 8 616.13 8 624.13 16 616.13 16 624.13 24 616.13 24 624.13 32 616.13 32 624.13 40 616.13 40 624.13 48 616.13 48 624.13 56 616.13 56 624.13 64 640.13 64 640.13 56 640.13 48 640.13 40 640.13 32 640.13 24 640.13 16 640.13 8 640.13 0 616.13 0"/>
    <polygon points="656.14 8 664.14 8 656.14 0 640.13 0 640.13 8 640.13 16 640.13 24 640.13 32 640.13 40 640.13 48 640.13 56 640.13 64 664.14 64 656.14 56 664.14 56 656.14 48 664.14 48 656.14 40 664.14 40 656.14 32 664.14 32 656.14 24 664.14 24 656.14 16 664.14 16 656.14 8"/>
    <polygon class="cls-1" points="656.14 0 664.14 8 656.14 8 664.14 16 656.14 16 664.14 24 656.14 24 664.14 32 656.14 32 664.14 40 656.14 40 664.14 48 656.14 48 664.14 56 656.14 56 664.14 64 680.14 64 680.14 56 680.14 48 680.14 40 680.14 32 680.14 24 680.14 16 680.14 8 680.14 0 656.14 0"/>
    <polygon points="696.14 8 704.14 8 696.14 0 680.14 0 680.14 8 680.14 16 680.14 24 680.14 32 680.14 40 680.14 48 680.14 56 680.14 64 704.14 64 696.14 56 704.14 56 696.14 48 704.14 48 696.14 40 704.14 40 696.14 32 704.14 32 696.14 24 704.14 24 696.14 16 704.14 16 696.14 8"/>
    <polygon class="cls-1" points="696.14 0 704.14 8 696.14 8 704.14 16 696.14 16 704.14 24 696.14 24 704.14 32 696.14 32 704.14 40 696.14 40 704.14 48 696.14 48 704.14 56 696.14 56 704.14 64 720.15 64 720.15 56 720.15 48 720.15 40 720.15 32 720.15 24 720.15 16 720.15 8 720.15 0 696.14 0"/>
    <polygon points="736.15 8 744.15 8 736.15 0 720.15 0 720.15 8 720.15 16 720.15 24 720.15 32 720.15 40 720.15 48 720.15 56 720.15 64 744.15 64 736.15 56 744.15 56 736.15 48 744.15 48 736.15 40 744.15 40 736.15 32 744.15 32 736.15 24 744.15 24 736.15 16 744.15 16 736.15 8"/>
    <polygon class="cls-1" points="736.15 0 744.15 8 736.15 8 744.15 16 736.15 16 744.15 24 736.15 24 744.15 32 736.15 32 744.15 40 736.15 40 744.15 48 736.15 48 744.15 56 736.15 56 744.15 64 760.16 64 760.16 56 760.16 48 760.16 40 760.16 32 760.16 24 760.16 16 760.16 8 760.16 0 736.15 0"/>
    <polygon points="776.16 8 784.16 8 776.16 0 760.16 0 760.16 8 760.16 16 760.16 24 760.16 32 760.16 40 760.16 48 760.16 56 760.16 64 784.16 64 776.16 56 784.16 56 776.16 48 784.16 48 776.16 40 784.16 40 776.16 32 784.16 32 776.16 24 784.16 24 776.16 16 784.16 16 776.16 8"/>
    <polygon class="cls-1" points="776.16 0 784.16 8 776.16 8 784.16 16 776.16 16 784.16 24 776.16 24 784.16 32 776.16 32 784.16 40 776.16 40 784.16 48 776.16 48 784.16 56 776.16 56 784.16 64 800.17 64 800.17 56 800.17 48 800.17 40 800.17 32 800.17 24 800.17 16 800.17 8 800.17 0 776.16 0"/>
    <polygon points="816.17 8 824.17 8 816.17 0 800.17 0 800.17 8 800.17 16 800.17 24 800.17 32 800.17 40 800.17 48 800.17 56 800.17 64 824.17 64 816.17 56 824.17 56 816.17 48 824.17 48 816.17 40 824.17 40 816.17 32 824.17 32 816.17 24 824.17 24 816.17 16 824.17 16 816.17 8"/>
    <polygon class="cls-1" points="816.17 0 824.17 8 816.17 8 824.17 16 816.17 16 824.17 24 816.17 24 824.17 32 816.17 32 824.17 40 816.17 40 824.17 48 816.17 48 824.17 56 816.17 56 824.17 64 840.17 64 840.17 56 840.17 48 840.17 40 840.17 32 840.17 24 840.17 16 840.17 8 840.17 0 816.17 0"/>
    <polygon points="856.18 8 864.18 8 856.18 0 840.17 0 840.17 8 840.17 16 840.17 24 840.17 32 840.17 40 840.17 48 840.17 56 840.17 64 864.18 64 856.18 56 864.18 56 856.18 48 864.18 48 856.18 40 864.18 40 856.18 32 864.18 32 856.18 24 864.18 24 856.18 16 864.18 16 856.18 8"/>
    <polygon class="cls-1" points="856.18 0 864.18 8 856.18 8 864.18 16 856.18 16 864.18 24 856.18 24 864.18 32 856.18 32 864.18 40 856.18 40 864.18 48 856.18 48 864.18 56 856.18 56 864.18 64 880.18 64 880.18 56 880.18 48 880.18 40 880.18 32 880.18 24 880.18 16 880.18 8 880.18 0 856.18 0"/>
    <polygon points="896.19 8 904.19 8 896.19 0 880.18 0 880.18 8 880.18 16 880.18 24 880.18 32 880.18 40 880.18 48 880.18 56 880.18 64 904.19 64 896.19 56 904.19 56 896.19 48 904.19 48 896.19 40 904.19 40 896.19 32 904.19 32 896.19 24 904.19 24 896.19 16 904.19 16 896.19 8"/>
    <polygon class="cls-1" points="896.19 0 904.19 8 896.19 8 904.19 16 896.19 16 904.19 24 896.19 24 904.19 32 896.19 32 904.19 40 896.19 40 904.19 48 896.19 48 904.19 56 896.19 56 904.19 64 920.19 64 920.19 56 920.19 48 920.19 40 920.19 32 920.19 24 920.19 16 920.19 8 920.19 0 896.19 0"/>
    <polygon points="936.19 8 944.19 8 936.19 0 920.19 0 920.19 8 920.19 16 920.19 24 920.19 32 920.19 40 920.19 48 920.19 56 920.19 64 944.19 64 936.19 56 944.19 56 936.19 48 944.19 48 936.19 40 944.19 40 936.19 32 944.19 32 936.19 24 944.19 24 936.19 16 944.19 16 936.19 8"/>
    <polygon class="cls-1" points="936.19 0 944.19 8 936.19 8 944.19 16 936.19 16 944.19 24 936.19 24 944.19 32 936.19 32 944.19 40 936.19 40 944.19 48 936.19 48 944.19 56 936.19 56 944.19 64 960.2 64 960.2 56 960.2 48 960.2 40 960.2 32 960.2 24 960.2 16 960.2 8 960.2 0 936.19 0"/>
    <polygon points="976.2 8 984.2 8 976.2 0 960.2 0 960.2 8 960.2 16 960.2 24 960.2 32 960.2 40 960.2 48 960.2 56 960.2 64 984.2 64 976.2 56 984.2 56 976.2 48 984.2 48 976.2 40 984.2 40 976.2 32 984.2 32 976.2 24 984.2 24 976.2 16 984.2 16 976.2 8"/>
    <polygon class="cls-1" points="976.2 0 984.2 8 976.2 8 984.2 16 976.2 16 984.2 24 976.2 24 984.2 32 976.2 32 984.2 40 976.2 40 984.2 48 976.2 48 984.2 56 976.2 56 984.2 64 1000.21 64 1000.21 56 1000.21 48 1000.21 40 1000.21 32 1000.21 24 1000.21 16 1000.21 8 1000.21 0 976.2 0"/>
    <polygon points="1016.21 8 1024.21 8 1016.21 0 1000.21 0 1000.21 8 1000.21 16 1000.21 24 1000.21 32 1000.21 40 1000.21 48 1000.21 56 1000.21 64 1024.21 64 1016.21 56 1024.21 56 1016.21 48 1024.21 48 1016.21 40 1024.21 40 1016.21 32 1024.21 32 1016.21 24 1024.21 24 1016.21 16 1024.21 16 1016.21 8"/>
    <polygon class="cls-1" points="1016.21 0 1024.21 8 1016.21 8 1024.21 16 1016.21 16 1024.21 24 1016.21 24 1024.21 32 1016.21 32 1024.21 40 1016.21 40 1024.21 48 1016.21 48 1024.21 56 1016.21 56 1024.21 64 1040.22 64 1040.22 56 1040.22 48 1040.22 40 1040.22 32 1040.22 24 1040.22 16 1040.22 8 1040.22 0 1016.21 0"/>
    <polygon points="1056.22 8 1064.22 8 1056.22 0 1040.22 0 1040.22 8 1040.22 16 1040.22 24 1040.22 32 1040.22 40 1040.22 48 1040.22 56 1040.22 64 1064.22 64 1056.22 56 1064.22 56 1056.22 48 1064.22 48 1056.22 40 1064.22 40 1056.22 32 1064.22 32 1056.22 24 1064.22 24 1056.22 16 1064.22 16 1056.22 8"/>
    <polygon class="cls-1" points="1056.22 0 1064.22 8 1056.22 8 1064.22 16 1056.22 16 1064.22 24 1056.22 24 1064.22 32 1056.22 32 1064.22 40 1056.22 40 1064.22 48 1056.22 48 1064.22 56 1056.22 56 1064.22 64 1080.22 64 1080.22 56 1080.22 48 1080.22 40 1080.22 32 1080.22 24 1080.22 16 1080.22 8 1080.22 0 1056.22 0"/>
    <polygon points="1096.23 8 1104.23 8 1096.23 0 1080.22 0 1080.22 8 1080.22 16 1080.22 24 1080.22 32 1080.22 40 1080.22 48 1080.22 56 1080.22 64 1104.23 64 1096.23 56 1104.23 56 1096.23 48 1104.23 48 1096.23 40 1104.23 40 1096.23 32 1104.23 32 1096.23 24 1104.23 24 1096.23 16 1104.23 16 1096.23 8"/>
    <polygon class="cls-1" points="1096.23 0 1104.23 8 1096.23 8 1104.23 16 1096.23 16 1104.23 24 1096.23 24 1104.23 32 1096.23 32 1104.23 40 1096.23 40 1104.23 48 1096.23 48 1104.23 56 1096.23 56 1104.23 64 1120.23 64 1120.23 56 1120.23 48 1120.23 40 1120.23 32 1120.23 24 1120.23 16 1120.23 8 1120.23 0 1096.23 0"/>
    <polygon points="1136.24 8 1144.24 8 1136.24 0 1120.23 0 1120.23 8 1120.23 16 1120.23 24 1120.23 32 1120.23 40 1120.23 48 1120.23 56 1120.23 64 1144.24 64 1136.24 56 1144.24 56 1136.24 48 1144.24 48 1136.24 40 1144.24 40 1136.24 32 1144.24 32 1136.24 24 1144.24 24 1136.24 16 1144.24 16 1136.24 8"/>
    <polygon class="cls-1" points="1136.24 0 1144.24 8 1136.24 8 1144.24 16 1136.24 16 1144.24 24 1136.24 24 1144.24 32 1136.24 32 1144.24 40 1136.24 40 1144.24 48 1136.24 48 1144.24 56 1136.24 56 1144.24 64 1160.24 64 1160.24 56 1160.24 48 1160.24 40 1160.24 32 1160.24 24 1160.24 16 1160.24 8 1160.24 0 1136.24 0"/>
    <polygon points="1176.24 8 1184.24 8 1176.24 0 1160.24 0 1160.24 8 1160.24 16 1160.24 24 1160.24 32 1160.24 40 1160.24 48 1160.24 56 1160.24 64 1184.24 64 1176.24 56 1184.24 56 1176.24 48 1184.24 48 1176.24 40 1184.24 40 1176.24 32 1184.24 32 1176.24 24 1184.24 24 1176.24 16 1184.24 16 1176.24 8"/>
    <polygon class="cls-1" points="1176.24 0 1184.24 8 1176.24 8 1184.24 16 1176.24 16 1184.24 24 1176.24 24 1184.24 32 1176.24 32 1184.24 40 1176.24 40 1184.24 48 1176.24 48 1184.24 56 1176.24 56 1184.24 64 1200.25 64 1200.25 56 1200.25 48 1200.25 40 1200.25 32 1200.25 24 1200.25 16 1200.25 8 1200.25 0 1176.24 0"/>
    <polygon points="1216.25 8 1224.25 8 1216.25 0 1200.25 0 1200.25 8 1200.25 16 1200.25 24 1200.25 32 1200.25 40 1200.25 48 1200.25 56 1200.25 64 1224.25 64 1216.25 56 1224.25 56 1216.25 48 1224.25 48 1216.25 40 1224.25 40 1216.25 32 1224.25 32 1216.25 24 1224.25 24 1216.25 16 1224.25 16 1216.25 8"/>
    <polygon class="cls-1" points="1216.25 0 1224.25 8 1216.25 8 1224.25 16 1216.25 16 1224.25 24 1216.25 24 1224.25 32 1216.25 32 1224.25 40 1216.25 40 1224.25 48 1216.25 48 1224.25 56 1216.25 56 1224.25 64 1240.26 64 1240.26 56 1240.26 48 1240.26 40 1240.26 32 1240.26 24 1240.26 16 1240.26 8 1240.26 0 1216.25 0"/>
    <polygon points="1256.26 8 1264.26 8 1256.26 0 1240.26 0 1240.26 8 1240.26 16 1240.26 24 1240.26 32 1240.26 40 1240.26 48 1240.26 56 1240.26 64 1264.26 64 1256.26 56 1264.26 56 1256.26 48 1264.26 48 1256.26 40 1264.26 40 1256.26 32 1264.26 32 1256.26 24 1264.26 24 1256.26 16 1264.26 16 1256.26 8"/>
    <polygon class="cls-1" points="1256.26 0 1264.26 8 1256.26 8 1264.26 16 1256.26 16 1264.26 24 1256.26 24 1264.26 32 1256.26 32 1264.26 40 1256.26 40 1264.26 48 1256.26 48 1264.26 56 1256.26 56 1264.26 64 1280.26 64 1280.26 56 1280.26 48 1280.26 40 1280.26 32 1280.26 24 1280.26 16 1280.26 8 1280.26 0 1256.26 0"/>
    <polygon points="1296.27 8 1304.27 8 1296.27 0 1280.26 0 1280.26 8 1280.26 16 1280.26 24 1280.26 32 1280.26 40 1280.26 48 1280.26 56 1280.26 64 1304.27 64 1296.27 56 1304.27 56 1296.27 48 1304.27 48 1296.27 40 1304.27 40 1296.27 32 1304.27 32 1296.27 24 1304.27 24 1296.27 16 1304.27 16 1296.27 8"/>
    <polygon class="cls-1" points="1296.27 0 1304.27 8 1296.27 8 1304.27 16 1296.27 16 1304.27 24 1296.27 24 1304.27 32 1296.27 32 1304.27 40 1296.27 40 1304.27 48 1296.27 48 1304.27 56 1296.27 56 1304.27 64 1320.27 64 1320.27 56 1320.27 48 1320.27 40 1320.27 32 1320.27 24 1320.27 16 1320.27 8 1320.27 0 1296.27 0"/>
    <polygon points="1336.28 8 1344.28 8 1336.28 0 1320.27 0 1320.27 8 1320.27 16 1320.27 24 1320.27 32 1320.27 40 1320.27 48 1320.27 56 1320.27 64 1344.28 64 1336.28 56 1344.28 56 1336.28 48 1344.28 48 1336.28 40 1344.28 40 1336.28 32 1344.28 32 1336.28 24 1344.28 24 1336.28 16 1344.28 16 1336.28 8"/>
    <polygon class="cls-1" points="1336.28 0 1344.28 8 1336.28 8 1344.28 16 1336.28 16 1344.28 24 1336.28 24 1344.28 32 1336.28 32 1344.28 40 1336.28 40 1344.28 48 1336.28 48 1344.28 56 1336.28 56 1344.28 64 1360.28 64 1360.28 56 1360.28 48 1360.28 40 1360.28 32 1360.28 24 1360.28 16 1360.28 8 1360.28 0 1336.28 0"/>
    <polygon points="1376.28 8 1384.28 8 1376.28 0 1360.28 0 1360.28 8 1360.28 16 1360.28 24 1360.28 32 1360.28 40 1360.28 48 1360.28 56 1360.28 64 1384.28 64 1376.28 56 1384.28 56 1376.28 48 1384.28 48 1376.28 40 1384.28 40 1376.28 32 1384.28 32 1376.28 24 1384.28 24 1376.28 16 1384.28 16 1376.28 8"/>
    <polygon class="cls-1" points="1376.28 0 1384.28 8 1376.28 8 1384.28 16 1376.28 16 1384.28 24 1376.28 24 1384.28 32 1376.28 32 1384.28 40 1376.28 40 1384.28 48 1376.28 48 1384.28 56 1376.28 56 1384.28 64 1400.29 64 1400.29 56 1400.29 48 1400.29 40 1400.29 32 1400.29 24 1400.29 16 1400.29 8 1400.29 0 1376.28 0"/>
    <polygon points="1416.29 8 1424.29 8 1416.29 0 1400.29 0 1400.29 8 1400.29 16 1400.29 24 1400.29 32 1400.29 40 1400.29 48 1400.29 56 1400.29 64 1424.29 64 1416.29 56 1424.29 56 1416.29 48 1424.29 48 1416.29 40 1424.29 40 1416.29 32 1424.29 32 1416.29 24 1424.29 24 1416.29 16 1424.29 16 1416.29 8"/>
    <polygon class="cls-1" points="1416.29 0 1424.29 8 1416.29 8 1424.29 16 1416.29 16 1424.29 24 1416.29 24 1424.29 32 1416.29 32 1424.29 40 1416.29 40 1424.29 48 1416.29 48 1424.29 56 1416.29 56 1424.29 64 1440.3 64 1440.3 56 1440.3 48 1440.3 40 1440.3 32 1440.3 24 1440.3 16 1440.3 8 1440.3 0 1416.29 0"/>
    <polygon points="1456.3 8 1464.3 8 1456.3 0 1440.3 0 1440.3 8 1440.3 16 1440.3 24 1440.3 32 1440.3 40 1440.3 48 1440.3 56 1440.3 64 1464.3 64 1456.3 56 1464.3 56 1456.3 48 1464.3 48 1456.3 40 1464.3 40 1456.3 32 1464.3 32 1456.3 24 1464.3 24 1456.3 16 1464.3 16 1456.3 8"/>
    <polygon class="cls-1" points="1456.3 0 1464.3 8 1456.3 8 1464.3 16 1456.3 16 1464.3 24 1456.3 24 1464.3 32 1456.3 32 1464.3 40 1456.3 40 1464.3 48 1456.3 48 1464.3 56 1456.3 56 1464.3 64 1480.31 64 1480.31 56 1480.31 48 1480.31 40 1480.31 32 1480.31 24 1480.31 16 1480.31 8 1480.31 0 1456.3 0"/>
    <polygon points="1496.31 8 1504.31 8 1496.31 0 1480.31 0 1480.31 8 1480.31 16 1480.31 24 1480.31 32 1480.31 40 1480.31 48 1480.31 56 1480.31 64 1504.31 64 1496.31 56 1504.31 56 1496.31 48 1504.31 48 1496.31 40 1504.31 40 1496.31 32 1504.31 32 1496.31 24 1504.31 24 1496.31 16 1504.31 16 1496.31 8"/>
    <polygon class="cls-1" points="1496.31 0 1504.31 8 1496.31 8 1504.31 16 1496.31 16 1504.31 24 1496.31 24 1504.31 32 1496.31 32 1504.31 40 1496.31 40 1504.31 48 1496.31 48 1504.31 56 1496.31 56 1504.31 64 1520.31 64 1520.31 56 1520.31 48 1520.31 40 1520.31 32 1520.31 24 1520.31 16 1520.31 8 1520.31 0 1496.31 0"/>
    <polygon points="1536.32 8 1544.32 8 1536.32 0 1520.31 0 1520.31 8 1520.31 16 1520.31 24 1520.31 32 1520.31 40 1520.31 48 1520.31 56 1520.31 64 1544.32 64 1536.32 56 1544.32 56 1536.32 48 1544.32 48 1536.32 40 1544.32 40 1536.32 32 1544.32 32 1536.32 24 1544.32 24 1536.32 16 1544.32 16 1536.32 8"/>
    <polygon class="cls-1" points="1536.32 0 1544.32 8 1536.32 8 1544.32 16 1536.32 16 1544.32 24 1536.32 24 1544.32 32 1536.32 32 1544.32 40 1536.32 40 1544.32 48 1536.32 48 1544.32 56 1536.32 56 1544.32 64 1560.32 64 1560.32 56 1560.32 48 1560.32 40 1560.32 32 1560.32 24 1560.32 16 1560.32 8 1560.32 0 1536.32 0"/>
    <polygon points="1576.33 8 1584.33 8 1576.33 0 1560.32 0 1560.32 8 1560.32 16 1560.32 24 1560.32 32 1560.32 40 1560.32 48 1560.32 56 1560.32 64 1584.33 64 1576.33 56 1584.33 56 1576.33 48 1584.33 48 1576.33 40 1584.33 40 1576.33 32 1584.33 32 1576.33 24 1584.33 24 1576.33 16 1584.33 16 1576.33 8"/>
    <polygon class="cls-1" points="1576.33 0 1584.33 8 1576.33 8 1584.33 16 1576.33 16 1584.33 24 1576.33 24 1584.33 32 1576.33 32 1584.33 40 1576.33 40 1584.33 48 1576.33 48 1584.33 56 1576.33 56 1584.33 64 1600.33 64 1600.33 56 1600.33 48 1600.33 40 1600.33 32 1600.33 24 1600.33 16 1600.33 8 1600.33 0 1576.33 0"/>
    <polygon points="1616.33 8 1624.33 8 1616.33 0 1600.33 0 1600.33 8 1600.33 16 1600.33 24 1600.33 32 1600.33 40 1600.33 48 1600.33 56 1600.33 64 1624.33 64 1616.33 56 1624.33 56 1616.33 48 1624.33 48 1616.33 40 1624.33 40 1616.33 32 1624.33 32 1616.33 24 1624.33 24 1616.33 16 1624.33 16 1616.33 8"/>
    <polygon class="cls-1" points="1616.33 0 1624.33 8 1616.33 8 1624.33 16 1616.33 16 1624.33 24 1616.33 24 1624.33 32 1616.33 32 1624.33 40 1616.33 40 1624.33 48 1616.33 48 1624.33 56 1616.33 56 1624.33 64 1640.17 64 1640.17 56 1640.17 48 1640.17 40 1640.17 32 1640.17 24 1640.17 16 1640.17 8 1640.17 0 1616.33 0"/>
  </g>
</svg>