<?xml version="1.0" encoding="UTF-8"?>
<svg id="Layer_2" data-name="Layer 2" xmlns="http://www.w3.org/2000/svg" viewBox="0 0 1640 67.76">
  <defs>
    <style>
      .cls-1 {
        fill: #fff;
      }
    </style>
  </defs>
  <g id="Layer_1-2" data-name="Layer 1">
    <polygon points="139.8 64.26 140 64 139.38 64 139.8 64.26"/>
    <polygon points="440.06 64.25 440.26 64 439.65 64 440.06 64.25"/>
    <polygon points="740.31 64.23 740.49 64 739.93 64 740.31 64.23"/>
    <polygon points="1040.51 64.17 1040.64 64 1040.23 64 1040.51 64.17"/>
    <polygon points="1179.15 67.76 1182.21 64 1175.73 64 1179.15 67.76"/>
    <polygon points="1340.75 64.15 1340.86 64 1340.51 64 1340.75 64.15"/>
    <polygon class="cls-1" points="0 0 0 3.84 3.98 0 0 0"/>
    <path class="cls-1" d="m1466.71,64h9.29l-11.59-12.74,27.63-25.51,11.91,11.81-21.49,26.43h7.22l4.77-6.54,6.48,6.54h8.02l14.13-4.26,2.05,4.26h7.85l-4.39-7.03,3.36-4.94,18.1,11.97h17.65l-2.84-1.52,3.41-14.87,14.82-4.94,10.91,21.32h11.86l-.28-.23,8.2-9.5,14.65,9.73h11.54v-.48l-22.44-13.77,11.71-17.95,10.74,5.52v-6.84l-6.47-3.05,6.47-23.06V0h-6.09l-9.93,28.14-12.91-12.16,2.86-15.98h-6.6l-1.65,8.96-6.13-8.96h-9.66l12.33,16.13-14.39,15.91-11.47-21.37,7.21-10.67h-7.98l-3.88,6.15-6.63-6.15h-9.82l7.77,7.86-12.71,1.09-13.43-8.95h-14.47l-3.34,2.45-2.79-2.45h-7.97l15.85,17.03-20.19,10.78-8.55-5.98-3.55-9.07,13.22-12.76h-6.9l-6.71,6.53-1.45-6.53h-6.28l5.47,21.21-9.64,8.93-10.75-12.02,14.16-18.12h-7.62l-10.33,12.76-10.04-12.76h-7.35l5.93,8.91-11.03,6.46-11.49-15.37h-7.05l11.48,14.42-15,6.05h0l-5.71,2.31-14.49-4.56,17.8-18.22h-18.45l2.82,3.4-7.2,13.44-20.01-10.12-.56-6.72h-7.73l6.34,16.42-8.68,14.53-10.89-29.07,2.46-1.88h-22.53l-9.93,28.15-12.91-12.16,2.83-15.99h-6.6l-1.65,8.96-6.13-8.96h-9.66l12.33,16.13-14.39,15.91-11.47-21.37,7.21-10.67h-7.98l-3.88,6.16-6.63-6.16h-9.82l7.77,7.87-12.71,1.09-13.43-8.96h-14.46l-3.35,2.45-2.79-2.45h-7.97l15.85,17.03-20.19,10.78-8.55-5.98-3.55-9.07,13.23-12.76h-6.9l-6.71,6.54-1.45-6.54h-6.28l5.47,21.21-9.64,8.93-10.75-12.02,14.16-18.12h-7.61l-10.33,12.76-10.06-12.76h-7.35l5.93,8.91-11.03,6.46-11.49-15.37h-7.05l11.49,14.42-14.98,6.04v.04l-5.71,2.3-14.49-4.56,17.82-18.24h-18.49l2.84,3.42-7.2,13.44-20.01-10.12-.57-6.74h-7.74l6.34,16.44-8.68,14.53-10.89-29.07,2.5-1.9h-22.55l-9.93,28.17-12.91-12.16,2.83-16.01h-6.6l-1.66,8.98-6.13-8.98h-9.66l12.35,16.15-14.39,15.91-11.47-21.37,7.22-10.69h-7.98l-3.89,6.18-6.67-6.18h-9.82l7.79,7.89-12.71,1.09-13.45-8.98h-14.4l-3.38,2.47-2.81-2.47h-7.97l15.87,17.06-20.19,10.78-8.55-5.98-3.55-9.07,13.25-12.79h-6.9l-6.74,6.56-1.45-6.56h-6.28l5.48,21.23-9.64,8.93-10.75-12.02,14.17-18.14h-7.61l-10.35,12.78-10.07-12.78h-7.34l5.94,8.93-11.03,6.46-11.5-15.39h-7.05l11.5,14.44-14.94,6.03v.09l-5.71,2.3-14.49-4.56,17.88-18.3h-18.6l2.89,3.49-7.2,13.44-20.01-10.12-.57-6.81h-7.76l6.37,16.5-8.68,14.53-10.89-29.07,2.57-1.96h-22.61l-9.96,28.23-12.91-12.16,2.85-16.07h-6.59l-1.67,9.04-6.19-9.04h-9.67l12.4,16.21-14.39,15.91-11.47-21.37,7.27-10.75h-7.98l-3.93,6.24-6.74-6.24h-9.81l7.85,7.95-12.71,1.09-13.55-9.04h-14.23l-3.46,2.54-2.87-2.54h-7.96l15.93,17.12-20.19,10.78-8.55-5.98-3.55-9.07,13.31-12.85h-6.9l-6.8,6.62-1.47-6.62h-6.28l5.49,21.3-9.64,8.93-10.75-12.02,14.23-18.21h-7.61l-10.4,12.84-10.12-12.84h-7.34l5.98,8.99-11.03,6.46-11.54-15.45h-7.06l11.55,14.5-14.98,6.04v.04l-5.71,2.3-14.49-4.56,17.91-18.32h-18.64l2.9,3.51-7.2,13.44-20.01-10.12-.57-6.83h-7.76l6.38,16.52-8.68,14.53-10.89-29.07,2.6-1.98h-22.63l-9.96,28.25-12.91-12.16,2.84-16.09h-6.59l-1.67,9.06-6.2-9.06h-9.67l12.41,16.24-14.39,15.91-11.47-21.37,7.28-10.78h-7.99l-3.95,6.26-6.74-6.26h-9.81l7.88,7.97-12.71,1.09-13.59-9.06h-14.16l-3.49,2.56-2.91-2.56h-7.95l15.95,17.14-20.19,10.78-8.55-5.98-3.55-9.07,13.33-12.87h-6.9l-6.82,6.64-1.47-6.64h-6.28l5.5,21.32-9.64,8.93-10.75-12.02,14.24-18.23h-7.61l-10.42,12.86-10.14-12.86h-7.33l6,9.02-11.03,6.46-11.57-15.48h-7.06l11.57,14.53-15,6.05h0l-5.71,2.31-14.49-4.56L217.23,0h-18.64l2.91,3.51-7.2,13.44-20.01-10.12-.57-6.83h-7.77l6.38,16.52-8.68,14.53-10.89-29.07,2.61-1.98h-22.64l-9.96,28.26-12.91-12.16,2.85-16.1h-6.59l-1.67,9.07-6.21-9.07h-9.67l12.42,16.24-14.39,15.91-11.47-21.37,7.28-10.78h-7.99l-3.95,6.26-6.75-6.26h-9.81l7.88,7.97-12.71,1.09L35.49,0h-14.15l-3.49,2.56-2.92-2.56h-7.95l15.95,17.14L2.74,27.92,0,26v8.96l2.74,2.72L0,41.05v9.85l6.88-7.4,10.58,10.01-13.17,6.13-4.29-4.85v9.21h8.12l13.76-4.15,1.99,4.15h7.84l-4.32-6.91,3.36-4.94,17.93,11.85h17.61l-2.63-1.41,3.41-14.87,14.82-4.94,10.86,21.21h11.79l-.14-.12,8.2-9.5,14.48,9.62h12.31l-23.04-14.13,11.71-17.95,26.34,13.54-14.39,18.55h9.57l4.62-6.68,8.88,6.68h15.59l6.52-11.33,23.84-2.23-9.02,13.56h10.82l2.94-12.23,5.76,4.28h0l10.71,7.96h10.21l-2.61-15.18,14.25,7.98-4.54,7.2h6.37l4.27-7.77,7.47,7.77h9.29l-11.49-12.63,27.63-25.51,11.91,11.81-21.4,26.32h7.21l4.69-6.43,6.38,6.43h8.49l13.77-4.15,2,4.15h7.84l-4.33-6.92,3.36-4.94,17.94,11.86h17.61l-2.63-1.41,3.41-14.87,14.82-4.94,10.86,21.21h11.79l-.15-.13,8.2-9.5,14.48,9.63h12.31l-23.05-14.14,11.71-17.95,26.34,13.54-14.39,18.55h9.57l4.63-6.68,8.89,6.68h15.58l6.52-11.34,23.84-2.23-9.02,13.57h10.83l2.94-12.24,5.76,4.28h0l10.72,7.96h10.18l-2.61-15.2,14.25,7.98-4.56,7.23h6.37l4.28-7.8,7.49,7.8h9.29l-11.51-12.65,27.63-25.51,11.91,11.81-21.42,26.34h7.21l4.71-6.45,6.4,6.45h8.4l13.85-4.17,2.01,4.17h7.84l-4.34-6.94,3.36-4.94,17.97,11.88h17.62l-2.67-1.43,3.41-14.87,14.82-4.94,10.87,21.24h11.81l-.17-.15,8.2-9.5,14.52,9.65h12.31l-23.08-14.16,11.71-17.95,26.34,13.54-14.41,18.58h9.57l4.64-6.7,8.92,6.7h15.54l6.54-11.36,23.84-2.23-9.04,13.59h10.83l2.94-12.26,5.69,4.22h0l10.83,8.04h10.11l-2.62-15.27,14.25,7.98-4.59,7.29h6.37l4.31-7.86,7.55,7.86h9.29l-11.57-12.71,27.63-25.51,11.91,11.81-21.47,26.4h7.22l4.75-6.51,6.46,6.51h8.13l14.05-4.23,2.04,4.23h7.85l-4.38-7,3.36-4.94,18.06,11.94h17.64l-2.79-1.49,3.41-14.87,14.82-4.94,10.9,21.3h11.85l-.25-.21,8.2-9.5,14.61,9.71h12.32l-23.18-14.22,11.71-17.95,26.34,13.54-14.45,18.64h9.58l4.68-6.76,9,6.76h15.42l6.57-11.42,23.84-2.23-9.08,13.65h10.86l2.96-12.32,5.76,4.28h0l10.83,8.04h10.08l-2.62-15.29,14.25,7.98-4.61,7.31h6.38l4.33-7.88,7.57,7.88h9.29l-11.59-12.73,27.63-25.51,11.91,11.81-21.48,26.43h7.22l4.77-6.54,6.48,6.54h8.04l14.12-4.26,2.05,4.26h7.85l-4.39-7.02,3.36-4.94,18.1,11.96h17.65l-2.83-1.51,3.41-14.87,14.82-4.94,10.91,21.32h11.86l-.27-.23,8.2-9.5,14.64,9.73h12.32l-23.22-14.24,11.71-17.95,26.34,13.54-14.47,18.66h9.58l4.7-6.79,9.03,6.79h15.38l6.59-11.44,23.84-2.23-9.09,13.67h10.87l2.96-12.34,5.76,4.28h0l10.86,8.07h10.08l-2.63-15.29,14.25,7.98-4.61,7.31h6.38l4.33-7.88,7.58,7.88-.03-.02Zm139.52-40.99l12.91,9.17-7.72,11.73-20.53-7.88,15.35-13.01h-.01Zm3.36,26.21l-9.84,11.4-10.41-16.72,20.25,5.32Zm-55.41-33.44l14.54-2.71,11.23,21.37-14.49,5.32-11.27-11.35v-12.63h-.01Zm7.63,29.49l-3.02,16.72-23.36-18.62,13.77-9.36,12.62,11.26h-.01Zm-38.86-37.47l4.65-6.41,21.93,12.87-3.79,16.62s-22.79-23.08-22.79-23.08Zm8.04,14.49l5.9,9.15-11.98,19.02-17.16-17.53,23.24-10.65h0Zm-22.89,21.1l10.58,10.01-13.17,6.13-6.04-6.84,8.64-9.3h0ZM21.73,7.93l4.65-6.41,21.93,12.87-3.79,16.62L21.73,7.93Zm1.96,42.66L6.52,33.06l23.24-10.65,5.9,9.15-11.98,19.02h0Zm33.88,11.54l-23.36-18.62,13.77-9.36,12.62,11.26-3.02,16.72h0Zm6.67-22.23l-11.27-11.35v-12.63l14.54-2.71,11.23,21.37-14.49,5.32h0Zm34.3,20.85l-10.41-16.72,20.25,5.32-9.84,11.4Zm11.66-16.72l-20.53-7.88,15.35-13.01,12.91,9.17-7.72,11.73h0Zm22.12-16.49l7.1-25.32,7.63,3.7,11.56,34.01-26.29-12.4h0Zm38.67,34.82l-13.91-11.78,16.17-23.04,7.1,22.32-9.36,12.49h0Zm36.7-18.23l-21.64.33-7.24-24.84,29.07,9.55-.19,14.96h0Zm11.83,4.33h0l-4.18-2.62-1.01-18.29,5.19-1.27h0l4.69-1.15,9.4,32.15-14.09-8.82h0Zm11.77-24.54l27.13-6.48-19.93,24.94-7.2-18.45h0Zm26.8,27.23l-15.16-5.98,21.21-20.95,6.57,9.12-12.62,17.81Zm63.91-43.22l4.65-6.41,21.93,12.87-3.79,16.62-22.79-23.08h0Zm-17.44,51.71l-6.04-6.84,8.64-9.3,10.58,10.01-13.17,6.13h0Zm19.39-9.05l-17.16-17.53,23.24-10.65,5.9,9.15-11.98,19.02h0Zm33.88,11.54l-23.36-18.62,13.77-9.36,12.62,11.26-3.02,16.72h-.01Zm6.67-22.23l-11.27-11.35v-12.63l14.54-2.71,11.23,21.37-14.49,5.32h-.01Zm34.3,20.85l-10.41-16.72,20.25,5.32-9.84,11.4Zm11.66-16.72l-20.53-7.88,15.35-13.01,12.91,9.17-7.72,11.73h-.01Zm22.12-16.49l7.1-25.31,7.63,3.7,11.56,34.01s-26.29-12.4-26.29-12.4Zm38.67,34.81l-13.91-11.78,16.17-23.04,7.1,22.32-9.36,12.49h0Zm36.7-18.23l-21.64.33-7.24-24.84,29.07,9.55-.19,14.96Zm11.84,4.33h0l-4.19-2.62-1.01-18.29,5.16-1.26v-.03l4.69-1.15,9.4,32.15-14.06-8.8h.01Zm11.74-24.56l27.13-6.48-19.93,24.94-7.2-18.45h0Zm26.8,27.23l-15.16-5.98,21.21-20.95,6.57,9.12-12.62,17.81h0Zm63.91-43.22l4.65-6.41,21.93,12.87-3.79,16.62-22.79-23.08h0Zm-17.44,51.71l-6.04-6.84,8.64-9.3,10.58,10.01-13.17,6.13h-.01Zm19.39-9.05l-17.16-17.53,23.24-10.65,5.9,9.15-11.98,19.02h0Zm33.88,11.54l-23.36-18.62,13.77-9.36,12.62,11.26-3.02,16.72h-.01Zm6.67-22.23l-11.27-11.35v-12.63l14.54-2.71,11.23,21.37-14.49,5.32h0Zm34.3,20.85l-10.41-16.72,20.25,5.32-9.84,11.4Zm11.66-16.72l-20.53-7.88,15.35-13.01,12.91,9.17-7.72,11.73h0Zm22.12-16.49l7.1-25.32,7.63,3.7,11.56,34.01-26.29-12.4h0Zm38.67,34.82l-13.91-11.78,16.17-23.04,7.1,22.32-9.36,12.49h0Zm36.7-18.23l-21.64.33-7.24-24.84,29.07,9.55-.19,14.96Zm11.84,4.32v.02l-4.19-2.62-1.01-18.29,5.12-1.26v-.08l4.69-1.15,9.4,32.15-14.02-8.78h.01Zm11.7-24.58l27.13-6.48-19.93,24.94-7.2-18.45h0Zm26.8,27.23l-15.16-5.98,21.21-20.95,6.57,9.12-12.62,17.81h0Zm63.91-43.22l4.65-6.41,21.93,12.87-3.79,16.62-22.79-23.08h0Zm-17.44,51.71l-6.05-6.84,8.64-9.3,10.58,10.01-13.17,6.13h0Zm19.39-9.05l-17.16-17.53,23.24-10.65,5.9,9.15-11.98,19.02h0Zm33.88,11.54l-23.36-18.62,13.77-9.36,12.62,11.26-3.02,16.72h-.01Zm6.67-22.23l-11.27-11.35v-12.63l14.54-2.71,11.23,21.37-14.49,5.32h0Zm34.3,20.85l-10.41-16.72,20.25,5.32-9.84,11.4Zm11.66-16.72l-20.53-7.88,15.35-13.01,12.91,9.17-7.72,11.73h0Zm22.12-16.49l7.1-25.32,7.63,3.7,11.56,34.01-26.29-12.4h0Zm38.67,34.82l-13.91-11.78,16.17-23.04,7.1,22.32-9.36,12.49h0Zm36.7-18.23l-21.64.33-7.24-24.84,29.07,9.55-.19,14.96Zm11.84,4.33h0l-4.19-2.62-1.01-18.29,5.16-1.26v-.03l4.69-1.15,9.4,32.15-14.06-8.8h.01Zm11.74-24.56l27.13-6.48-19.93,24.94-7.2-18.45h0Zm26.8,27.23l-15.16-5.98,21.21-20.95,6.57,9.12-12.62,17.81h0Zm63.91-43.22l4.65-6.41,21.93,12.87-3.79,16.62s-22.79-23.08-22.79-23.08Zm-17.44,51.71l-6.05-6.84,8.64-9.3,10.58,10.01-13.17,6.13h0Zm19.39-9.05l-17.16-17.53,23.24-10.65,5.9,9.15-11.98,19.02h0Zm33.88,11.54l-23.36-18.62,13.77-9.36,12.62,11.26-3.02,16.72h-.01Zm6.67-22.23l-11.27-11.35v-12.63l14.54-2.71,11.23,21.37-14.49,5.32h-.01Zm34.3,20.85l-10.41-16.72,20.25,5.32-9.84,11.4Zm11.66-16.72l-20.53-7.88,15.35-13.01,12.91,9.17-7.72,11.73h-.01Zm22.12-16.49l7.1-25.32,7.63,3.7,11.56,34.01-26.29-12.4h0Zm38.67,34.82l-13.91-11.78,16.17-23.04,7.1,22.32-9.36,12.49h0Zm36.7-18.23l-21.64.33-7.24-24.84,29.07,9.55-.19,14.96Zm11.83,4.33h0l-4.18-2.62-1.01-18.29,5.19-1.27h0l4.69-1.15,9.4,32.15-14.09-8.82h0Zm11.77-24.54l27.13-6.48-19.93,24.94-7.2-18.45h0Zm11.63,21.24l21.21-20.95,6.57,9.12-12.62,17.81-15.16-5.98h0Z"/>
    <polygon points="149.57 64 163.08 64 154.19 57.32 149.57 64"/>
    <polygon points="163.64 31.06 172.33 16.52 165.95 0 155.37 0 152.75 1.99 163.64 31.06"/>
    <polygon points="147.04 5.93 139.41 2.23 132.31 27.54 158.6 39.94 147.04 5.93"/>
    <polygon points="61.79 7.97 53.91 0 35.49 0 49.07 9.07 61.79 7.97"/>
    <polygon points="74.42 0 63.72 0 70.47 6.26 74.42 0"/>
    <polygon points="86.59 32.15 100.98 16.24 88.57 0 82.41 0 75.12 10.78 86.59 32.15"/>
    <polygon points="122.77 28.26 132.73 0 112.71 0 109.86 16.1 122.77 28.26"/>
    <polygon points="29.76 22.41 6.52 33.06 23.68 50.59 35.66 31.57 29.76 22.41"/>
    <polygon points="34.2 43.5 57.57 62.12 60.59 45.4 47.97 34.14 34.2 43.5"/>
    <polygon points="52.96 15.91 52.96 28.54 64.23 39.89 78.72 34.57 67.5 13.2 52.96 15.91"/>
    <polygon points="27.39 57.09 31.71 64 48.68 64 30.75 52.15 27.39 57.09"/>
    <polygon points="98.54 60.74 108.37 49.34 88.13 44.02 98.54 60.74"/>
    <polygon points="67.06 47.73 63.66 62.59 66.29 64 92.75 64 81.89 42.79 67.06 47.73"/>
    <polygon points="104.39 63.88 104.54 64 127.07 64 112.6 54.38 104.39 63.88"/>
    <polygon points="48.31 14.39 26.38 1.52 21.73 7.93 44.52 31.01 48.31 14.39"/>
    <polygon points="0 34.97 0 41.05 2.74 37.68 0 34.97"/>
    <polygon points="21.33 0 14.93 0 17.84 2.56 21.33 0"/>
    <polygon points="17.46 53.51 6.88 43.5 0 50.91 0 54.79 4.29 59.64 17.46 53.51"/>
    <polygon points="8.12 64 23.88 64 21.88 59.85 8.12 64"/>
    <polygon points="185.18 52.67 178.66 64 200.01 64 209.03 50.44 185.18 52.67"/>
    <polygon points="106.11 0 98.24 0 104.44 9.07 106.11 0"/>
    <polygon points="186.05 44.45 207.69 44.12 207.88 29.16 178.8 19.61 186.05 44.45"/>
    <polygon points="194.3 16.95 201.5 3.51 198.59 0 173.72 0 174.29 6.83 194.3 16.95"/>
    <polygon points="89.66 36.14 110.2 44.02 117.92 32.29 105.01 23.13 89.66 36.14"/>
    <polygon points="157.07 50.58 170.98 62.36 180.34 49.87 173.24 27.54 157.07 50.58"/>
    <polygon points="128.04 31.91 116.34 49.87 139.38 64 140 64 154.38 45.45 128.04 31.91"/>
    <polygon points="213.82 22.89 219.53 20.58 219.53 20.58 234.53 14.53 222.96 0 217.23 0 199.33 18.33 213.82 22.89"/>
    <polygon points="22.93 17.14 6.98 0 3.98 0 0 3.84 0 26.01 2.74 27.92 22.93 17.14"/>
    <polygon points="449.83 64 463.35 64 454.46 57.32 449.83 64"/>
    <polygon points="463.91 31.05 472.59 16.52 466.22 0 455.63 0 453.02 1.99 463.91 31.05"/>
    <polygon points="447.31 5.93 439.68 2.22 432.58 27.54 458.87 39.94 447.31 5.93"/>
    <polygon points="362.05 7.97 354.18 0 335.76 0 349.34 9.06 362.05 7.97"/>
    <polygon points="374.68 0 363.99 0 370.74 6.26 374.68 0"/>
    <polygon points="386.86 32.15 401.25 16.24 388.84 0 382.67 0 375.39 10.77 386.86 32.15"/>
    <polygon points="423.03 28.25 433 0 412.97 0 410.13 16.09 423.03 28.25"/>
    <polygon points="330.03 22.41 306.78 33.06 323.95 50.59 335.93 31.56 330.03 22.41"/>
    <polygon points="334.47 43.5 357.83 62.12 360.85 45.4 348.24 34.14 334.47 43.5"/>
    <polygon points="353.23 15.9 353.23 28.54 364.5 39.89 378.99 34.57 367.76 13.2 353.23 15.9"/>
    <polygon points="327.65 57.08 331.98 64 348.95 64 331.01 52.14 327.65 57.08"/>
    <polygon points="398.8 60.74 408.64 49.34 388.39 44.02 398.8 60.74"/>
    <polygon points="367.33 47.73 363.92 62.59 366.56 64 393.01 64 382.16 42.79 367.33 47.73"/>
    <polygon points="404.66 63.87 404.81 64 427.34 64 412.86 54.37 404.66 63.87"/>
    <polygon points="348.57 14.38 326.65 1.51 321.99 7.92 344.78 31.01 348.57 14.38"/>
    <polygon points="291.1 25.87 263.46 51.37 274.95 64 281.61 64 303.01 37.68 291.1 25.87"/>
    <polygon points="297.34 0 289.05 0 290.52 6.64 297.34 0"/>
    <polygon points="278.62 30.25 288.26 21.32 282.76 0 282.12 0 267.87 18.23 278.62 30.25"/>
    <polygon points="321.6 0 315.2 0 318.11 2.56 321.6 0"/>
    <polygon points="298.51 52.79 304.55 59.63 317.72 53.51 307.14 43.5 298.51 52.79"/>
    <polygon points="308.37 64 324.14 64 322.15 59.85 308.37 64"/>
    <polygon points="288.82 64 299.88 64 293.51 57.57 288.82 64"/>
    <polygon points="485.45 52.66 478.93 64 500.27 64 509.29 50.43 485.45 52.66"/>
    <polygon points="406.38 0 398.51 0 404.71 9.06 406.38 0"/>
    <polygon points="486.31 44.45 507.95 44.12 508.14 29.15 479.07 19.61 486.31 44.45"/>
    <polygon points="494.57 16.95 501.76 3.51 498.86 0 473.98 0 474.56 6.83 494.57 16.95"/>
    <polygon points="274.5 0 253.95 0 264.08 12.86 274.5 0"/>
    <polygon points="389.93 36.14 410.46 44.02 418.19 32.29 405.28 23.12 389.93 36.14"/>
    <polygon points="457.34 50.58 471.25 62.35 480.6 49.86 473.5 27.54 457.34 50.58"/>
    <polygon points="428.31 31.91 416.6 49.86 439.65 64 440.26 64 454.65 45.45 428.31 31.91"/>
    <polygon points="514.08 22.89 519.79 20.58 519.79 20.55 534.77 14.5 523.22 0 517.5 0 499.59 18.33 514.08 22.89"/>
    <polygon points="294.45 21.94 303.01 27.92 323.19 17.14 307.25 0 304.24 0 290.9 12.86 294.45 21.94"/>
    <polygon points="219.52 26.27 219.52 26.27 214.33 27.54 215.34 45.83 219.52 48.45 219.52 48.45 233.61 57.27 224.21 25.12 219.52 26.27"/>
    <polygon points="219.53 56.04 213.77 51.77 210.83 64 230.24 64 219.53 56.05 219.53 56.04"/>
    <polygon points="252.62 9.02 246.62 0 230.02 0 241.58 15.48 252.62 9.02"/>
    <polygon points="231.29 23.91 238.49 42.36 258.42 17.42 231.29 23.91"/>
    <polygon points="519.79 56.04 514.03 51.76 511.1 64 530.51 64 519.79 56.04 519.79 56.04"/>
    <polygon points="237.84 48.82 240.45 64 247.55 64 252.09 56.8 237.84 48.82"/>
    <polygon points="242.93 45.16 258.09 51.14 270.71 33.33 264.13 24.21 242.93 45.16"/>
    <polygon points="253.92 64 265.66 64 258.18 56.23 253.92 64"/>
    <polygon points="750.06 64 763.62 64 754.7 57.3 750.06 64"/>
    <polygon points="764.15 31.03 772.83 16.5 766.47 0 755.84 0 753.26 1.97 764.15 31.03"/>
    <polygon points="747.55 5.91 739.92 2.2 732.82 27.52 759.11 39.91 747.55 5.91"/>
    <polygon points="662.3 7.95 654.44 0 636.03 0 649.58 9.04 662.3 7.95"/>
    <polygon points="674.91 0 664.25 0 670.98 6.24 674.91 0"/>
    <polygon points="687.1 32.13 701.49 16.21 689.09 0 682.9 0 675.63 10.75 687.1 32.13"/>
    <polygon points="723.27 28.23 733.23 0 713.21 0 710.37 16.07 723.27 28.23"/>
    <polygon points="630.27 22.39 607.03 33.04 624.19 50.56 636.17 31.54 630.27 22.39"/>
    <polygon points="634.71 43.48 658.07 62.09 661.1 45.38 648.48 34.12 634.71 43.48"/>
    <polygon points="653.47 15.88 653.47 28.52 664.74 39.87 679.23 34.55 668 13.17 653.47 15.88"/>
    <polygon points="627.9 57.06 632.24 64 649.22 64 631.25 52.12 627.9 57.06"/>
    <polygon points="699.05 60.72 708.88 49.32 688.63 44 699.05 60.72"/>
    <polygon points="667.57 47.7 664.17 62.57 666.84 64 693.27 64 682.4 42.76 667.57 47.7"/>
    <polygon points="704.9 63.85 705.07 64 727.62 64 713.1 54.35 704.9 63.85"/>
    <polygon points="648.81 14.36 626.89 1.49 622.23 7.9 645.02 30.98 648.81 14.36"/>
    <polygon points="591.34 25.84 563.7 51.35 575.21 64 581.83 64 603.25 37.66 591.34 25.84"/>
    <polygon points="597.56 0 589.29 0 590.76 6.62 597.56 0"/>
    <polygon points="578.86 30.22 588.51 21.3 583.01 0 582.34 0 568.12 18.21 578.86 30.22"/>
    <polygon points="621.81 0 615.47 0 618.35 2.54 621.81 0"/>
    <polygon points="598.75 52.77 604.79 59.61 617.96 53.49 607.39 43.48 598.75 52.77"/>
    <polygon points="608.54 64 624.4 64 622.39 59.83 608.54 64"/>
    <polygon points="589.04 64 600.15 64 593.75 57.55 589.04 64"/>
    <polygon points="785.69 52.64 779.15 64 800.5 64 809.54 50.41 785.69 52.64"/>
    <polygon points="706.62 0 698.76 0 704.95 9.04 706.62 0"/>
    <polygon points="786.56 44.43 808.19 44.09 808.39 29.13 779.31 19.59 786.56 44.43"/>
    <polygon points="794.81 16.93 802 3.49 799.12 0 774.23 0 774.8 6.81 794.81 16.93"/>
    <polygon points="574.73 0 554.21 0 564.33 12.84 574.73 0"/>
    <polygon points="690.17 36.11 710.7 44 718.43 32.27 705.52 23.1 690.17 36.11"/>
    <polygon points="757.58 50.55 771.49 62.33 780.85 49.84 773.75 27.52 757.58 50.55"/>
    <polygon points="728.55 31.89 716.85 49.84 739.93 64 740.49 64 754.89 45.42 728.55 31.89"/>
    <polygon points="814.32 22.86 820.04 20.56 820.04 20.47 834.98 14.44 823.47 0 817.72 0 799.83 18.3 814.32 22.86"/>
    <polygon points="594.7 21.91 603.25 27.9 623.43 17.12 607.51 0 604.46 0 591.15 12.84 594.7 21.91"/>
    <polygon points="519.76 26.24 519.76 26.27 514.6 27.54 515.61 45.83 519.79 48.45 519.79 48.45 533.85 57.25 524.45 25.1 519.76 26.24"/>
    <polygon points="552.86 8.99 546.88 0 530.28 0 541.83 15.45 552.86 8.99"/>
    <polygon points="531.53 23.88 538.73 42.34 558.66 17.4 531.53 23.88"/>
    <polygon points="819.96 55.96 814.27 51.74 811.33 64 830.8 64 819.96 55.96 819.96 55.96"/>
    <polygon points="538.08 48.8 540.69 64 547.78 64 552.33 56.77 538.08 48.8"/>
    <polygon points="543.17 45.14 558.33 51.12 570.95 33.31 564.37 24.19 543.17 45.14"/>
    <polygon points="554.15 64 565.92 64 558.43 56.2 554.15 64"/>
    <polygon points="1050.22 64 1063.9 64 1054.9 57.24 1050.22 64"/>
    <polygon points="1064.35 30.97 1073.04 16.44 1066.69 0 1055.96 0 1053.46 1.9 1064.35 30.97"/>
    <polygon points="1047.75 5.85 1040.12 2.14 1033.02 27.46 1059.32 39.85 1047.75 5.85"/>
    <polygon points="962.5 7.89 954.7 0 936.33 0 949.78 8.98 962.5 7.89"/>
    <polygon points="975.08 0 964.52 0 971.18 6.18 975.08 0"/>
    <polygon points="987.3 32.06 1001.69 16.15 989.34 0 983.06 0 975.84 10.69 987.3 32.06"/>
    <polygon points="1023.48 28.17 1033.41 0 1013.4 0 1010.57 16.01 1023.48 28.17"/>
    <polygon points="930.47 22.33 907.23 32.98 924.39 50.5 936.37 31.48 930.47 22.33"/>
    <polygon points="934.91 43.41 958.28 62.03 961.3 45.31 948.68 34.06 934.91 43.41"/>
    <polygon points="953.67 15.82 953.67 28.45 964.94 39.81 979.43 34.49 968.21 13.11 953.67 15.82"/>
    <polygon points="928.1 57 932.48 64 949.52 64 931.46 52.06 928.1 57"/>
    <polygon points="999.25 60.66 1009.08 49.26 988.84 43.94 999.25 60.66"/>
    <polygon points="967.78 47.64 964.37 62.51 967.16 64 993.5 64 982.6 42.7 967.78 47.64"/>
    <polygon points="1005.1 63.79 1005.35 64 1027.91 64 1013.31 54.29 1005.1 63.79"/>
    <polygon points="949.02 14.3 927.09 1.43 922.44 7.84 945.23 30.92 949.02 14.3"/>
    <polygon points="891.54 25.78 863.9 51.29 875.47 64 881.98 64 903.45 37.6 891.54 25.78"/>
    <polygon points="897.7 0 889.51 0 890.96 6.56 897.7 0"/>
    <polygon points="879.07 30.16 888.71 21.23 883.23 0 882.49 0 868.32 18.15 879.07 30.16"/>
    <polygon points="921.93 0 915.74 0 918.55 2.47 921.93 0"/>
    <polygon points="898.95 52.71 905 59.55 918.17 53.42 907.59 43.41 898.95 52.71"/>
    <polygon points="908.54 64 924.63 64 922.59 59.77 908.54 64"/>
    <polygon points="889.2 64 900.41 64 893.95 57.49 889.2 64"/>
    <polygon points="1085.89 52.58 1079.32 64 1100.66 64 1109.74 50.35 1085.89 52.58"/>
    <polygon points="1006.81 0 999.01 0 1005.15 8.98 1006.81 0"/>
    <polygon points="1086.76 44.36 1108.4 44.03 1108.59 29.07 1079.51 19.52 1086.76 44.36"/>
    <polygon points="1095.01 16.87 1102.21 3.42 1099.37 0 1074.43 0 1075 6.75 1095.01 16.87"/>
    <polygon points="874.88 0 854.46 0 864.53 12.78 874.88 0"/>
    <polygon points="990.37 36.05 1010.91 43.94 1018.63 32.21 1005.72 23.04 990.37 36.05"/>
    <polygon points="1057.78 50.49 1071.69 62.27 1081.05 49.78 1073.95 27.46 1057.78 50.49"/>
    <polygon points="1028.75 31.83 1017.05 49.78 1040.23 64 1040.64 64 1055.09 45.36 1028.75 31.83"/>
    <polygon points="1114.53 22.8 1120.24 20.5 1120.24 20.46 1135.22 14.42 1123.73 0 1117.86 0 1100.04 18.24 1114.53 22.8"/>
    <polygon points="894.9 21.85 903.45 27.84 923.64 17.06 907.77 0 904.6 0 891.35 12.78 894.9 21.85"/>
    <polygon points="819.96 26.18 819.96 26.26 814.84 27.52 815.85 45.8 820.04 48.43 820.04 48.41 834.06 57.19 824.65 25.03 819.96 26.18"/>
    <polygon points="853.06 8.93 847.12 0 830.53 0 842.03 15.39 853.06 8.93"/>
    <polygon points="831.74 23.82 838.93 42.28 858.87 17.34 831.74 23.82"/>
    <polygon points="1120.24 55.96 1114.48 51.68 1111.52 64 1131.07 64 1120.24 55.96 1120.24 55.96"/>
    <polygon points="838.29 48.73 840.91 64 847.94 64 852.53 56.71 838.29 48.73"/>
    <polygon points="843.37 45.08 858.53 51.06 871.15 33.25 864.58 24.13 843.37 45.08"/>
    <polygon points="854.31 64 866.18 64 858.63 56.14 854.31 64"/>
    <polygon points="1350.44 64 1364.17 64 1355.14 57.21 1350.44 64"/>
    <polygon points="1364.59 30.95 1373.28 16.42 1366.94 0 1356.18 0 1353.7 1.88 1364.59 30.95"/>
    <polygon points="1347.99 5.82 1340.37 2.12 1333.27 27.43 1359.56 39.83 1347.99 5.82"/>
    <polygon points="1262.74 7.87 1254.97 0 1236.6 0 1250.03 8.96 1262.74 7.87"/>
    <polygon points="1275.3 0 1264.79 0 1271.42 6.16 1275.3 0"/>
    <polygon points="1287.54 32.04 1301.94 16.13 1289.6 0 1283.28 0 1276.08 10.67 1287.54 32.04"/>
    <polygon points="1323.72 28.15 1333.64 0 1313.64 0 1310.81 15.99 1323.72 28.15"/>
    <polygon points="1230.71 22.31 1207.47 32.96 1224.63 50.48 1236.62 31.46 1230.71 22.31"/>
    <polygon points="1235.15 43.39 1258.52 62.01 1261.54 45.29 1248.92 34.04 1235.15 43.39"/>
    <polygon points="1253.91 15.8 1253.91 28.43 1265.19 39.78 1279.68 34.46 1268.45 13.09 1253.91 15.8"/>
    <polygon points="1228.34 56.98 1232.73 64 1249.79 64 1231.7 52.04 1228.34 56.98"/>
    <polygon points="1299.49 60.63 1309.33 49.24 1289.08 43.92 1299.49 60.63"/>
    <polygon points="1268.02 47.62 1264.61 62.49 1267.44 64 1293.75 64 1282.84 42.68 1268.02 47.62"/>
    <polygon points="1305.34 63.77 1305.61 64 1328.19 64 1313.55 54.27 1305.34 63.77"/>
    <polygon points="1249.26 14.28 1227.33 1.41 1222.68 7.82 1245.47 30.9 1249.26 14.28"/>
    <polygon points="1191.78 25.76 1164.15 51.27 1175.73 64 1182.21 64 1203.69 37.57 1191.78 25.76"/>
    <polygon points="1197.92 0 1189.76 0 1191.21 6.54 1197.92 0"/>
    <polygon points="1179.31 30.14 1188.95 21.21 1183.48 0 1182.72 0 1168.56 18.13 1179.31 30.14"/>
    <polygon points="1222.14 0 1216 0 1218.79 2.45 1222.14 0"/>
    <polygon points="1199.19 52.69 1205.24 59.53 1218.41 53.4 1207.83 43.39 1199.19 52.69"/>
    <polygon points="1208.71 64 1224.88 64 1222.83 59.74 1208.71 64"/>
    <polygon points="1189.43 64 1200.67 64 1194.19 57.46 1189.43 64"/>
    <polygon points="1386.14 52.56 1379.55 64 1400.89 64 1409.98 50.33 1386.14 52.56"/>
    <polygon points="1307.04 0 1299.26 0 1305.39 8.96 1307.04 0"/>
    <polygon points="1387 44.34 1408.64 44.01 1408.83 29.05 1379.76 19.5 1387 44.34"/>
    <polygon points="1395.25 16.84 1402.45 3.4 1399.63 0 1374.68 0 1375.25 6.73 1395.25 16.84"/>
    <polygon points="1175.1 0 1154.72 0 1164.77 12.76 1175.1 0"/>
    <polygon points="1290.61 36.03 1311.15 43.92 1318.87 32.18 1305.97 23.02 1290.61 36.03"/>
    <polygon points="1358.02 50.47 1371.94 62.25 1381.29 49.76 1374.19 27.43 1358.02 50.47"/>
    <polygon points="1329 31.8 1317.29 49.76 1340.51 64 1340.86 64 1355.33 45.34 1329 31.8"/>
    <polygon points="1414.77 22.78 1420.48 20.48 1420.48 20.47 1435.48 14.42 1424 0 1418.08 0 1400.28 18.22 1414.77 22.78"/>
    <polygon points="1195.14 21.83 1203.69 27.81 1223.88 17.03 1208.03 0 1204.82 0 1191.59 12.76 1195.14 21.83"/>
    <polygon points="1120.21 26.16 1120.21 26.19 1115.04 27.46 1116.05 45.74 1120.24 48.36 1120.24 48.36 1134.3 57.17 1124.89 25.01 1120.21 26.16"/>
    <polygon points="1153.3 8.91 1147.37 0 1130.78 0 1142.27 15.37 1153.3 8.91"/>
    <polygon points="1131.98 23.8 1139.17 42.25 1159.11 17.32 1131.98 23.8"/>
    <polygon points="1138.53 48.71 1141.15 64 1148.17 64 1152.78 56.69 1138.53 48.71"/>
    <polygon points="1143.61 45.06 1158.77 51.04 1171.39 33.23 1164.82 24.11 1143.61 45.06"/>
    <polygon points="1154.54 64 1166.44 64 1158.87 56.12 1154.54 64"/>
    <polygon points="1640 30.48 1640 4.37 1633.53 27.43 1640 30.48"/>
    <polygon points="1563.01 7.86 1555.24 0 1536.87 0 1550.29 8.96 1563.01 7.86"/>
    <polygon points="1575.57 0 1565.06 0 1571.69 6.15 1575.57 0"/>
    <polygon points="1587.81 32.04 1602.2 16.13 1589.87 0 1583.55 0 1576.34 10.67 1587.81 32.04"/>
    <polygon points="1623.98 28.14 1633.91 0 1613.91 0 1611.08 15.98 1623.98 28.14"/>
    <polygon points="1536.88 31.46 1530.98 22.3 1507.74 32.95 1524.9 50.48 1536.88 31.46"/>
    <polygon points="1535.42 43.39 1558.78 62.01 1561.81 45.29 1549.19 34.03 1535.42 43.39"/>
    <polygon points="1579.94 34.46 1568.71 13.09 1554.18 15.8 1554.18 28.43 1565.45 39.78 1579.94 34.46"/>
    <polygon points="1528.61 56.97 1533 64 1550.06 64 1531.96 52.03 1528.61 56.97"/>
    <polygon points="1609.59 49.23 1589.34 43.91 1599.76 60.63 1609.59 49.23"/>
    <polygon points="1568.28 47.62 1564.88 62.48 1567.71 64 1594.02 64 1583.11 42.68 1568.28 47.62"/>
    <polygon points="1605.61 63.77 1605.88 64 1628.46 64 1613.81 54.27 1605.61 63.77"/>
    <polygon points="1549.52 14.28 1527.6 1.4 1522.94 7.82 1545.73 30.9 1549.52 14.28"/>
    <polygon points="1492.05 25.76 1464.41 51.26 1476 64 1482.47 64 1503.96 37.57 1492.05 25.76"/>
    <polygon points="1498.18 0 1490.02 0 1491.47 6.53 1498.18 0"/>
    <polygon points="1479.57 30.14 1489.22 21.21 1483.74 0 1482.98 0 1468.83 18.12 1479.57 30.14"/>
    <polygon points="1522.4 0 1516.27 0 1519.06 2.45 1522.4 0"/>
    <polygon points="1505.51 59.53 1518.67 53.4 1508.1 43.39 1499.46 52.69 1505.51 59.53"/>
    <polygon points="1508.97 64 1525.15 64 1523.1 59.74 1508.97 64"/>
    <polygon points="1489.69 64 1500.94 64 1494.46 57.46 1489.69 64"/>
    <polygon points="1607.31 0 1599.53 0 1605.66 8.96 1607.31 0"/>
    <polygon points="1475.37 0 1454.99 0 1465.04 12.76 1475.37 0"/>
    <polygon points="1619.14 32.18 1606.23 23.01 1590.88 36.03 1611.41 43.91 1619.14 32.18"/>
    <polygon points="1617.56 49.75 1640 63.52 1640 37.32 1629.26 31.8 1617.56 49.75"/>
    <polygon points="1495.41 21.83 1503.96 27.81 1524.14 17.03 1508.3 0 1505.08 0 1491.86 12.76 1495.41 21.83"/>
    <polygon points="1420.47 26.16 1420.47 26.16 1415.29 27.43 1416.29 45.72 1420.47 48.34 1420.47 48.34 1434.56 57.16 1425.16 25.01 1420.47 26.16"/>
    <polygon points="1420.48 55.93 1414.72 51.66 1411.76 64 1431.34 64 1420.48 55.94 1420.48 55.93"/>
    <polygon points="1453.57 8.91 1447.64 0 1431.05 0 1442.54 15.37 1453.57 8.91"/>
    <polygon points="1432.24 23.8 1439.44 42.25 1459.38 17.31 1432.24 23.8"/>
    <polygon points="1438.79 48.71 1441.42 64 1448.43 64 1453.04 56.69 1438.79 48.71"/>
    <polygon points="1465.08 24.11 1443.88 45.05 1459.04 51.04 1471.66 33.23 1465.08 24.11"/>
    <polygon points="1459.14 56.12 1454.81 64 1466.71 64 1459.14 56.12"/>
  </g>
</svg>