<?xml version="1.0" encoding="UTF-8"?>
<svg id="Layer_2" data-name="Layer 2" xmlns="http://www.w3.org/2000/svg" viewBox="0 0 1639.99 67.09">
  <defs>
    <style>
      .cls-1 {
        fill: #fff;
      }
    </style>
  </defs>
  <g id="Layer_1-2" data-name="Layer 1">
    <g>
      <path d="m200.91,67c.86-.2,1.24-1.48,1.25-2.99h-5.23c.52,1.91,1.94,3.47,3.98,2.99Z"/>
      <path class="cls-1" d="m1633.18,8.99c-2.92,7.77-7.31,10.68-15.48,10.29-6.12-.29-13.02-3.82-16.68-8.98-2.85-4.03-1.53-7.75,1.69-10.28h-9.31c-2.36,2.41-4.35,5.29-7.73,6.3-4.54,1.36-6.72-3.55-9.85-5.66-.3-.2-.57-.42-.82-.64h-4.72c1.89,3.5.37,8.28-3.27,9.92-3.03,1.36-6.03-1.72-8.8-2.87-5.72-2.37-11.83-3.44-17.36-6.08-.54-.26-.94-.59-1.26-.97h-5.73c-.71,3.12-2.21,6.4-3.18,8.98-2.92,7.77-7.31,10.68-15.48,10.29-6.12-.29-13.02-3.82-16.68-8.98-2.85-4.03-1.53-7.75,1.69-10.28h-9.31c-2.36,2.41-4.35,5.29-7.73,6.3-4.54,1.36-6.72-3.55-9.85-5.66-.3-.2-.57-.42-.82-.64h-4.72c1.89,3.5.37,8.28-3.27,9.92-3.03,1.36-6.03-1.72-8.8-2.87-5.72-2.37-11.83-3.44-17.36-6.08-.54-.26-.94-.59-1.26-.97h-5.73c-.71,3.12-2.21,6.4-3.18,8.98-2.92,7.77-7.31,10.68-15.48,10.29-6.12-.29-13.02-3.82-16.68-8.98-2.85-4.03-1.53-7.75,1.69-10.28h-9.31c-2.36,2.41-4.35,5.29-7.73,6.3-4.54,1.36-6.72-3.55-9.85-5.66-.3-.2-.57-.42-.82-.64h-4.72c1.89,3.5.37,8.28-3.27,9.92-3.03,1.36-6.03-1.72-8.8-2.87-5.72-2.37-11.83-3.44-17.36-6.08-.54-.26-.94-.59-1.26-.97h-5.73c-.71,3.12-2.21,6.4-3.18,8.98-2.92,7.77-7.31,10.68-15.48,10.29-6.12-.29-13.02-3.82-16.68-8.98-2.85-4.03-1.53-7.75,1.69-10.28h-9.31c-2.36,2.41-4.35,5.29-7.73,6.3-4.54,1.36-6.72-3.55-9.85-5.66-.3-.2-.57-.42-.82-.64h-4.72c1.89,3.5.37,8.28-3.27,9.92-3.03,1.36-6.03-1.72-8.8-2.87-5.72-2.37-11.83-3.44-17.36-6.08-.54-.26-.94-.59-1.26-.97h-5.73c-.71,3.12-2.21,6.4-3.18,8.98-2.92,7.77-7.31,10.68-15.48,10.29-6.12-.29-13.02-3.82-16.68-8.98-2.85-4.03-1.53-7.75,1.69-10.28h-9.31c-2.36,2.41-4.35,5.29-7.73,6.3-4.54,1.36-6.72-3.55-9.85-5.66-.3-.2-.57-.42-.82-.64h-4.72c1.89,3.5.37,8.28-3.27,9.92-3.03,1.36-6.03-1.72-8.8-2.87-5.72-2.37-11.83-3.44-17.36-6.08-.54-.26-.94-.59-1.26-.97h-5.73c-.71,3.12-2.21,6.4-3.18,8.98-2.92,7.77-7.31,10.68-15.48,10.29-6.12-.29-13.02-3.82-16.68-8.98-2.85-4.03-1.53-7.75,1.69-10.28h-9.31c-2.36,2.41-4.35,5.29-7.73,6.3-4.54,1.36-6.72-3.55-9.85-5.66-.3-.2-.57-.42-.82-.64h-4.72c1.89,3.5.37,8.28-3.27,9.92-3.03,1.36-6.03-1.72-8.8-2.87-5.72-2.37-11.83-3.44-17.36-6.08-.54-.26-.94-.59-1.26-.97h-5.73c-.71,3.12-2.21,6.4-3.18,8.98-2.92,7.77-7.31,10.68-15.48,10.29-6.12-.29-13.02-3.82-16.68-8.98-2.85-4.03-1.53-7.75,1.69-10.28h-9.31c-2.36,2.41-4.35,5.29-7.73,6.3-4.54,1.36-6.72-3.55-9.85-5.66-.3-.2-.57-.42-.82-.64h-4.72c1.89,3.5.37,8.28-3.27,9.92-3.03,1.36-6.03-1.72-8.8-2.87-5.72-2.37-11.83-3.44-17.36-6.08-.54-.26-.94-.59-1.26-.97h-5.73c-.71,3.12-2.21,6.4-3.18,8.98-2.92,7.77-7.31,10.68-15.48,10.29-6.12-.29-13.02-3.82-16.68-8.98-2.85-4.03-1.53-7.75,1.69-10.28h-9.31c-2.36,2.41-4.35,5.29-7.73,6.3-4.54,1.36-6.72-3.55-9.85-5.66-.3-.2-.57-.42-.82-.64h-4.72c1.89,3.5.37,8.28-3.27,9.92-3.03,1.36-6.03-1.72-8.8-2.87-5.72-2.37-11.83-3.44-17.36-6.08-.54-.26-.94-.59-1.26-.97h-5.73c-.71,3.12-2.21,6.4-3.18,8.98-2.92,7.77-7.31,10.68-15.48,10.29-6.12-.29-13.02-3.82-16.68-8.98-2.85-4.03-1.53-7.75,1.69-10.28h-9.31c-2.36,2.41-4.35,5.29-7.73,6.3-4.54,1.36-6.72-3.55-9.85-5.66-.3-.2-.57-.42-.82-.64h-4.72c1.89,3.5.37,8.28-3.27,9.92-3.03,1.36-6.03-1.72-8.8-2.87-5.72-2.37-11.83-3.44-17.36-6.08-.54-.26-.94-.59-1.26-.97h-5.73c-.71,3.12-2.21,6.4-3.18,8.98-2.92,7.77-7.31,10.68-15.48,10.29-6.12-.29-13.02-3.82-16.68-8.98-2.85-4.03-1.53-7.75,1.69-10.28h-9.31c-2.36,2.41-4.35,5.29-7.73,6.3-4.54,1.36-6.72-3.55-9.85-5.66-.3-.2-.57-.42-.82-.64h-4.72c1.89,3.5.37,8.28-3.27,9.92-3.03,1.36-6.03-1.72-8.8-2.87-5.72-2.37-11.83-3.44-17.36-6.08-.54-.26-.94-.59-1.26-.97h-5.73c-.71,3.12-2.21,6.4-3.18,8.98-2.92,7.77-7.31,10.68-15.48,10.29-6.12-.29-13.02-3.82-16.68-8.98-2.85-4.03-1.53-7.75,1.69-10.28h-9.31c-2.36,2.41-4.35,5.29-7.73,6.3-4.54,1.36-6.72-3.55-9.85-5.66-.3-.2-.57-.42-.82-.64h-4.72c1.89,3.5.37,8.28-3.27,9.92-3.03,1.36-6.03-1.72-8.8-2.87-5.72-2.37-11.83-3.44-17.36-6.08-.54-.26-.94-.59-1.26-.97h-5.73c-.71,3.12-2.21,6.4-3.18,8.98-2.92,7.77-7.31,10.68-15.48,10.29-6.12-.29-13.02-3.82-16.68-8.98-2.85-4.03-1.53-7.75,1.69-10.28h-9.31c-2.36,2.41-4.35,5.29-7.73,6.3-4.54,1.36-6.72-3.55-9.85-5.66-.3-.2-.57-.42-.82-.64h-4.72c1.89,3.5.37,8.28-3.27,9.92-3.03,1.36-6.03-1.72-8.8-2.87-5.72-2.37-11.83-3.44-17.36-6.08-.54-.26-.94-.59-1.26-.97h-5.73c-.71,3.12-2.21,6.4-3.18,8.98-2.92,7.77-7.31,10.68-15.48,10.29-6.12-.29-13.02-3.82-16.68-8.98-2.85-4.03-1.53-7.75,1.69-10.28h-9.31c-2.36,2.41-4.35,5.29-7.73,6.3-4.54,1.36-6.72-3.55-9.85-5.66-.3-.2-.57-.42-.82-.64h-4.72c1.89,3.5.37,8.28-3.27,9.92-3.03,1.36-6.03-1.72-8.8-2.87-5.72-2.37-11.83-3.44-17.36-6.08-.54-.26-.94-.59-1.26-.97h-5.73c-.71,3.12-2.21,6.4-3.18,8.98-2.92,7.77-7.31,10.68-15.48,10.29-6.12-.29-13.02-3.82-16.68-8.98-2.85-4.03-1.53-7.75,1.69-10.28h-9.31c-2.36,2.41-4.35,5.29-7.73,6.3-4.54,1.36-6.72-3.55-9.85-5.66-.3-.2-.57-.42-.82-.64h-4.72c1.89,3.5.37,8.28-3.27,9.92-3.03,1.36-6.03-1.72-8.8-2.87-5.72-2.37-11.83-3.44-17.36-6.08-.54-.26-.94-.59-1.26-.97h-5.73c-.71,3.12-2.21,6.4-3.18,8.98-2.92,7.77-7.31,10.68-15.48,10.29-6.12-.29-13.02-3.82-16.68-8.98-2.85-4.03-1.53-7.75,1.69-10.28h-9.31c-2.36,2.41-4.35,5.29-7.73,6.3-4.54,1.36-6.72-3.55-9.85-5.66-.3-.2-.57-.42-.82-.64h-4.72c1.89,3.5.37,8.28-3.27,9.92-3.03,1.36-6.03-1.72-8.8-2.87-5.72-2.37-11.83-3.44-17.36-6.08-.54-.26-.94-.59-1.26-.97h-5.73c-.71,3.12-2.21,6.4-3.18,8.98-2.92,7.77-7.31,10.68-15.48,10.29-6.12-.29-13.02-3.82-16.68-8.98-2.85-4.18-1.53-7.91,1.69-10.44h-9.31c-2.36,2.41-4.35,5.29-7.73,6.3-4.54,1.36-6.72-3.55-9.85-5.66-.3-.2-.57-.42-.82-.64h-4.72c1.89,3.5.37,8.28-3.27,9.92-3.03,1.36-6.03-1.72-8.8-2.87C14.98,4.69,8.88,3.62,3.34.98,2.8.72,2.4.39,2.08.01H0v11.67c1.49-.99,3.18-1.58,5.06-1.52,3.81.11,7.62,1.28,11.41.83,2.76-.33,6.36-.01,4.94,3.6-1.55,3.91-1.33,11.54-6.33,11.89-6.86.47-9.29,8.04-15.08,9.49h0v28.04h4.87c-4.35-8.45-2.16-16.49,8.51-16.2,10.2.27,17.14,5.91,10.5,16.2h7.63c.49-2.34,1.54-4.59,3.29-6.58,4.7-5.37,12.54-.07,16.97,3.68,2.23,1.89,5.4,1.72,8.06,2.66.21.07.4.16.6.24h12.6c-3.49-1.58-6.52-4.34-9.87-6.24-11.67-6.6-9.71-15.41,3.61-18.18,6.02-1.25,9.11,3.86,11.26,8.42,1.36,2.89,4.76,3.47,7.11,5.33,6.13,4.86,4.81,8.77.19,10.66h9.09c-.65-2.39.11-5.34,2.87-5.53,1.41-.1,2.38,3.03,2.36,5.53h7.71c-4.35-8.45-2.16-16.49,8.51-16.2,10.2.27,17.14,5.91,10.5,16.2h7.63c.49-2.34,1.54-4.59,3.29-6.58,4.7-5.37,12.54-.07,16.97,3.68,2.23,1.89,5.4,1.72,8.06,2.66.21.07.4.16.6.24h12.6c-3.49-1.58-6.52-4.34-9.87-6.24-11.67-6.6-9.71-15.41,3.61-18.18,6.02-1.25,9.11,3.86,11.26,8.42,1.36,2.89,4.76,3.47,7.11,5.33,6.13,4.86,4.81,8.77.19,10.66h9.09c-.65-2.39.11-5.34,2.87-5.53,1.41-.1,2.38,3.03,2.36,5.53h7.71c-4.35-8.45-2.16-16.49,8.51-16.2,10.2.27,17.14,5.91,10.5,16.2h7.63c.49-2.34,1.54-4.59,3.29-6.58,4.7-5.37,12.54-.07,16.97,3.68,2.23,1.89,5.4,1.72,8.06,2.66.21.07.4.16.6.24h12.6c-3.49-1.58-6.52-4.34-9.87-6.24-11.67-6.6-9.71-15.41,3.61-18.18,6.02-1.25,9.11,3.86,11.26,8.42,1.36,2.89,4.76,3.47,7.11,5.33,6.13,4.86,4.81,8.77.19,10.66h9.09c-.65-2.39.11-5.34,2.87-5.53,1.41-.1,2.38,3.03,2.36,5.53h7.71c-4.35-8.45-2.16-16.49,8.51-16.2,10.2.27,17.14,5.91,10.5,16.2h7.63c.49-2.34,1.54-4.59,3.29-6.58,4.7-5.37,12.54-.07,16.97,3.68,2.23,1.89,5.4,1.72,8.06,2.66.21.07.4.16.6.24h12.6c-3.49-1.58-6.52-4.34-9.87-6.24-11.67-6.6-9.71-15.41,3.61-18.18,6.02-1.25,9.11,3.86,11.26,8.42,1.36,2.89,4.76,3.47,7.11,5.33,6.13,4.86,4.81,8.77.19,10.66h9.09c-.65-2.39.11-5.34,2.87-5.53,1.41-.1,2.38,3.03,2.36,5.53h7.71c-4.35-8.45-2.16-16.49,8.51-16.2,10.2.27,17.14,5.91,10.5,16.2h7.63c.49-2.34,1.54-4.59,3.29-6.58,4.7-5.37,12.54-.07,16.97,3.68,2.23,1.89,5.4,1.72,8.06,2.66.21.07.4.16.6.24h12.6c-3.49-1.58-6.52-4.34-9.87-6.24-11.67-6.6-9.71-15.41,3.61-18.18,6.02-1.25,9.11,3.86,11.26,8.42,1.36,2.89,4.76,3.47,7.11,5.33,6.13,4.86,4.81,8.77.19,10.66h9.09c-.65-2.39.11-5.34,2.87-5.53,1.41-.1,2.38,3.03,2.36,5.53h7.71c-4.35-8.45-2.16-16.49,8.51-16.2,10.2.27,17.14,5.91,10.5,16.2h7.63c.49-2.34,1.54-4.59,3.29-6.58,4.7-5.37,12.54-.07,16.97,3.68,2.23,1.89,5.4,1.72,8.06,2.66.21.07.4.16.6.24h12.6c-3.49-1.58-6.52-4.34-9.87-6.24-11.67-6.6-9.71-15.41,3.61-18.18,6.02-1.25,9.11,3.86,11.26,8.42,1.36,2.89,4.76,3.47,7.11,5.33,6.13,4.86,4.81,8.77.19,10.66h9.09c-.65-2.39.11-5.34,2.87-5.53,1.41-.1,2.38,3.03,2.36,5.53h7.71c-4.35-8.45-2.16-16.49,8.51-16.2,10.2.27,17.14,5.91,10.5,16.2h7.63c.49-2.34,1.54-4.59,3.29-6.58,4.7-5.37,12.54-.07,16.97,3.68,2.23,1.89,5.4,1.72,8.06,2.66.21.07.4.16.6.24h12.6c-3.49-1.58-6.52-4.34-9.87-6.24-11.67-6.6-9.71-15.41,3.61-18.18,6.02-1.25,9.11,3.86,11.26,8.42,1.36,2.89,4.76,3.47,7.11,5.33,6.13,4.86,4.81,8.77.19,10.66h9.09c-.65-2.39.11-5.34,2.87-5.53,1.41-.1,2.38,3.03,2.36,5.53h7.71c-4.35-8.45-2.16-16.49,8.51-16.2,10.2.27,17.14,5.91,10.5,16.2h7.63c.49-2.34,1.54-4.59,3.29-6.58,4.7-5.37,12.54-.07,16.97,3.68,2.23,1.89,5.4,1.72,8.06,2.66.21.07.4.16.6.24h12.6c-3.49-1.58-6.52-4.34-9.87-6.24-11.67-6.6-9.71-15.41,3.61-18.18,6.02-1.25,9.11,3.86,11.26,8.42,1.36,2.89,4.76,3.47,7.11,5.33,6.13,4.86,4.81,8.77.19,10.66h9.09c-.65-2.39.11-5.34,2.87-5.53,1.41-.1,2.38,3.03,2.36,5.53h7.71c-4.35-8.45-2.16-16.49,8.51-16.2,10.2.27,17.14,5.91,10.5,16.2h7.63c.49-2.34,1.54-4.59,3.29-6.58,4.7-5.37,12.54-.07,16.97,3.68,2.23,1.89,5.4,1.72,8.06,2.66.21.07.4.16.6.24h12.61c-3.49-1.58-6.52-4.34-9.87-6.24-11.67-6.6-9.71-15.41,3.61-18.18,6.02-1.25,9.11,3.86,11.26,8.42,1.36,2.89,4.76,3.47,7.11,5.33,6.13,4.86,4.81,8.77.19,10.66h9.09c-.65-2.39.11-5.34,2.87-5.53,1.41-.1,2.38,3.03,2.36,5.53h7.71c-4.35-8.45-2.16-16.49,8.51-16.2,10.2.27,17.14,5.91,10.5,16.2h7.63c.49-2.34,1.54-4.59,3.29-6.58,4.7-5.37,12.54-.07,16.97,3.68,2.23,1.89,5.4,1.72,8.06,2.66.21.07.4.16.6.24h12.6c-3.49-1.58-6.52-4.34-9.87-6.24-11.67-6.6-9.71-15.41,3.61-18.18,6.02-1.25,9.11,3.86,11.26,8.42,1.36,2.89,4.76,3.47,7.11,5.33,6.13,4.86,4.81,8.77.19,10.66h9.09c-.65-2.39.11-5.34,2.87-5.53,1.41-.1,2.38,3.03,2.36,5.53h7.71c-4.35-8.45-2.16-16.49,8.51-16.2,10.2.27,17.14,5.91,10.5,16.2h7.63c.49-2.34,1.54-4.59,3.29-6.58,4.7-5.37,12.54-.07,16.97,3.68,2.23,1.89,5.4,1.72,8.06,2.66.21.07.4.16.6.24h12.6c-3.49-1.58-6.52-4.34-9.87-6.24-11.67-6.6-9.71-15.41,3.61-18.18,6.02-1.25,9.11,3.86,11.26,8.42,1.36,2.89,4.76,3.47,7.11,5.33,6.13,4.86,4.81,8.77.19,10.66h9.09c-.65-2.39.11-5.34,2.87-5.53,1.41-.1,2.38,3.03,2.36,5.53h7.71c-4.35-8.45-2.16-16.49,8.51-16.2,10.2.27,17.14,5.91,10.5,16.2h7.63c.49-2.34,1.54-4.59,3.29-6.58,4.7-5.37,12.54-.07,16.97,3.68,2.23,1.89,5.4,1.72,8.06,2.66.21.07.4.16.6.24h12.6c-3.49-1.58-6.52-4.34-9.87-6.24-11.67-6.6-9.71-15.41,3.61-18.18,6.02-1.25,9.11,3.86,11.26,8.42,1.36,2.89,4.76,3.47,7.11,5.33,6.13,4.86,4.81,8.77.19,10.66h9.09c-.65-2.39.11-5.34,2.87-5.53,1.41-.1,2.38,3.03,2.36,5.53h7.71c-4.35-8.45-2.16-16.49,8.51-16.2,10.2.27,17.14,5.91,10.5,16.2h7.63c.49-2.34,1.54-4.59,3.29-6.58,4.7-5.37,12.54-.07,16.97,3.68,2.23,1.89,5.4,1.72,8.06,2.66.21.07.4.16.6.24h12.6c-3.49-1.58-6.52-4.34-9.87-6.24-11.67-6.6-9.71-15.41,3.61-18.18,6.02-1.25,9.11,3.86,11.26,8.42,1.36,2.89,4.76,3.47,7.11,5.33,6.13,4.86,4.81,8.77.19,10.66h9.09c-.65-2.39.11-5.34,2.87-5.53,1.41-.1,2.38,3.03,2.36,5.53h7.71c-4.35-8.45-2.16-16.49,8.51-16.2,10.2.27,17.14,5.91,10.5,16.2h7.63c.49-2.34,1.54-4.59,3.29-6.58,4.7-5.37,12.54-.07,16.97,3.68,2.23,1.89,5.4,1.72,8.06,2.66.21.07.4.16.6.24h12.6c-3.49-1.58-6.52-4.34-9.87-6.24-11.67-6.6-9.71-15.41,3.61-18.18,6.02-1.25,9.11,3.86,11.26,8.42,1.36,2.89,4.76,3.47,7.11,5.33,6.13,4.86,4.81,8.77.19,10.66h9.09c-.65-2.39.11-5.34,2.87-5.53,1.41-.1,2.38,3.03,2.36,5.53h7.71c-4.35-8.45-2.16-16.49,8.51-16.2,10.2.27,17.14,5.91,10.5,16.2h7.63c.49-2.34,1.54-4.59,3.29-6.58,4.7-5.37,12.54-.07,16.97,3.68,2.23,1.89,5.4,1.72,8.06,2.66.21.07.4.16.6.24h12.6c-3.49-1.58-6.52-4.34-9.87-6.24-11.67-6.6-9.71-15.41,3.61-18.18,6.02-1.25,9.11,3.86,11.26,8.42,1.36,2.89,4.76,3.47,7.11,5.33,6.13,4.86,4.81,8.77.19,10.66h9.09c-.65-2.39.11-5.34,2.87-5.53,1.41-.1,2.38,3.03,2.36,5.53h7.71c-4.35-8.45-2.16-16.49,8.51-16.2,10.2.27,17.14,5.91,10.5,16.2h7.63c.49-2.34,1.54-4.59,3.29-6.58,4.7-5.37,12.54-.07,16.97,3.68,2.23,1.89,5.4,1.72,8.06,2.66.21.07.4.16.6.24h12.6c-3.49-1.58-6.52-4.34-9.87-6.24-11.67-6.6-9.71-15.41,3.61-18.18,6.02-1.25,9.11,3.86,11.26,8.42,1.36,2.89,4.76,3.47,7.11,5.33,6.13,4.86,4.81,8.77.19,10.66h9.09c-.65-2.39.11-5.34,2.87-5.53,1.41-.1,2.38,3.03,2.36,5.53h2.84v-28.04c-2.72.68-5.72-1.06-6.83-3.97-1.5-3.92-.55-7.96.73-11.67,1.12-3.26,3.22-6.72,6.11-8.65V.01h-3.64c-.71,3.12-2.21,6.4-3.18,8.98h.14ZM16.89,44.53c-3.12.38-4.67-3.13-6.28-5.38-2.87-4,1.79-6.4,5.3-6.42,7.13-.04,8.79,5.13,11.44,10.34,2.75,5.41-8.17,1.19-10.46,1.47h0Zm33.02-8.75c-.39,4.17.24,8.9-2.49,12.35-6.72,8.48-13.46-1.38-15.57-8.53-1.04-3.5-4.36-5.63-6.33-8.62-2.33-3.56-1.95-10.12,2.24-12.29,11.76-6.1,23.2,5.67,22.15,17.09Zm-.19-22.21c1.4-.54,2.94-.43,4.43-.71,5.42-1,2.6,5.21-1.53,5.46-2.28.14-6.29-3.45-2.9-4.76h0Zm21.56,20.14c-2.05,2.3-5.16,2.38-7.89,3.22-6.13,1.88-9.46-2.82-9.88-8.45-.48-6.41,9.5-9.62,14.45-9.47,2.55.08,3.61,2.79,5.82,3.76,1.77.78,2.81,2.27,3.31,4.15,1.07,4-3.82,4.56-5.81,6.79Zm15.42,7.76c-3.8,1.46-8.81-1.76-7.8-5.88.89-3.64-.85-11.8,4.04-11.82,3.01,0,8.38-1.43,9.46,2.46,1.68,6.1.48,12.86-5.69,15.24h0Zm15.79-5.51h0c-2.72.68-5.72-1.06-6.83-3.97-1.5-3.92-.55-7.96.73-11.67,1.12-3.26,3.22-6.72,6.11-8.65h0c1.49-.99,3.18-1.58,5.06-1.52,3.81.11,7.62,1.28,11.41.83,2.76-.33,6.36-.01,4.94,3.6-1.55,3.91-1.33,11.54-6.33,11.89-6.86.48-9.29,8.05-15.08,9.5h-.01Zm16.89,8.55c-3.12.38-4.67-3.13-6.28-5.38-2.87-4,1.79-6.4,5.3-6.42,7.13-.04,8.79,5.13,11.44,10.34,2.75,5.41-8.17,1.19-10.46,1.47h0Zm33.02-8.75c-.39,4.17.24,8.9-2.49,12.35-6.72,8.48-13.46-1.38-15.57-8.53-1.04-3.5-4.36-5.63-6.33-8.62-2.33-3.56-1.95-10.12,2.24-12.29,11.76-6.1,23.2,5.67,22.15,17.09Zm-.19-22.21c1.4-.54,2.94-.43,4.43-.71,5.42-1,2.6,5.21-1.53,5.46-2.28.14-6.29-3.45-2.9-4.76h0Zm21.56,20.14c-2.05,2.3-5.16,2.38-7.89,3.22-6.13,1.88-9.46-2.82-9.88-8.45-.48-6.41,9.5-9.62,14.45-9.47,2.55.08,3.61,2.79,5.82,3.76,1.77.78,2.81,2.27,3.31,4.15,1.07,4-3.82,4.56-5.81,6.79Zm15.42,7.76c-3.8,1.46-8.81-1.76-7.8-5.88.89-3.64-.85-11.8,4.04-11.82,3.01,0,8.38-1.43,9.46,2.46,1.68,6.1.48,12.86-5.69,15.24h0Zm15.79-5.51h0c-2.72.68-5.72-1.06-6.83-3.97-1.5-3.92-.55-7.96.73-11.67,1.12-3.26,3.22-6.72,6.11-8.65h0c1.49-.99,3.18-1.58,5.06-1.52,3.81.11,7.62,1.28,11.41.83,2.76-.33,6.36-.01,4.94,3.6-1.55,3.91-1.33,11.54-6.33,11.89-6.86.48-9.29,8.05-15.08,9.5h0Zm16.89,8.55c-3.12.38-4.67-3.13-6.28-5.38-2.87-4,1.79-6.4,5.3-6.42,7.13-.04,8.79,5.13,11.44,10.34,2.75,5.41-8.17,1.19-10.46,1.47h0Zm33.02-8.75c-.39,4.17.24,8.9-2.49,12.35-6.72,8.48-13.46-1.38-15.57-8.53-1.04-3.5-4.36-5.63-6.33-8.62-2.33-3.56-1.95-10.12,2.24-12.29,11.76-6.1,23.2,5.67,22.15,17.09Zm-.19-22.21c1.4-.54,2.94-.43,4.43-.71,5.42-1,2.6,5.21-1.53,5.46-2.28.14-6.29-3.45-2.9-4.76h0Zm21.56,20.14c-2.05,2.3-5.16,2.38-7.89,3.22-6.13,1.88-9.46-2.82-9.88-8.45-.48-6.41,9.5-9.62,14.45-9.47,2.55.08,3.61,2.79,5.82,3.76,1.77.78,2.81,2.27,3.31,4.15,1.07,4-3.82,4.56-5.81,6.79Zm15.42,7.76c-3.8,1.46-8.81-1.76-7.8-5.88.89-3.64-.85-11.8,4.04-11.82,3.01,0,8.38-1.43,9.46,2.46,1.68,6.1.48,12.86-5.69,15.24h-.01Zm15.79-5.51h0c-2.72.68-5.72-1.06-6.83-3.97-1.5-3.92-.55-7.96.73-11.67,1.12-3.26,3.22-6.72,6.11-8.65h0c1.49-.99,3.18-1.58,5.06-1.52,3.81.11,7.62,1.28,11.41.83,2.76-.33,6.36-.01,4.94,3.6-1.55,3.91-1.33,11.54-6.33,11.89-6.86.48-9.29,8.05-15.08,9.5h-.01Zm16.89,8.55c-3.12.38-4.67-3.13-6.28-5.38-2.87-4,1.79-6.4,5.3-6.42,7.13-.04,8.79,5.13,11.44,10.34,2.75,5.41-8.17,1.19-10.46,1.47h0Zm33.02-8.75c-.39,4.17.24,8.9-2.49,12.35-6.72,8.48-13.46-1.38-15.57-8.53-1.04-3.5-4.36-5.63-6.33-8.62-2.33-3.56-1.95-10.12,2.24-12.29,11.76-6.1,23.2,5.67,22.15,17.09Zm-.19-22.21c1.4-.54,2.94-.43,4.43-.71,5.42-1,2.6,5.21-1.53,5.46-2.28.14-6.29-3.45-2.9-4.76h0Zm21.56,20.14c-2.05,2.3-5.16,2.38-7.89,3.22-6.13,1.88-9.46-2.82-9.88-8.45-.48-6.41,9.5-9.62,14.45-9.47,2.55.08,3.61,2.79,5.82,3.76,1.77.78,2.81,2.27,3.31,4.15,1.07,4-3.82,4.56-5.81,6.79Zm15.42,7.76c-3.8,1.46-8.81-1.76-7.8-5.88.89-3.64-.85-11.8,4.04-11.82,3.01,0,8.38-1.43,9.46,2.46,1.68,6.1.48,12.86-5.69,15.24h-.01Zm15.79-5.51h0c-2.72.68-5.72-1.06-6.83-3.97-1.5-3.92-.55-7.96.73-11.67,1.12-3.26,3.22-6.72,6.11-8.65h0c1.49-.99,3.18-1.58,5.06-1.52,3.81.11,7.62,1.28,11.41.83,2.76-.33,6.36-.01,4.94,3.6-1.55,3.91-1.33,11.54-6.33,11.89-6.86.48-9.29,8.05-15.08,9.5h-.01Zm16.89,8.55c-3.12.38-4.67-3.13-6.28-5.38-2.87-4,1.79-6.4,5.3-6.42,7.13-.04,8.79,5.13,11.44,10.34,2.75,5.41-8.17,1.19-10.46,1.47h0Zm33.02-8.75c-.39,4.17.24,8.9-2.49,12.35-6.72,8.48-13.46-1.38-15.57-8.53-1.04-3.5-4.36-5.63-6.33-8.62-2.33-3.56-1.95-10.12,2.24-12.29,11.76-6.1,23.2,5.67,22.15,17.09Zm-.19-22.21c1.4-.54,2.94-.43,4.43-.71,5.42-1,2.6,5.21-1.53,5.46-2.28.14-6.29-3.45-2.9-4.76h0Zm21.56,20.14c-2.05,2.3-5.16,2.38-7.89,3.22-6.13,1.88-9.46-2.82-9.88-8.45-.48-6.41,9.5-9.62,14.45-9.47,2.55.08,3.61,2.79,5.82,3.76,1.77.78,2.81,2.27,3.31,4.15,1.07,4-3.82,4.56-5.81,6.79Zm15.42,7.76c-3.8,1.46-8.81-1.76-7.8-5.88.89-3.64-.85-11.8,4.04-11.82,3.01,0,8.38-1.43,9.46,2.46,1.68,6.1.48,12.86-5.69,15.24h-.01Zm15.79-5.51h0c-2.72.68-5.72-1.06-6.83-3.97-1.5-3.92-.55-7.96.73-11.67,1.12-3.26,3.22-6.72,6.11-8.65h0c1.49-.99,3.18-1.58,5.06-1.52,3.81.11,7.62,1.28,11.41.83,2.76-.33,6.36-.01,4.94,3.6-1.55,3.91-1.33,11.54-6.33,11.89-6.86.48-9.29,8.05-15.08,9.5h0Zm16.89,8.55c-3.12.38-4.67-3.13-6.28-5.38-2.87-4,1.79-6.4,5.3-6.42,7.13-.04,8.79,5.13,11.44,10.34,2.75,5.41-8.17,1.19-10.46,1.47h0Zm33.02-8.75c-.39,4.17.24,8.9-2.49,12.35-6.72,8.48-13.46-1.38-15.57-8.53-1.04-3.5-4.36-5.63-6.33-8.62-2.33-3.56-1.95-10.12,2.24-12.29,11.76-6.1,23.2,5.67,22.15,17.09Zm-.19-22.21c1.4-.54,2.94-.43,4.43-.71,5.42-1,2.6,5.21-1.53,5.46-2.28.14-6.29-3.45-2.9-4.76h0Zm21.56,20.14c-2.05,2.3-5.16,2.38-7.89,3.22-6.13,1.88-9.46-2.82-9.88-8.45-.48-6.41,9.5-9.62,14.45-9.47,2.55.08,3.61,2.79,5.82,3.76,1.77.78,2.81,2.27,3.31,4.15,1.07,4-3.82,4.56-5.81,6.79Zm15.42,7.76c-3.8,1.46-8.81-1.76-7.8-5.88.89-3.64-.85-11.8,4.04-11.82,3.01,0,8.38-1.43,9.46,2.46,1.68,6.1.48,12.86-5.69,15.24h-.01Zm15.79-5.51h0c-2.72.68-5.72-1.06-6.83-3.97-1.5-3.92-.55-7.96.73-11.67,1.12-3.26,3.22-6.72,6.11-8.65h0c1.49-.99,3.18-1.58,5.06-1.52,3.81.11,7.62,1.28,11.41.83,2.76-.33,6.36-.01,4.94,3.6-1.55,3.91-1.33,11.54-6.33,11.89-6.86.48-9.29,8.05-15.08,9.5h0Zm16.89,8.55c-3.12.38-4.67-3.13-6.28-5.38-2.87-4,1.79-6.4,5.3-6.42,7.13-.04,8.79,5.13,11.44,10.34,2.75,5.41-8.17,1.19-10.46,1.47h0Zm33.02-8.75c-.39,4.17.24,8.9-2.49,12.35-6.72,8.48-13.46-1.38-15.57-8.53-1.04-3.5-4.36-5.63-6.33-8.62-2.33-3.56-1.95-10.12,2.24-12.29,11.76-6.1,23.2,5.67,22.15,17.09Zm-.19-22.21c1.4-.54,2.94-.43,4.43-.71,5.42-1,2.6,5.21-1.53,5.46-2.28.14-6.29-3.45-2.9-4.76h0Zm21.56,20.14c-2.05,2.3-5.16,2.38-7.89,3.22-6.13,1.88-9.46-2.82-9.88-8.45-.48-6.41,9.5-9.62,14.45-9.47,2.55.08,3.61,2.79,5.82,3.76,1.77.78,2.81,2.27,3.31,4.15,1.07,4-3.82,4.56-5.81,6.79Zm15.42,7.76c-3.8,1.46-8.81-1.76-7.8-5.88.89-3.64-.85-11.8,4.04-11.82,3.01,0,8.38-1.43,9.46,2.46,1.68,6.1.48,12.86-5.69,15.24h-.01Zm15.79-5.51h0c-2.72.68-5.72-1.06-6.83-3.97-1.5-3.92-.55-7.96.73-11.67,1.12-3.26,3.22-6.72,6.11-8.65h0c1.49-.99,3.18-1.58,5.06-1.52,3.81.11,7.62,1.28,11.41.83,2.76-.33,6.36-.01,4.94,3.6-1.55,3.91-1.33,11.54-6.33,11.89-6.86.48-9.29,8.05-15.08,9.5h0Zm16.89,8.55c-3.12.38-4.67-3.13-6.28-5.38-2.87-4,1.79-6.4,5.3-6.42,7.13-.04,8.79,5.13,11.44,10.34,2.75,5.41-8.17,1.19-10.46,1.47h0Zm33.02-8.75c-.39,4.17.24,8.9-2.49,12.35-6.72,8.48-13.46-1.38-15.57-8.53-1.04-3.5-4.36-5.63-6.33-8.62-2.33-3.56-1.95-10.12,2.24-12.29,11.76-6.1,23.2,5.67,22.15,17.09Zm-.19-22.21c1.4-.54,2.94-.43,4.43-.71,5.42-1,2.6,5.21-1.53,5.46-2.28.14-6.29-3.45-2.9-4.76h0Zm21.56,20.14c-2.05,2.3-5.16,2.38-7.89,3.22-6.13,1.88-9.46-2.82-9.88-8.45-.48-6.41,9.5-9.62,14.45-9.47,2.55.08,3.61,2.79,5.82,3.76,1.77.78,2.81,2.27,3.31,4.15,1.07,4-3.82,4.56-5.81,6.79Zm15.42,7.76c-3.8,1.46-8.81-1.76-7.8-5.88.89-3.64-.85-11.8,4.04-11.82,3.01,0,8.38-1.43,9.46,2.46,1.68,6.1.48,12.86-5.69,15.24h-.01Zm15.79-5.51h0c-2.72.68-5.72-1.06-6.83-3.97-1.5-3.92-.55-7.96.73-11.67,1.12-3.26,3.22-6.72,6.11-8.65h0c1.49-.99,3.18-1.58,5.06-1.52,3.81.11,7.62,1.28,11.41.83,2.76-.33,6.36-.01,4.94,3.6-1.55,3.91-1.33,11.54-6.33,11.89-6.86.48-9.29,8.05-15.08,9.5h0Zm16.89,8.55c-3.12.38-4.67-3.13-6.28-5.38-2.87-4,1.79-6.4,5.3-6.42,7.13-.04,8.79,5.13,11.44,10.34,2.75,5.41-8.17,1.19-10.46,1.47h0Zm33.02-8.75c-.39,4.17.24,8.9-2.49,12.35-6.72,8.48-13.46-1.38-15.57-8.53-1.04-3.5-4.36-5.63-6.33-8.62-2.33-3.56-1.95-10.12,2.24-12.29,11.76-6.1,23.2,5.67,22.15,17.09Zm-.19-22.21c1.4-.54,2.94-.43,4.43-.71,5.42-1,2.6,5.21-1.53,5.46-2.28.14-6.29-3.45-2.9-4.76h0Zm21.56,20.14c-2.05,2.3-5.16,2.38-7.89,3.22-6.13,1.88-9.46-2.82-9.88-8.45-.48-6.41,9.5-9.62,14.45-9.47,2.55.08,3.61,2.79,5.82,3.76,1.77.78,2.81,2.27,3.31,4.15,1.07,4-3.82,4.56-5.81,6.79Zm15.42,7.76c-3.8,1.46-8.81-1.76-7.8-5.88.89-3.64-.85-11.8,4.04-11.82,3.01,0,8.38-1.43,9.46,2.46,1.68,6.1.48,12.86-5.69,15.24h-.01Zm15.79-5.51h0c-2.72.68-5.72-1.06-6.83-3.97-1.5-3.92-.55-7.96.73-11.67,1.12-3.26,3.22-6.72,6.11-8.65h0c1.49-.99,3.18-1.58,5.06-1.52,3.81.11,7.62,1.28,11.41.83,2.76-.33,6.36-.01,4.94,3.6-1.55,3.91-1.33,11.54-6.33,11.89-6.86.48-9.29,8.05-15.08,9.5h0Zm16.89,8.55c-3.12.38-4.67-3.13-6.28-5.38-2.87-4,1.79-6.4,5.3-6.42,7.13-.04,8.79,5.13,11.44,10.34,2.75,5.41-8.17,1.19-10.46,1.47h0Zm33.02-8.75c-.39,4.17.24,8.9-2.49,12.35-6.72,8.48-13.46-1.38-15.57-8.53-1.04-3.5-4.36-5.63-6.33-8.62-2.33-3.56-1.95-10.12,2.24-12.29,11.76-6.1,23.2,5.67,22.15,17.09Zm-.19-22.21c1.4-.54,2.94-.43,4.43-.71,5.42-1,2.6,5.21-1.53,5.46-2.28.14-6.29-3.45-2.9-4.76h0Zm21.56,20.14c-2.05,2.3-5.16,2.38-7.89,3.22-6.13,1.88-9.46-2.82-9.88-8.45-.48-6.41,9.5-9.62,14.45-9.47,2.55.08,3.61,2.79,5.82,3.76,1.77.78,2.81,2.27,3.31,4.15,1.07,4-3.82,4.56-5.81,6.79Zm15.42,7.76c-3.8,1.46-8.81-1.76-7.8-5.88.89-3.64-.85-11.8,4.04-11.82,3.01,0,8.38-1.43,9.46,2.46,1.68,6.1.48,12.86-5.69,15.24h-.01Zm15.79-5.51h0c-2.72.68-5.72-1.06-6.83-3.97-1.5-3.92-.55-7.96.73-11.67,1.12-3.26,3.22-6.72,6.11-8.65h0c1.49-.99,3.18-1.58,5.06-1.52,3.81.11,7.62,1.28,11.41.83,2.76-.33,6.36-.01,4.94,3.6-1.55,3.91-1.33,11.54-6.33,11.89-6.86.48-9.29,8.05-15.08,9.5h-.01Zm16.89,8.55c-3.12.38-4.67-3.13-6.28-5.38-2.87-4,1.79-6.4,5.3-6.42,7.13-.04,8.79,5.13,11.44,10.34,2.75,5.41-8.17,1.19-10.46,1.47h0Zm33.02-8.75c-.39,4.17.24,8.9-2.49,12.35-6.72,8.48-13.46-1.38-15.57-8.53-1.04-3.5-4.36-5.63-6.33-8.62-2.33-3.56-1.95-10.12,2.24-12.29,11.76-6.1,23.2,5.67,22.15,17.09h0Zm-.19-22.21c1.4-.54,2.94-.43,4.43-.71,5.42-1,2.6,5.21-1.53,5.46-2.28.14-6.29-3.45-2.9-4.76h0Zm21.56,20.14c-2.05,2.3-5.16,2.38-7.89,3.22-6.13,1.88-9.46-2.82-9.88-8.45-.48-6.41,9.5-9.62,14.45-9.47,2.55.08,3.61,2.79,5.82,3.76,1.77.78,2.81,2.27,3.31,4.15,1.07,4-3.82,4.56-5.81,6.79h0Zm15.42,7.76c-3.8,1.46-8.81-1.76-7.8-5.88.89-3.64-.85-11.8,4.04-11.82,3.01,0,8.38-1.43,9.46,2.46,1.68,6.1.48,12.86-5.69,15.24h-.01Zm15.79-5.51h0c-2.72.68-5.72-1.06-6.83-3.97-1.5-3.92-.55-7.96.73-11.67,1.12-3.26,3.22-6.72,6.11-8.65h0c1.49-.99,3.18-1.58,5.06-1.52,3.81.11,7.62,1.28,11.41.83,2.76-.33,6.36-.01,4.94,3.6-1.55,3.91-1.33,11.54-6.33,11.89-6.86.48-9.29,8.05-15.08,9.5h-.01Zm16.89,8.55c-3.12.38-4.67-3.13-6.28-5.38-2.87-4,1.79-6.4,5.3-6.42,7.13-.04,8.79,5.13,11.44,10.34,2.75,5.41-8.17,1.19-10.46,1.47h0Zm33.02-8.75c-.39,4.17.24,8.9-2.49,12.35-6.72,8.48-13.46-1.38-15.57-8.53-1.04-3.5-4.36-5.63-6.33-8.62-2.33-3.56-1.95-10.12,2.24-12.29,11.76-6.1,23.2,5.67,22.15,17.09h0Zm-.19-22.21c1.4-.54,2.94-.43,4.43-.71,5.42-1,2.6,5.21-1.53,5.46-2.28.14-6.29-3.45-2.9-4.76h0Zm21.56,20.14c-2.05,2.3-5.16,2.38-7.89,3.22-6.13,1.88-9.46-2.82-9.88-8.45-.48-6.41,9.5-9.62,14.45-9.47,2.55.08,3.61,2.79,5.82,3.76,1.77.78,2.81,2.27,3.31,4.15,1.07,4-3.82,4.56-5.81,6.79h0Zm15.42,7.76c-3.8,1.46-8.81-1.76-7.8-5.88.89-3.64-.85-11.8,4.04-11.82,3.01,0,8.38-1.43,9.46,2.46,1.68,6.1.49,12.86-5.69,15.24h-.01Zm15.79-5.51h0c-2.72.68-5.72-1.06-6.83-3.97-1.5-3.92-.55-7.96.73-11.67,1.12-3.26,3.22-6.72,6.11-8.65h0c1.49-.99,3.18-1.58,5.06-1.52,3.81.11,7.62,1.28,11.41.83,2.76-.33,6.36-.01,4.94,3.6-1.55,3.91-1.33,11.54-6.33,11.89-6.86.48-9.29,8.05-15.08,9.5h-.01Zm16.89,8.55c-3.12.38-4.67-3.13-6.28-5.38-2.87-4,1.79-6.4,5.3-6.42,7.13-.04,8.79,5.13,11.44,10.34,2.75,5.41-8.17,1.19-10.46,1.47h0Zm33.02-8.75c-.39,4.17.24,8.9-2.49,12.35-6.72,8.48-13.46-1.38-15.57-8.53-1.04-3.5-4.36-5.63-6.33-8.62-2.33-3.56-1.95-10.12,2.24-12.29,11.76-6.1,23.2,5.67,22.15,17.09h0Zm-.19-22.21c1.4-.54,2.94-.43,4.43-.71,5.42-1,2.6,5.21-1.53,5.46-2.28.14-6.29-3.45-2.9-4.76h0Zm21.56,20.14c-2.05,2.3-5.16,2.38-7.89,3.22-6.13,1.88-9.46-2.82-9.88-8.45-.48-6.41,9.5-9.62,14.45-9.47,2.55.08,3.61,2.79,5.82,3.76,1.77.78,2.81,2.27,3.31,4.15,1.07,4-3.82,4.56-5.81,6.79h0Zm15.42,7.76c-3.8,1.46-8.81-1.76-7.8-5.88.89-3.64-.85-11.8,4.04-11.82,3.01,0,8.38-1.43,9.46,2.46,1.68,6.1.48,12.86-5.69,15.24h-.01Zm15.79-5.51h0c-2.72.68-5.72-1.06-6.83-3.97-1.5-3.92-.55-7.96.73-11.67,1.12-3.26,3.22-6.72,6.11-8.65h0c1.49-.99,3.18-1.58,5.06-1.52,3.81.11,7.62,1.28,11.41.83,2.76-.33,6.36-.01,4.94,3.6-1.55,3.91-1.33,11.54-6.33,11.89-6.86.48-9.29,8.05-15.08,9.5h-.01Zm16.89,8.55c-3.12.38-4.67-3.13-6.28-5.38-2.87-4,1.79-6.4,5.3-6.42,7.13-.04,8.79,5.13,11.44,10.34,2.75,5.41-8.17,1.19-10.46,1.47h0Zm33.02-8.75c-.39,4.17.24,8.9-2.49,12.35-6.72,8.48-13.46-1.38-15.57-8.53-1.04-3.5-4.36-5.63-6.33-8.62-2.33-3.56-1.95-10.12,2.24-12.29,11.76-6.1,23.2,5.67,22.15,17.09h0Zm-.19-22.21c1.4-.54,2.94-.43,4.43-.71,5.42-1,2.6,5.21-1.53,5.46-2.28.14-6.29-3.45-2.9-4.76h0Zm21.56,20.14c-2.05,2.3-5.16,2.38-7.89,3.22-6.13,1.88-9.46-2.82-9.88-8.45-.48-6.41,9.5-9.62,14.45-9.47,2.55.08,3.61,2.79,5.82,3.76,1.77.78,2.81,2.27,3.31,4.15,1.07,4-3.82,4.56-5.81,6.79h0Zm15.42,7.76c-3.8,1.46-8.81-1.76-7.8-5.88.89-3.64-.85-11.8,4.04-11.82,3.01,0,8.38-1.43,9.46,2.46,1.68,6.1.48,12.86-5.69,15.24h-.01Zm15.79-5.51h0c-2.72.68-5.72-1.06-6.83-3.97-1.5-3.92-.55-7.96.73-11.67,1.12-3.26,3.22-6.72,6.11-8.65h0c1.49-.99,3.18-1.58,5.06-1.52,3.81.11,7.62,1.28,11.41.83,2.76-.33,6.36-.01,4.94,3.6-1.55,3.91-1.33,11.54-6.33,11.89-6.86.48-9.29,8.05-15.08,9.5h-.01Zm16.89,8.55c-3.12.38-4.67-3.13-6.28-5.38-2.87-4,1.79-6.4,5.3-6.42,7.12-.04,8.79,5.13,11.44,10.34,2.75,5.41-8.17,1.19-10.46,1.47h0Zm33.02-8.75c-.39,4.17.24,8.9-2.49,12.35-6.72,8.48-13.46-1.38-15.57-8.53-1.04-3.5-4.36-5.63-6.33-8.62-2.33-3.56-1.95-10.12,2.24-12.29,11.76-6.1,23.2,5.67,22.15,17.09h0Zm-.19-22.21c1.4-.54,2.94-.43,4.43-.71,5.42-1,2.6,5.21-1.53,5.46-2.28.14-6.29-3.45-2.9-4.76h0Zm21.56,20.14c-2.05,2.3-5.16,2.38-7.89,3.22-6.13,1.88-9.46-2.82-9.88-8.45-.48-6.41,9.5-9.62,14.45-9.47,2.55.08,3.61,2.79,5.82,3.76,1.77.78,2.81,2.27,3.31,4.15,1.07,4-3.82,4.56-5.81,6.79h0Zm15.42,7.76c-3.8,1.46-8.81-1.76-7.8-5.88.89-3.64-.85-11.8,4.04-11.82,3.01,0,8.38-1.43,9.46,2.46,1.68,6.1.48,12.86-5.69,15.24h-.01Zm15.79-5.51h0c-2.72.68-5.72-1.06-6.83-3.97-1.5-3.92-.55-7.96.73-11.67,1.12-3.26,3.22-6.72,6.11-8.65h0c1.49-.99,3.18-1.58,5.06-1.52,3.81.11,7.62,1.28,11.41.83,2.76-.33,6.36-.01,4.94,3.6-1.55,3.91-1.33,11.54-6.33,11.89-6.86.48-9.29,8.05-15.08,9.5h-.01Zm16.89,8.55c-3.12.38-4.67-3.13-6.28-5.38-2.87-4,1.79-6.4,5.3-6.42,7.12-.04,8.79,5.13,11.44,10.34,2.75,5.41-8.17,1.19-10.46,1.47h0Zm33.02-8.75c-.39,4.17.24,8.9-2.49,12.35-6.72,8.48-13.46-1.38-15.57-8.53-1.04-3.5-4.36-5.63-6.33-8.62-2.33-3.56-1.95-10.12,2.24-12.29,11.76-6.1,23.2,5.67,22.15,17.09h0Zm-.19-22.21c1.4-.54,2.94-.43,4.43-.71,5.42-1,2.6,5.21-1.53,5.46-2.28.14-6.29-3.45-2.9-4.76h0Zm21.56,20.14c-2.05,2.3-5.16,2.38-7.89,3.22-6.13,1.88-9.46-2.82-9.88-8.45-.48-6.41,9.5-9.62,14.45-9.47,2.55.08,3.61,2.79,5.82,3.76,1.77.78,2.81,2.27,3.31,4.15,1.07,4-3.82,4.56-5.81,6.79h0Zm15.42,7.76c-3.8,1.46-8.81-1.76-7.8-5.88.89-3.64-.85-11.8,4.04-11.82,3.01,0,8.38-1.43,9.46,2.46,1.68,6.1.48,12.86-5.69,15.24h-.01Z"/>
      <path d="m54.16,12.88c-1.49.27-3.03.17-4.43.71-3.39,1.3.61,4.9,2.9,4.76,4.13-.25,6.95-6.46,1.53-5.46h0Z"/>
      <path d="m15.91,32.73c-3.51.02-8.17,2.42-5.3,6.42,1.62,2.25,3.16,5.76,6.28,5.38,2.28-.28,13.2,3.95,10.46-1.47-2.64-5.21-4.31-10.37-11.44-10.34h0Z"/>
      <path d="m27.77,18.71c-4.18,2.17-4.57,8.73-2.24,12.29,1.96,2.99,5.29,5.12,6.33,8.62,2.11,7.15,8.85,17.01,15.57,8.53,2.74-3.45,2.11-8.18,2.49-12.35,1.06-11.41-10.39-23.19-22.15-17.09Z"/>
      <path d="m85.14,53.35c-2.35-1.86-5.74-2.44-7.11-5.33-2.15-4.56-5.25-9.67-11.26-8.42-13.33,2.77-15.29,11.58-3.61,18.18,3.35,1.89,6.38,4.65,9.87,6.24h12.3c4.62-1.9,5.94-5.81-.19-10.66h0Z"/>
      <path d="m82.94,23.78c-4.88.01-3.15,8.18-4.04,11.82-1.01,4.13,4,7.35,7.8,5.88,6.17-2.37,7.37-9.13,5.69-15.24-1.07-3.89-6.45-2.47-9.46-2.46h0Z"/>
      <path d="m73.8,22.77c-2.2-.97-3.27-3.68-5.82-3.76-4.95-.15-14.93,3.06-14.45,9.47.42,5.63,3.75,10.32,9.88,8.45,2.73-.84,5.84-.92,7.89-3.22,1.99-2.23,6.88-2.79,5.81-6.79-.5-1.88-1.54-3.37-3.31-4.15Z"/>
      <path d="m13.37,47.81c-10.67-.29-12.86,7.75-8.51,16.2h19.01c6.63-10.29-.3-15.93-10.5-16.2Z"/>
      <path d="m63.52,10.29c3.66,5.16,10.56,8.69,16.68,8.98,8.17.39,12.57-2.52,15.48-10.29.97-2.57,2.47-5.85,3.18-8.97h-33.65c-3.22,2.53-4.54,6.26-1.69,10.28Z"/>
      <path d="m15.09,26.47c5-.35,4.78-7.98,6.33-11.89,1.43-3.61-2.18-3.93-4.94-3.6-3.8.45-7.6-.72-11.41-.83-1.88-.06-3.57.53-5.06,1.52v24.29H0c5.79-1.44,8.22-9.02,15.08-9.5h0Z"/>
      <path d="m3.34.98c5.53,2.64,11.64,3.72,17.36,6.08,2.76,1.14,5.76,4.23,8.8,2.87,3.65-1.64,5.17-6.42,3.27-9.92H2.08c.32.38.72.71,1.26.97Z"/>
      <path d="m97.3,58.48c-2.76.19-3.52,3.14-2.87,5.53h5.23c.02-2.5-.95-5.63-2.36-5.53Z"/>
      <path d="m48.17,6.31c3.37-1.01,5.36-3.89,7.73-6.3h-18.4c.25.22.52.44.82.64,3.13,2.11,5.32,7.01,9.85,5.66Z"/>
      <path d="m51.77,61.11c-4.43-3.75-12.27-9.04-16.97-3.68-1.75,1.99-2.8,4.24-3.29,6.58h28.92c-.2-.08-.39-.17-.6-.24-2.66-.93-5.83-.77-8.06-2.66Z"/>
      <path d="m156.66,12.88c-1.49.27-3.03.17-4.43.71-3.39,1.3.61,4.9,2.9,4.76,4.13-.25,6.95-6.46,1.53-5.46h0Z"/>
      <path d="m118.41,32.73c-3.51.02-8.17,2.42-5.3,6.42,1.62,2.25,3.16,5.76,6.28,5.38,2.28-.28,13.2,3.95,10.46-1.47-2.64-5.21-4.31-10.37-11.44-10.34h0Z"/>
      <path d="m130.27,18.71c-4.18,2.17-4.57,8.73-2.24,12.29,1.96,2.99,5.29,5.12,6.33,8.62,2.11,7.15,8.85,17.01,15.57,8.53,2.73-3.45,2.11-8.18,2.49-12.35,1.06-11.41-10.39-23.19-22.15-17.09Z"/>
      <path d="m187.64,53.35c-2.35-1.86-5.74-2.44-7.11-5.33-2.15-4.56-5.25-9.67-11.26-8.42-13.33,2.77-15.29,11.58-3.61,18.18,3.35,1.89,6.38,4.65,9.87,6.24h12.3c4.62-1.9,5.94-5.81-.19-10.66h0Z"/>
      <path d="m185.44,23.78c-4.88.01-3.15,8.18-4.04,11.82-1.01,4.13,4,7.35,7.8,5.88,6.17-2.37,7.37-9.13,5.69-15.24-1.07-3.89-6.45-2.47-9.46-2.46h0Z"/>
      <path d="m176.3,22.77c-2.2-.97-3.27-3.68-5.82-3.76-4.95-.15-14.93,3.06-14.45,9.47.42,5.63,3.75,10.32,9.88,8.45,2.73-.84,5.84-.92,7.89-3.22,1.99-2.23,6.88-2.79,5.81-6.79-.5-1.88-1.54-3.37-3.31-4.15Z"/>
      <path d="m115.87,47.81c-10.67-.29-12.86,7.75-8.51,16.2h19.01c6.63-10.29-.3-15.93-10.5-16.2Z"/>
      <path d="m166.02,10.29c3.66,5.16,10.56,8.69,16.68,8.98,8.17.39,12.57-2.52,15.48-10.29.97-2.57,2.47-5.86,3.18-8.98h-33.65c-3.22,2.53-4.54,6.26-1.69,10.28h0Z"/>
      <path d="m123.91,14.58c1.43-3.61-2.18-3.93-4.94-3.6-3.8.45-7.6-.72-11.41-.83-1.88-.06-3.57.53-5.06,1.52h0c-2.89,1.93-4.99,5.39-6.11,8.65-1.28,3.72-2.23,7.76-.73,11.67,1.12,2.91,4.12,4.64,6.83,3.97h0c5.79-1.44,8.22-9.02,15.08-9.5,5-.35,4.78-7.98,6.33-11.89h.01Z"/>
      <path d="m105.84.98c5.53,2.64,11.64,3.72,17.36,6.08,2.76,1.14,5.76,4.23,8.8,2.87,3.64-1.63,5.16-6.41,3.27-9.92h-30.69c.32.38.72.71,1.26.97Z"/>
      <path d="m199.8,58.48c-2.76.19-3.52,3.14-2.87,5.53h5.23c.02-2.5-.95-5.63-2.36-5.53Z"/>
      <path d="m150.67,6.31c3.37-1.01,5.37-3.89,7.73-6.3h-18.4c.25.22.52.44.82.64,3.13,2.11,5.32,7.01,9.85,5.66h0Z"/>
      <path d="m226.41,14.58c1.43-3.61-2.18-3.93-4.94-3.6-3.8.45-7.6-.72-11.41-.83-1.88-.06-3.57.53-5.06,1.52h0c-2.89,1.93-4.99,5.39-6.11,8.65-1.28,3.72-2.23,7.76-.73,11.67,1.12,2.91,4.12,4.64,6.83,3.97h0c5.79-1.44,8.22-9.02,15.08-9.5,5-.35,4.78-7.98,6.33-11.89h0Z"/>
      <path d="m154.27,61.11c-4.43-3.75-12.27-9.04-16.97-3.68-1.75,1.99-2.8,4.24-3.29,6.58h28.92c-.2-.08-.39-.17-.6-.24-2.66-.93-5.83-.77-8.06-2.66Z"/>
      <path d="m259.16,12.88c-1.49.27-3.03.17-4.43.71-3.39,1.3.61,4.9,2.9,4.76,4.13-.25,6.95-6.46,1.53-5.46h0Z"/>
      <path d="m220.91,32.73c-3.51.02-8.17,2.42-5.3,6.42,1.62,2.25,3.16,5.76,6.28,5.38,2.28-.28,13.2,3.95,10.46-1.47-2.64-5.21-4.31-10.37-11.44-10.34h0Z"/>
      <path d="m232.77,18.71c-4.18,2.17-4.57,8.73-2.24,12.29,1.96,2.99,5.29,5.12,6.33,8.62,2.11,7.15,8.85,17.01,15.57,8.53,2.74-3.45,2.11-8.18,2.49-12.35,1.06-11.41-10.39-23.19-22.15-17.09Z"/>
      <path d="m290.14,53.35c-2.35-1.86-5.74-2.44-7.11-5.33-2.15-4.56-5.25-9.67-11.26-8.42-13.33,2.77-15.29,11.58-3.61,18.18,3.35,1.89,6.38,4.65,9.87,6.24h12.3c4.62-1.9,5.94-5.81-.19-10.66h0Z"/>
      <path d="m287.94,23.78c-4.88.01-3.15,8.18-4.04,11.82-1.01,4.13,4,7.35,7.8,5.88,6.17-2.37,7.37-9.13,5.69-15.24-1.07-3.89-6.45-2.47-9.46-2.46h.01Z"/>
      <path d="m278.8,22.77c-2.2-.97-3.27-3.68-5.82-3.76-4.95-.15-14.93,3.06-14.45,9.47.42,5.63,3.75,10.32,9.88,8.45,2.73-.84,5.84-.92,7.89-3.22,1.99-2.23,6.88-2.79,5.81-6.79-.5-1.88-1.54-3.37-3.31-4.15Z"/>
      <path d="m218.37,47.81c-10.67-.29-12.86,7.75-8.51,16.2h19.01c6.63-10.29-.3-15.93-10.5-16.2Z"/>
      <path d="m268.52,10.29c3.66,5.16,10.56,8.69,16.68,8.98,8.17.39,12.57-2.52,15.48-10.29.97-2.57,2.47-5.86,3.18-8.98h-33.65c-3.22,2.53-4.54,6.26-1.69,10.28h0Z"/>
      <path d="m208.34.98c5.53,2.64,11.64,3.72,17.36,6.08,2.76,1.14,5.76,4.23,8.8,2.87,3.64-1.63,5.16-6.41,3.27-9.92h-30.69c.32.38.72.71,1.26.97Z"/>
      <path d="m302.3,58.48c-2.76.19-3.52,3.14-2.87,5.53h5.23c.02-2.5-.95-5.63-2.36-5.53h0Z"/>
      <path d="m253.17,6.31c3.37-1.01,5.37-3.89,7.73-6.3h-18.4c.25.22.52.44.82.64,3.13,2.11,5.32,7.01,9.85,5.66h0Z"/>
      <path d="m256.77,61.11c-4.43-3.75-12.27-9.04-16.97-3.68-1.75,1.99-2.8,4.24-3.29,6.58h28.92c-.2-.08-.39-.17-.6-.24-2.66-.93-5.83-.77-8.06-2.66Z"/>
      <path d="m361.66,12.88c-1.49.27-3.03.17-4.43.71-3.39,1.3.61,4.9,2.9,4.76,4.13-.25,6.95-6.46,1.53-5.46h0Z"/>
      <path d="m323.41,32.73c-3.51.02-8.17,2.42-5.3,6.42,1.62,2.25,3.16,5.76,6.28,5.38,2.28-.28,13.2,3.95,10.46-1.47-2.64-5.21-4.31-10.37-11.44-10.34h0Z"/>
      <path d="m335.27,18.71c-4.18,2.17-4.57,8.73-2.24,12.29,1.96,2.99,5.29,5.12,6.33,8.62,2.11,7.15,8.85,17.01,15.57,8.53,2.73-3.45,2.11-8.18,2.49-12.35,1.06-11.41-10.39-23.19-22.15-17.09Z"/>
      <path d="m392.64,53.35c-2.35-1.86-5.74-2.44-7.11-5.33-2.15-4.56-5.25-9.67-11.26-8.42-13.33,2.77-15.29,11.58-3.61,18.18,3.35,1.89,6.38,4.65,9.87,6.24h12.3c4.62-1.9,5.94-5.81-.19-10.66h0Z"/>
      <path d="m390.44,23.78c-4.88.01-3.15,8.18-4.04,11.82-1.01,4.13,4,7.35,7.8,5.88,6.17-2.37,7.37-9.13,5.69-15.24-1.07-3.89-6.45-2.47-9.46-2.46h.01Z"/>
      <path d="m381.3,22.77c-2.2-.97-3.27-3.68-5.82-3.76-4.95-.15-14.93,3.06-14.45,9.47.42,5.63,3.75,10.32,9.88,8.45,2.73-.84,5.84-.92,7.89-3.22,1.99-2.23,6.88-2.79,5.81-6.79-.5-1.88-1.54-3.37-3.31-4.15Z"/>
      <path d="m320.87,47.81c-10.67-.29-12.86,7.75-8.51,16.2h19.01c6.63-10.29-.3-15.93-10.5-16.2Z"/>
      <path d="m371.02,10.29c3.66,5.16,10.56,8.69,16.68,8.98,8.17.39,12.57-2.52,15.48-10.29.97-2.57,2.47-5.86,3.18-8.98h-33.65c-3.22,2.53-4.54,6.26-1.69,10.28h0Z"/>
      <path d="m328.91,14.58c1.43-3.61-2.18-3.93-4.94-3.6-3.8.45-7.6-.72-11.41-.83-1.88-.06-3.57.53-5.06,1.52h0c-2.89,1.93-4.99,5.39-6.11,8.65-1.28,3.72-2.23,7.76-.73,11.67,1.12,2.91,4.12,4.64,6.83,3.97h0c5.79-1.44,8.22-9.02,15.08-9.5,5-.35,4.78-7.98,6.33-11.89h.01Z"/>
      <path d="m310.84.98c5.53,2.64,11.64,3.72,17.36,6.08,2.76,1.14,5.76,4.23,8.8,2.87,3.64-1.63,5.16-6.41,3.27-9.92h-30.69c.32.38.72.71,1.26.97Z"/>
      <path d="m404.8,58.48c-2.76.19-3.52,3.14-2.87,5.53h5.23c.02-2.5-.95-5.63-2.36-5.53h0Z"/>
      <path d="m355.67,6.31c3.37-1.01,5.37-3.89,7.73-6.3h-18.4c.25.22.52.44.82.64,3.13,2.11,5.32,7.01,9.85,5.66h0Z"/>
      <path d="m431.41,14.58c1.43-3.61-2.18-3.93-4.94-3.6-3.8.45-7.6-.72-11.41-.83-1.88-.06-3.57.53-5.06,1.52h0c-2.89,1.93-4.99,5.39-6.11,8.65-1.28,3.72-2.23,7.76-.73,11.67,1.12,2.91,4.12,4.64,6.83,3.97h0c5.79-1.44,8.22-9.02,15.08-9.5,5-.35,4.78-7.98,6.33-11.89h.01Z"/>
      <path d="m359.27,61.11c-4.43-3.75-12.27-9.04-16.97-3.68-1.75,1.99-2.8,4.24-3.29,6.58h28.92c-.2-.08-.39-.17-.6-.24-2.66-.93-5.83-.77-8.06-2.66Z"/>
      <path d="m464.16,12.88c-1.49.27-3.03.17-4.43.71-3.39,1.3.61,4.9,2.9,4.76,4.13-.25,6.95-6.46,1.53-5.46h0Z"/>
      <path d="m425.91,32.73c-3.51.02-8.17,2.42-5.3,6.42,1.62,2.25,3.16,5.76,6.28,5.38,2.28-.28,13.2,3.95,10.46-1.47-2.64-5.21-4.31-10.37-11.44-10.34h0Z"/>
      <path d="m437.77,18.71c-4.18,2.17-4.57,8.73-2.24,12.29,1.96,2.99,5.29,5.12,6.33,8.62,2.11,7.15,8.85,17.01,15.57,8.53,2.74-3.45,2.11-8.18,2.49-12.35,1.06-11.41-10.39-23.19-22.15-17.09Z"/>
      <path d="m495.14,53.35c-2.35-1.86-5.74-2.44-7.11-5.33-2.15-4.56-5.25-9.67-11.26-8.42-13.33,2.77-15.29,11.58-3.61,18.18,3.35,1.89,6.38,4.65,9.87,6.24h12.3c4.62-1.9,5.94-5.81-.19-10.66h0Z"/>
      <path d="m492.94,23.78c-4.88.01-3.15,8.18-4.04,11.82-1.01,4.13,4,7.35,7.8,5.88,6.17-2.37,7.37-9.13,5.69-15.24-1.07-3.89-6.45-2.47-9.46-2.46h.01Z"/>
      <path d="m483.8,22.77c-2.2-.97-3.27-3.68-5.82-3.76-4.95-.15-14.93,3.06-14.45,9.47.42,5.63,3.75,10.32,9.88,8.45,2.73-.84,5.84-.92,7.89-3.22,1.99-2.23,6.88-2.79,5.81-6.79-.5-1.88-1.54-3.37-3.31-4.15Z"/>
      <path d="m423.37,47.81c-10.67-.29-12.86,7.75-8.51,16.2h19.01c6.63-10.29-.3-15.93-10.5-16.2Z"/>
      <path d="m473.52,10.29c3.66,5.16,10.56,8.69,16.68,8.98,8.17.39,12.57-2.52,15.48-10.29.97-2.57,2.47-5.86,3.18-8.98h-33.65c-3.22,2.53-4.54,6.26-1.69,10.28h0Z"/>
      <path d="m413.34.98c5.53,2.64,11.64,3.72,17.36,6.08,2.76,1.14,5.76,4.23,8.8,2.87,3.64-1.63,5.16-6.41,3.27-9.92h-30.69c.32.38.72.71,1.26.97Z"/>
      <path d="m507.3,58.48c-2.76.19-3.52,3.14-2.87,5.53h5.23c.02-2.5-.95-5.63-2.36-5.53h0Z"/>
      <path d="m458.17,6.31c3.37-1.01,5.37-3.89,7.73-6.3h-18.4c.25.22.52.44.82.64,3.13,2.11,5.32,7.01,9.85,5.66h0Z"/>
      <path d="m461.77,61.11c-4.43-3.75-12.27-9.04-16.97-3.68-1.75,1.99-2.8,4.24-3.29,6.58h28.92c-.2-.08-.39-.17-.6-.24-2.66-.93-5.83-.77-8.06-2.66Z"/>
      <path d="m566.66,12.88c-1.49.27-3.03.17-4.43.71-3.39,1.3.61,4.9,2.9,4.76,4.13-.25,6.95-6.46,1.53-5.46h0Z"/>
      <path d="m528.41,32.73c-3.51.02-8.17,2.42-5.3,6.42,1.62,2.25,3.16,5.76,6.28,5.38,2.28-.28,13.2,3.95,10.46-1.47-2.64-5.21-4.31-10.37-11.44-10.34h0Z"/>
      <path d="m540.27,18.71c-4.18,2.17-4.57,8.73-2.24,12.29,1.96,2.99,5.29,5.12,6.33,8.62,2.11,7.15,8.85,17.01,15.57,8.53,2.73-3.45,2.11-8.18,2.49-12.35,1.06-11.41-10.39-23.19-22.15-17.09Z"/>
      <path d="m597.64,53.35c-2.35-1.86-5.74-2.44-7.11-5.33-2.15-4.56-5.25-9.67-11.26-8.42-13.33,2.77-15.29,11.58-3.61,18.18,3.35,1.89,6.38,4.65,9.87,6.24h12.3c4.62-1.9,5.94-5.81-.19-10.66h0Z"/>
      <path d="m595.44,23.78c-4.88.01-3.15,8.18-4.04,11.82-1.01,4.13,4,7.35,7.8,5.88,6.17-2.37,7.37-9.13,5.69-15.24-1.07-3.89-6.45-2.47-9.46-2.46h.01Z"/>
      <path d="m586.3,22.77c-2.2-.97-3.27-3.68-5.82-3.76-4.95-.15-14.93,3.06-14.45,9.47.42,5.63,3.75,10.32,9.88,8.45,2.73-.84,5.84-.92,7.89-3.22,1.99-2.23,6.88-2.79,5.81-6.79-.5-1.88-1.54-3.37-3.31-4.15Z"/>
      <path d="m525.87,47.81c-10.67-.29-12.86,7.75-8.51,16.2h19.01c6.63-10.29-.3-15.93-10.5-16.2Z"/>
      <path d="m576.02,10.29c3.66,5.16,10.56,8.69,16.68,8.98,8.17.39,12.57-2.52,15.48-10.29.97-2.57,2.47-5.86,3.18-8.98h-33.65c-3.22,2.53-4.54,6.26-1.69,10.28h0Z"/>
      <path d="m533.91,14.58c1.43-3.61-2.18-3.93-4.94-3.6-3.8.45-7.6-.72-11.41-.83-1.88-.06-3.57.53-5.06,1.52h0c-2.89,1.93-4.99,5.39-6.11,8.65-1.28,3.72-2.23,7.76-.73,11.67,1.12,2.91,4.12,4.64,6.83,3.97h0c5.79-1.44,8.22-9.02,15.08-9.5,5-.35,4.78-7.98,6.33-11.89h0Z"/>
      <path d="m515.84.98c5.53,2.64,11.64,3.72,17.36,6.08,2.76,1.14,5.76,4.23,8.8,2.87,3.64-1.63,5.16-6.41,3.27-9.92h-30.69c.32.38.72.71,1.26.97Z"/>
      <path d="m609.8,58.48c-2.76.19-3.52,3.14-2.87,5.53h5.23c.02-2.5-.95-5.63-2.36-5.53Z"/>
      <path d="m560.67,6.31c3.37-1.01,5.37-3.89,7.73-6.3h-18.4c.25.22.52.44.82.64,3.13,2.11,5.32,7.01,9.85,5.66h0Z"/>
      <path d="m636.41,14.58c1.43-3.61-2.18-3.93-4.94-3.6-3.8.45-7.6-.72-11.41-.83-1.88-.06-3.57.53-5.06,1.52h0c-2.89,1.93-4.99,5.39-6.11,8.65-1.28,3.72-2.23,7.76-.73,11.67,1.12,2.91,4.12,4.64,6.83,3.97h0c5.79-1.44,8.22-9.02,15.08-9.5,5-.35,4.78-7.98,6.33-11.89h0Z"/>
      <path d="m564.27,61.11c-4.43-3.75-12.27-9.04-16.97-3.68-1.75,1.99-2.8,4.24-3.29,6.58h28.92c-.2-.08-.39-.17-.6-.24-2.66-.93-5.83-.77-8.06-2.66h0Z"/>
      <path d="m669.16,12.88c-1.49.27-3.03.17-4.43.71-3.39,1.3.61,4.9,2.9,4.76,4.13-.25,6.95-6.46,1.53-5.46h0Z"/>
      <path d="m630.91,32.73c-3.51.02-8.17,2.42-5.3,6.42,1.62,2.25,3.16,5.76,6.28,5.38,2.28-.28,13.2,3.95,10.46-1.47-2.64-5.21-4.31-10.37-11.44-10.34h0Z"/>
      <path d="m642.77,18.71c-4.18,2.17-4.57,8.73-2.24,12.29,1.96,2.99,5.29,5.12,6.33,8.62,2.11,7.15,8.85,17.01,15.57,8.53,2.74-3.45,2.11-8.18,2.49-12.35,1.06-11.41-10.39-23.19-22.15-17.09Z"/>
      <path d="m700.14,53.35c-2.35-1.86-5.74-2.44-7.11-5.33-2.15-4.56-5.25-9.67-11.26-8.42-13.33,2.77-15.29,11.58-3.61,18.18,3.35,1.89,6.38,4.65,9.87,6.24h12.3c4.62-1.9,5.94-5.81-.19-10.66h0Z"/>
      <path d="m697.94,23.78c-4.88.01-3.15,8.18-4.04,11.82-1.01,4.13,4,7.35,7.8,5.88,6.17-2.37,7.37-9.13,5.69-15.24-1.07-3.89-6.45-2.47-9.46-2.46h.01Z"/>
      <path d="m688.8,22.77c-2.2-.97-3.27-3.68-5.82-3.76-4.95-.15-14.93,3.06-14.45,9.47.42,5.63,3.75,10.32,9.88,8.45,2.73-.84,5.84-.92,7.89-3.22,1.99-2.23,6.88-2.79,5.81-6.79-.5-1.88-1.54-3.37-3.31-4.15Z"/>
      <path d="m628.37,47.81c-10.67-.29-12.86,7.75-8.51,16.2h19.01c6.63-10.29-.3-15.93-10.5-16.2Z"/>
      <path d="m678.52,10.29c3.66,5.16,10.56,8.69,16.68,8.98,8.17.39,12.57-2.52,15.48-10.29.97-2.57,2.47-5.86,3.18-8.98h-33.65c-3.22,2.53-4.54,6.26-1.69,10.28h0Z"/>
      <path d="m618.34.98c5.53,2.64,11.64,3.72,17.36,6.08,2.76,1.14,5.76,4.23,8.8,2.87,3.64-1.63,5.16-6.41,3.27-9.92h-30.69c.32.38.72.71,1.26.97Z"/>
      <path d="m712.3,58.48c-2.76.19-3.52,3.14-2.87,5.53h5.23c.02-2.5-.95-5.63-2.36-5.53Z"/>
      <path d="m663.17,6.31c3.37-1.01,5.37-3.89,7.73-6.3h-18.4c.25.22.52.44.82.64,3.13,2.11,5.32,7.01,9.85,5.66h0Z"/>
      <path d="m666.77,61.11c-4.43-3.75-12.27-9.04-16.97-3.68-1.75,1.99-2.8,4.24-3.29,6.58h28.92c-.2-.08-.39-.17-.6-.24-2.66-.93-5.83-.77-8.06-2.66h0Z"/>
      <path d="m771.66,12.88c-1.49.27-3.03.17-4.43.71-3.39,1.3.61,4.9,2.9,4.76,4.13-.25,6.95-6.46,1.53-5.46h0Z"/>
      <path d="m733.41,32.73c-3.51.02-8.17,2.42-5.3,6.42,1.62,2.25,3.16,5.76,6.28,5.38,2.28-.28,13.2,3.95,10.46-1.47-2.64-5.21-4.31-10.37-11.44-10.34h0Z"/>
      <path d="m745.27,18.71c-4.18,2.17-4.57,8.73-2.24,12.29,1.96,2.99,5.29,5.12,6.33,8.62,2.11,7.15,8.85,17.01,15.57,8.53,2.73-3.45,2.11-8.18,2.49-12.35,1.06-11.41-10.39-23.19-22.15-17.09Z"/>
      <path d="m802.64,53.35c-2.35-1.86-5.74-2.44-7.11-5.33-2.15-4.56-5.25-9.67-11.26-8.42-13.33,2.77-15.29,11.58-3.61,18.18,3.35,1.89,6.38,4.65,9.87,6.24h12.3c4.62-1.9,5.94-5.81-.19-10.66h0Z"/>
      <path d="m800.44,23.78c-4.88.01-3.15,8.18-4.04,11.82-1.01,4.13,4,7.35,7.8,5.88,6.17-2.37,7.37-9.13,5.69-15.24-1.07-3.89-6.45-2.47-9.46-2.46h.01Z"/>
      <path d="m791.3,22.77c-2.2-.97-3.27-3.68-5.82-3.76-4.95-.15-14.93,3.06-14.45,9.47.42,5.63,3.75,10.32,9.88,8.45,2.73-.84,5.84-.92,7.89-3.22,1.99-2.23,6.88-2.79,5.81-6.79-.5-1.88-1.54-3.37-3.31-4.15Z"/>
      <path d="m730.87,47.81c-10.67-.29-12.86,7.75-8.51,16.2h19.01c6.63-10.29-.3-15.93-10.5-16.2Z"/>
      <path d="m781.02,10.29c3.66,5.16,10.56,8.69,16.68,8.98,8.17.39,12.57-2.52,15.48-10.29.97-2.57,2.47-5.86,3.18-8.98h-33.65c-3.22,2.53-4.54,6.26-1.69,10.28h0Z"/>
      <path d="m738.91,14.58c1.43-3.61-2.18-3.93-4.94-3.6-3.8.45-7.6-.72-11.41-.83-1.88-.06-3.57.53-5.06,1.52h0c-2.89,1.93-4.99,5.39-6.11,8.65-1.28,3.72-2.23,7.76-.73,11.67,1.12,2.91,4.12,4.64,6.83,3.97h0c5.79-1.44,8.22-9.02,15.08-9.5,5-.35,4.78-7.98,6.33-11.89h0Z"/>
      <path d="m720.84.98c5.53,2.64,11.64,3.72,17.36,6.08,2.76,1.14,5.76,4.23,8.8,2.87,3.64-1.63,5.16-6.41,3.27-9.92h-30.69c.32.38.72.71,1.26.97Z"/>
      <path d="m814.8,58.48c-2.76.19-3.52,3.14-2.87,5.53h5.23c.02-2.5-.95-5.63-2.36-5.53Z"/>
      <path d="m765.67,6.31c3.37-1.01,5.37-3.89,7.73-6.3h-18.4c.25.22.52.44.82.64,3.13,2.11,5.32,7.01,9.85,5.66h0Z"/>
      <path d="m769.27,61.11c-4.43-3.75-12.27-9.04-16.97-3.68-1.75,1.99-2.8,4.24-3.29,6.58h28.92c-.2-.08-.39-.17-.6-.24-2.66-.93-5.83-.77-8.06-2.66h0Z"/>
      <path d="m874.16,12.88c-1.49.27-3.03.17-4.43.71-3.39,1.3.61,4.9,2.9,4.76,4.13-.25,6.95-6.46,1.53-5.46h0Z"/>
      <path d="m835.91,32.73c-3.51.02-8.17,2.42-5.3,6.42,1.62,2.25,3.16,5.76,6.28,5.38,2.28-.28,13.2,3.95,10.46-1.47-2.64-5.21-4.31-10.37-11.44-10.34h0Z"/>
      <path d="m847.77,18.71c-4.18,2.17-4.57,8.73-2.24,12.29,1.96,2.99,5.29,5.12,6.33,8.62,2.11,7.15,8.85,17.01,15.57,8.53,2.73-3.45,2.11-8.18,2.49-12.35,1.06-11.41-10.39-23.19-22.15-17.09Z"/>
      <path d="m905.14,53.35c-2.35-1.86-5.74-2.44-7.11-5.33-2.15-4.56-5.25-9.67-11.26-8.42-13.33,2.77-15.29,11.58-3.61,18.18,3.35,1.89,6.38,4.65,9.87,6.24h12.3c4.62-1.9,5.94-5.81-.19-10.66h0Z"/>
      <path d="m902.94,23.78c-4.88.01-3.15,8.18-4.04,11.82-1.01,4.13,4,7.35,7.8,5.88,6.17-2.37,7.37-9.13,5.69-15.24-1.07-3.89-6.45-2.47-9.46-2.46h.01Z"/>
      <path d="m893.8,22.77c-2.2-.97-3.27-3.68-5.82-3.76-4.95-.15-14.93,3.06-14.45,9.47.42,5.63,3.75,10.32,9.88,8.45,2.73-.84,5.84-.92,7.89-3.22,1.99-2.23,6.88-2.79,5.81-6.79-.5-1.88-1.54-3.37-3.31-4.15Z"/>
      <path d="m833.37,47.81c-10.67-.29-12.86,7.75-8.51,16.2h19.01c6.63-10.29-.3-15.93-10.5-16.2Z"/>
      <path d="m883.52,10.29c3.66,5.16,10.56,8.69,16.68,8.98,8.17.39,12.57-2.52,15.48-10.29.97-2.57,2.47-5.86,3.18-8.98h-33.65c-3.22,2.53-4.54,6.26-1.69,10.28h0Z"/>
      <path d="m841.41,14.58c1.43-3.61-2.18-3.93-4.94-3.6-3.8.45-7.6-.72-11.41-.83-1.88-.06-3.57.53-5.06,1.52h0c-2.89,1.93-4.99,5.39-6.11,8.65-1.28,3.72-2.23,7.76-.73,11.67,1.12,2.91,4.12,4.64,6.83,3.97h0c5.79-1.44,8.22-9.02,15.08-9.5,5-.35,4.78-7.98,6.33-11.89h0Z"/>
      <path d="m823.34.98c5.53,2.64,11.64,3.72,17.36,6.08,2.76,1.14,5.76,4.23,8.8,2.87,3.64-1.63,5.16-6.41,3.27-9.92h-30.69c.32.38.72.71,1.26.97Z"/>
      <path d="m917.3,58.48c-2.76.19-3.52,3.14-2.87,5.53h5.23c.02-2.5-.95-5.63-2.36-5.53Z"/>
      <path d="m868.17,6.31c3.37-1.01,5.37-3.89,7.73-6.3h-18.4c.25.22.52.44.82.64,3.13,2.11,5.32,7.01,9.85,5.66h0Z"/>
      <path d="m871.77,61.11c-4.43-3.75-12.27-9.04-16.97-3.68-1.75,1.99-2.8,4.24-3.29,6.58h28.92c-.2-.08-.39-.17-.6-.24-2.66-.93-5.83-.77-8.06-2.66h0Z"/>
      <path d="m976.66,12.88c-1.49.27-3.03.17-4.43.71-3.39,1.3.61,4.9,2.9,4.76,4.13-.25,6.95-6.46,1.53-5.46h0Z"/>
      <path d="m938.41,32.73c-3.51.02-8.17,2.42-5.3,6.42,1.62,2.25,3.16,5.76,6.28,5.38,2.28-.28,13.2,3.95,10.46-1.47-2.64-5.21-4.31-10.37-11.44-10.34h0Z"/>
      <path d="m950.27,18.71c-4.18,2.17-4.57,8.73-2.24,12.29,1.96,2.99,5.29,5.12,6.33,8.62,2.11,7.15,8.85,17.01,15.57,8.53,2.74-3.45,2.11-8.18,2.49-12.35,1.06-11.41-10.39-23.19-22.15-17.09Z"/>
      <path d="m1007.64,53.35c-2.35-1.86-5.74-2.44-7.11-5.33-2.15-4.56-5.25-9.67-11.26-8.42-13.33,2.77-15.29,11.58-3.61,18.18,3.35,1.89,6.38,4.65,9.87,6.24h12.3c4.62-1.9,5.94-5.81-.19-10.66h0Z"/>
      <path d="m1005.44,23.78c-4.88.01-3.15,8.18-4.04,11.82-1.01,4.13,4,7.35,7.8,5.88,6.17-2.37,7.37-9.13,5.69-15.24-1.07-3.89-6.45-2.47-9.46-2.46h.01Z"/>
      <path d="m996.3,22.77c-2.2-.97-3.27-3.68-5.82-3.76-4.95-.15-14.93,3.06-14.45,9.47.42,5.63,3.75,10.32,9.88,8.45,2.73-.84,5.84-.92,7.89-3.22,1.99-2.23,6.88-2.79,5.81-6.79-.5-1.88-1.54-3.37-3.31-4.15Z"/>
      <path d="m935.87,47.81c-10.67-.29-12.86,7.75-8.51,16.2h19.01c6.63-10.29-.3-15.93-10.5-16.2Z"/>
      <path d="m986.02,10.29c3.66,5.16,10.56,8.69,16.68,8.98,8.17.39,12.57-2.52,15.48-10.29.97-2.57,2.47-5.86,3.18-8.98h-33.65c-3.22,2.53-4.54,6.26-1.69,10.28h0Z"/>
      <path d="m943.91,14.58c1.43-3.61-2.18-3.93-4.94-3.6-3.8.45-7.6-.72-11.41-.83-1.88-.06-3.57.53-5.06,1.52h0c-2.89,1.93-4.99,5.39-6.11,8.65-1.28,3.72-2.23,7.76-.73,11.67,1.12,2.91,4.12,4.64,6.83,3.97h0c5.79-1.44,8.22-9.02,15.08-9.5,5-.35,4.78-7.98,6.33-11.89h0Z"/>
      <path d="m925.84.98c5.53,2.64,11.64,3.72,17.36,6.08,2.76,1.14,5.76,4.23,8.8,2.87,3.64-1.63,5.16-6.41,3.27-9.92h-30.69c.32.38.72.71,1.26.97Z"/>
      <path d="m1019.8,58.48c-2.76.19-3.52,3.14-2.87,5.53h5.23c.02-2.5-.95-5.63-2.36-5.53Z"/>
      <path d="m970.67,6.31c3.37-1.01,5.37-3.89,7.73-6.3h-18.4c.25.22.52.44.82.64,3.13,2.11,5.32,7.01,9.85,5.66h0Z"/>
      <path d="m1046.41,14.58c1.43-3.61-2.18-3.93-4.94-3.6-3.8.45-7.6-.72-11.41-.83-1.88-.06-3.57.53-5.06,1.52h0c-2.89,1.93-4.99,5.39-6.11,8.65-1.28,3.72-2.23,7.76-.73,11.67,1.12,2.91,4.12,4.64,6.83,3.97h0c5.79-1.44,8.22-9.02,15.08-9.5,5-.35,4.78-7.98,6.33-11.89h.01Z"/>
      <path d="m974.27,61.11c-4.43-3.75-12.27-9.04-16.97-3.68-1.75,1.99-2.8,4.24-3.29,6.58h28.92c-.2-.08-.39-.17-.6-.24-2.66-.93-5.83-.77-8.06-2.66h0Z"/>
      <path d="m1079.16,12.88c-1.49.27-3.03.17-4.43.71-3.39,1.3.61,4.9,2.9,4.76,4.13-.25,6.95-6.46,1.53-5.46h0Z"/>
      <path d="m1040.91,32.73c-3.51.02-8.17,2.42-5.3,6.42,1.62,2.25,3.16,5.76,6.28,5.38,2.28-.28,13.2,3.95,10.46-1.47-2.64-5.21-4.31-10.37-11.44-10.34h0Z"/>
      <path d="m1052.77,18.71c-4.18,2.17-4.57,8.73-2.24,12.29,1.96,2.99,5.29,5.12,6.33,8.62,2.11,7.15,8.85,17.01,15.57,8.53,2.73-3.45,2.11-8.18,2.49-12.35,1.06-11.41-10.39-23.19-22.15-17.09h0Z"/>
      <path d="m1110.14,53.35c-2.35-1.86-5.74-2.44-7.11-5.33-2.15-4.56-5.25-9.67-11.26-8.42-13.33,2.77-15.29,11.58-3.61,18.18,3.35,1.89,6.38,4.65,9.87,6.24h12.3c4.62-1.9,5.94-5.81-.19-10.66h0Z"/>
      <path d="m1107.94,23.78c-4.88.01-3.15,8.18-4.04,11.82-1.01,4.13,4,7.35,7.8,5.88,6.17-2.37,7.37-9.13,5.69-15.24-1.07-3.89-6.45-2.47-9.46-2.46h.01Z"/>
      <path d="m1098.8,22.77c-2.2-.97-3.27-3.68-5.82-3.76-4.95-.15-14.93,3.06-14.45,9.47.42,5.63,3.75,10.32,9.88,8.45,2.73-.84,5.84-.92,7.89-3.22,1.99-2.23,6.88-2.79,5.81-6.79-.5-1.88-1.54-3.37-3.31-4.15h0Z"/>
      <path d="m1038.37,47.81c-10.67-.29-12.86,7.75-8.51,16.2h19.01c6.63-10.29-.3-15.93-10.5-16.2Z"/>
      <path d="m1088.52,10.29c3.66,5.16,10.56,8.69,16.68,8.98,8.17.39,12.57-2.52,15.48-10.29.97-2.57,2.47-5.86,3.18-8.98h-33.65c-3.22,2.53-4.54,6.26-1.69,10.28h0Z"/>
      <path d="m1028.34.98c5.53,2.64,11.64,3.72,17.36,6.08,2.76,1.14,5.76,4.23,8.8,2.87,3.64-1.63,5.16-6.41,3.27-9.92h-30.69c.32.38.72.71,1.26.97h0Z"/>
      <path d="m1122.3,58.48c-2.76.19-3.52,3.14-2.87,5.53h5.23c.02-2.5-.95-5.63-2.36-5.53Z"/>
      <path d="m1073.17,6.31c3.37-1.01,5.37-3.89,7.73-6.3h-18.4c.25.22.52.44.82.64,3.13,2.11,5.32,7.01,9.85,5.66h0Z"/>
      <path d="m1076.77,61.11c-4.43-3.75-12.27-9.04-16.97-3.68-1.74,1.99-2.8,4.24-3.29,6.58h28.92c-.2-.08-.39-.17-.6-.24-2.66-.93-5.83-.77-8.06-2.66Z"/>
      <path d="m1181.66,12.88c-1.49.27-3.03.17-4.43.71-3.39,1.3.61,4.9,2.9,4.76,4.13-.25,6.95-6.46,1.53-5.46h0Z"/>
      <path d="m1143.41,32.73c-3.51.02-8.17,2.42-5.3,6.42,1.62,2.25,3.16,5.76,6.28,5.38,2.28-.28,13.2,3.95,10.46-1.47-2.64-5.21-4.31-10.37-11.44-10.34h0Z"/>
      <path d="m1155.27,18.71c-4.18,2.17-4.57,8.73-2.24,12.29,1.96,2.99,5.29,5.12,6.33,8.62,2.11,7.15,8.85,17.01,15.57,8.53,2.73-3.45,2.11-8.18,2.49-12.35,1.06-11.41-10.39-23.19-22.15-17.09h0Z"/>
      <path d="m1212.64,53.35c-2.35-1.86-5.74-2.44-7.11-5.33-2.15-4.56-5.25-9.67-11.26-8.42-13.33,2.77-15.29,11.58-3.61,18.18,3.35,1.89,6.38,4.65,9.87,6.24h12.3c4.62-1.9,5.94-5.81-.19-10.66h0Z"/>
      <path d="m1210.44,23.78c-4.88.01-3.15,8.18-4.04,11.82-1.01,4.13,4,7.35,7.8,5.88,6.17-2.37,7.37-9.13,5.69-15.24-1.07-3.89-6.45-2.47-9.46-2.46h.01Z"/>
      <path d="m1201.3,22.77c-2.2-.97-3.27-3.68-5.82-3.76-4.95-.15-14.93,3.06-14.45,9.47.42,5.63,3.75,10.32,9.88,8.45,2.73-.84,5.84-.92,7.89-3.22,1.99-2.23,6.88-2.79,5.81-6.79-.5-1.88-1.54-3.37-3.31-4.15h0Z"/>
      <path d="m1140.87,47.81c-10.67-.29-12.86,7.75-8.51,16.2h19.01c6.63-10.29-.3-15.93-10.5-16.2Z"/>
      <path d="m1191.02,10.29c3.66,5.16,10.56,8.69,16.68,8.98,8.17.39,12.57-2.52,15.48-10.29.97-2.57,2.47-5.86,3.18-8.98h-33.65c-3.22,2.53-4.54,6.26-1.69,10.28h0Z"/>
      <path d="m1148.91,14.58c1.43-3.61-2.18-3.93-4.94-3.6-3.8.45-7.6-.72-11.41-.83-1.88-.06-3.57.53-5.06,1.52h0c-2.89,1.93-4.99,5.39-6.11,8.65-1.28,3.72-2.23,7.76-.73,11.67,1.12,2.91,4.12,4.64,6.83,3.97h0c5.79-1.44,8.22-9.02,15.08-9.5,5-.35,4.78-7.98,6.33-11.89h.01Z"/>
      <path d="m1130.84.98c5.53,2.64,11.64,3.72,17.36,6.08,2.76,1.14,5.76,4.23,8.8,2.87,3.64-1.63,5.16-6.41,3.27-9.92h-30.69c.32.38.72.71,1.26.97h0Z"/>
      <path d="m1224.8,58.48c-2.76.19-3.52,3.14-2.87,5.53h5.23c.02-2.5-.95-5.63-2.36-5.53Z"/>
      <path d="m1175.67,6.31c3.37-1.01,5.37-3.89,7.73-6.3h-18.4c.25.22.52.44.82.64,3.13,2.11,5.32,7.01,9.85,5.66h0Z"/>
      <path d="m1251.41,14.58c1.43-3.61-2.18-3.93-4.94-3.6-3.8.45-7.6-.72-11.41-.83-1.88-.06-3.57.53-5.06,1.52h0c-2.89,1.93-4.99,5.39-6.11,8.65-1.28,3.72-2.23,7.76-.73,11.67,1.12,2.91,4.12,4.64,6.83,3.97h0c5.79-1.44,8.22-9.02,15.08-9.5,5-.35,4.78-7.98,6.33-11.89h.01Z"/>
      <path d="m1179.27,61.11c-4.43-3.75-12.27-9.04-16.97-3.68-1.75,1.99-2.8,4.24-3.29,6.58h28.92c-.2-.08-.39-.17-.6-.24-2.66-.93-5.83-.77-8.06-2.66Z"/>
      <path d="m1284.16,12.88c-1.49.27-3.03.17-4.43.71-3.39,1.3.61,4.9,2.9,4.76,4.13-.25,6.95-6.46,1.53-5.46h0Z"/>
      <path d="m1245.91,32.73c-3.51.02-8.17,2.42-5.3,6.42,1.62,2.25,3.16,5.76,6.28,5.38,2.28-.28,13.21,3.95,10.46-1.47-2.64-5.21-4.31-10.37-11.44-10.34h0Z"/>
      <path d="m1257.77,18.71c-4.18,2.17-4.57,8.73-2.24,12.29,1.96,2.99,5.29,5.12,6.33,8.62,2.11,7.15,8.85,17.01,15.57,8.53,2.73-3.45,2.11-8.18,2.49-12.35,1.06-11.41-10.39-23.19-22.15-17.09h0Z"/>
      <path d="m1315.14,53.35c-2.35-1.86-5.74-2.44-7.11-5.33-2.15-4.56-5.25-9.67-11.26-8.42-13.33,2.77-15.29,11.58-3.61,18.18,3.35,1.89,6.38,4.65,9.87,6.24h12.3c4.62-1.9,5.94-5.81-.19-10.66h0Z"/>
      <path d="m1312.94,23.78c-4.88.01-3.15,8.18-4.04,11.82-1.01,4.13,4,7.35,7.8,5.88,6.17-2.37,7.37-9.13,5.69-15.24-1.07-3.89-6.45-2.47-9.46-2.46h.01Z"/>
      <path d="m1303.8,22.77c-2.2-.97-3.27-3.68-5.82-3.76-4.95-.15-14.93,3.06-14.45,9.47.42,5.63,3.75,10.32,9.88,8.45,2.73-.84,5.84-.92,7.89-3.22,1.99-2.23,6.88-2.79,5.81-6.79-.5-1.88-1.54-3.37-3.31-4.15h0Z"/>
      <path d="m1243.37,47.81c-10.67-.29-12.86,7.75-8.51,16.2h19.01c6.63-10.29-.3-15.93-10.5-16.2Z"/>
      <path d="m1293.52,10.29c3.66,5.16,10.56,8.69,16.68,8.98,8.17.39,12.57-2.52,15.48-10.29.97-2.57,2.47-5.86,3.18-8.98h-33.65c-3.22,2.53-4.54,6.26-1.69,10.28h0Z"/>
      <path d="m1233.34.98c5.53,2.64,11.64,3.72,17.36,6.08,2.76,1.14,5.76,4.23,8.8,2.87,3.64-1.63,5.16-6.41,3.27-9.92h-30.69c.32.38.72.71,1.26.97h0Z"/>
      <path d="m1327.3,58.48c-2.76.19-3.52,3.14-2.87,5.53h5.23c.02-2.5-.95-5.63-2.36-5.53Z"/>
      <path d="m1278.17,6.31c3.37-1.01,5.37-3.89,7.73-6.3h-18.4c.25.22.52.44.82.64,3.13,2.11,5.32,7.01,9.85,5.66h0Z"/>
      <path d="m1281.77,61.11c-4.43-3.75-12.27-9.04-16.97-3.68-1.74,1.99-2.8,4.24-3.29,6.58h28.92c-.2-.08-.39-.17-.6-.24-2.66-.93-5.83-.77-8.06-2.66Z"/>
      <path d="m1386.66,12.88c-1.49.27-3.03.17-4.43.71-3.39,1.3.61,4.9,2.9,4.76,4.13-.25,6.95-6.46,1.53-5.46h0Z"/>
      <path d="m1348.41,32.73c-3.51.02-8.17,2.42-5.3,6.42,1.62,2.25,3.16,5.76,6.28,5.38,2.28-.28,13.2,3.95,10.46-1.47-2.64-5.21-4.31-10.37-11.44-10.34h0Z"/>
      <path d="m1360.27,18.71c-4.18,2.17-4.57,8.73-2.24,12.29,1.96,2.99,5.29,5.12,6.33,8.62,2.11,7.15,8.85,17.01,15.57,8.53,2.73-3.45,2.11-8.18,2.49-12.35,1.06-11.41-10.39-23.19-22.15-17.09h0Z"/>
      <path d="m1417.64,53.35c-2.35-1.86-5.74-2.44-7.11-5.33-2.15-4.56-5.25-9.67-11.26-8.42-13.33,2.77-15.29,11.58-3.61,18.18,3.35,1.89,6.38,4.65,9.87,6.24h12.3c4.62-1.9,5.94-5.81-.19-10.66h0Z"/>
      <path d="m1415.44,23.78c-4.88.01-3.15,8.18-4.04,11.82-1.01,4.13,4,7.35,7.8,5.88,6.17-2.37,7.37-9.13,5.69-15.24-1.07-3.89-6.45-2.47-9.46-2.46h.01Z"/>
      <path d="m1406.3,22.77c-2.2-.97-3.27-3.68-5.82-3.76-4.95-.15-14.93,3.06-14.45,9.47.42,5.63,3.75,10.32,9.88,8.45,2.73-.84,5.84-.92,7.89-3.22,1.99-2.23,6.88-2.79,5.81-6.79-.5-1.88-1.54-3.37-3.31-4.15h0Z"/>
      <path d="m1345.87,47.81c-10.67-.29-12.86,7.75-8.51,16.2h19.01c6.63-10.29-.3-15.93-10.5-16.2Z"/>
      <path d="m1396.02,10.29c3.66,5.16,10.56,8.69,16.68,8.98,8.17.39,12.57-2.52,15.48-10.29.97-2.57,2.47-5.86,3.18-8.98h-33.65c-3.22,2.53-4.54,6.26-1.69,10.28h0Z"/>
      <path d="m1353.91,14.58c1.43-3.61-2.18-3.93-4.94-3.6-3.8.45-7.6-.72-11.41-.83-1.88-.06-3.57.53-5.06,1.52h0c-2.89,1.93-4.99,5.39-6.11,8.65-1.28,3.72-2.23,7.76-.73,11.67,1.12,2.91,4.12,4.64,6.83,3.97h0c5.79-1.44,8.22-9.02,15.08-9.5,5-.35,4.78-7.98,6.33-11.89h.01Z"/>
      <path d="m1335.84.98c5.53,2.64,11.64,3.72,17.36,6.08,2.76,1.14,5.76,4.23,8.8,2.87,3.64-1.63,5.16-6.41,3.27-9.92h-30.69c.32.38.72.71,1.26.97h0Z"/>
      <path d="m1429.8,58.48c-2.76.19-3.52,3.14-2.87,5.53h5.23c.02-2.5-.95-5.63-2.36-5.53Z"/>
      <path d="m1380.67,6.31c3.37-1.01,5.37-3.89,7.73-6.3h-18.4c.25.22.52.44.82.64,3.13,2.11,5.32,7.01,9.85,5.66h0Z"/>
      <path d="m1456.41,14.58c1.43-3.61-2.18-3.93-4.94-3.6-3.8.45-7.6-.72-11.41-.83-1.88-.06-3.57.53-5.06,1.52h0c-2.89,1.93-4.99,5.39-6.11,8.65-1.28,3.72-2.23,7.76-.73,11.67,1.12,2.91,4.12,4.64,6.83,3.97h0c5.79-1.44,8.22-9.02,15.08-9.5,4.99-.35,4.78-7.98,6.33-11.89h.01Z"/>
      <path d="m1384.27,61.11c-4.43-3.75-12.27-9.04-16.97-3.68-1.75,1.99-2.8,4.24-3.29,6.58h28.92c-.2-.08-.39-.17-.6-.24-2.66-.93-5.83-.77-8.06-2.66Z"/>
      <path d="m1489.16,12.88c-1.49.27-3.03.17-4.43.71-3.39,1.3.61,4.9,2.9,4.76,4.13-.25,6.95-6.46,1.53-5.46h0Z"/>
      <path d="m1450.91,32.73c-3.51.02-8.17,2.42-5.3,6.42,1.62,2.25,3.16,5.76,6.28,5.38,2.28-.28,13.2,3.95,10.46-1.47-2.64-5.21-4.31-10.37-11.44-10.34h0Z"/>
      <path d="m1462.77,18.71c-4.18,2.17-4.57,8.73-2.24,12.29,1.96,2.99,5.29,5.12,6.33,8.62,2.11,7.15,8.85,17.01,15.57,8.53,2.74-3.45,2.11-8.18,2.49-12.35,1.06-11.41-10.39-23.19-22.15-17.09h0Z"/>
      <path d="m1520.14,53.35c-2.35-1.86-5.74-2.44-7.11-5.33-2.15-4.56-5.25-9.67-11.26-8.42-13.33,2.77-15.29,11.58-3.61,18.18,3.35,1.89,6.38,4.65,9.87,6.24h12.3c4.62-1.9,5.94-5.81-.19-10.66h0Z"/>
      <path d="m1517.94,23.78c-4.88.01-3.15,8.18-4.04,11.82-1.01,4.13,4,7.35,7.8,5.88,6.17-2.37,7.37-9.13,5.69-15.24-1.07-3.89-6.45-2.47-9.46-2.46h.01Z"/>
      <path d="m1508.8,22.77c-2.2-.97-3.27-3.68-5.82-3.76-4.95-.15-14.93,3.06-14.45,9.47.42,5.63,3.75,10.32,9.88,8.45,2.73-.84,5.84-.92,7.89-3.22,1.99-2.23,6.88-2.79,5.81-6.79-.5-1.88-1.54-3.37-3.31-4.15h0Z"/>
      <path d="m1448.37,47.81c-10.67-.29-12.86,7.75-8.51,16.2h19.01c6.63-10.29-.3-15.93-10.5-16.2Z"/>
      <path d="m1498.52,10.29c3.66,5.16,10.56,8.69,16.68,8.98,8.17.39,12.57-2.52,15.48-10.29.97-2.57,2.47-5.86,3.18-8.98h-33.65c-3.22,2.53-4.54,6.26-1.69,10.28h0Z"/>
      <path d="m1438.34.98c5.53,2.64,11.64,3.72,17.36,6.08,2.76,1.14,5.76,4.23,8.8,2.87,3.64-1.63,5.16-6.41,3.27-9.92h-30.69c.32.38.72.71,1.26.97h0Z"/>
      <path d="m1532.3,58.48c-2.76.19-3.52,3.14-2.87,5.53h5.23c.02-2.5-.95-5.63-2.36-5.53Z"/>
      <path d="m1483.17,6.31c3.37-1.01,5.37-3.89,7.73-6.3h-18.4c.25.22.52.44.82.64,3.13,2.11,5.32,7.01,9.85,5.66h0Z"/>
      <path d="m1486.77,61.11c-4.43-3.75-12.27-9.04-16.97-3.68-1.74,1.99-2.8,4.24-3.29,6.58h28.92c-.2-.08-.39-.17-.6-.24-2.66-.93-5.83-.77-8.06-2.66Z"/>
      <path d="m1591.66,12.88c-1.49.27-3.03.17-4.43.71-3.39,1.3.61,4.9,2.9,4.76,4.13-.25,6.95-6.46,1.53-5.46h0Z"/>
      <path d="m1553.41,32.73c-3.51.02-8.17,2.42-5.3,6.42,1.62,2.25,3.16,5.76,6.28,5.38,2.28-.28,13.2,3.95,10.46-1.47-2.64-5.21-4.31-10.37-11.44-10.34h0Z"/>
      <path d="m1565.27,18.71c-4.18,2.17-4.57,8.73-2.24,12.29,1.96,2.99,5.29,5.12,6.33,8.62,2.11,7.15,8.85,17.01,15.57,8.53,2.74-3.45,2.11-8.18,2.49-12.35,1.06-11.41-10.39-23.19-22.15-17.09h0Z"/>
      <path d="m1622.64,53.35c-2.35-1.86-5.74-2.44-7.11-5.33-2.15-4.56-5.25-9.67-11.26-8.42-13.33,2.77-15.29,11.58-3.61,18.18,3.35,1.89,6.38,4.65,9.87,6.24h12.3c4.62-1.9,5.94-5.81-.19-10.66h0Z"/>
      <path d="m1620.44,23.78c-4.88.01-3.15,8.18-4.04,11.82-1.01,4.13,4,7.35,7.8,5.88,6.17-2.37,7.37-9.13,5.69-15.24-1.07-3.89-6.45-2.47-9.46-2.46h.01Z"/>
      <path d="m1611.3,22.77c-2.2-.97-3.27-3.68-5.82-3.76-4.95-.15-14.93,3.06-14.45,9.47.42,5.63,3.75,10.32,9.88,8.45,2.73-.84,5.84-.92,7.89-3.22,1.99-2.23,6.88-2.79,5.81-6.79-.5-1.88-1.54-3.37-3.31-4.15h0Z"/>
      <path d="m1550.87,47.81c-10.67-.29-12.86,7.75-8.51,16.2h19.01c6.63-10.29-.3-15.93-10.5-16.2Z"/>
      <path d="m1601.02,10.29c3.66,5.16,10.56,8.69,16.68,8.98,8.17.39,12.57-2.52,15.48-10.29.97-2.57,2.47-5.86,3.18-8.98h-33.65c-3.22,2.53-4.54,6.26-1.69,10.28h0Z"/>
      <path d="m1558.91,14.58c1.43-3.61-2.18-3.93-4.94-3.6-3.8.45-7.6-.72-11.41-.83-1.88-.06-3.57.53-5.06,1.52h0c-2.89,1.93-4.99,5.39-6.11,8.65-1.28,3.72-2.23,7.76-.73,11.67,1.12,2.91,4.12,4.64,6.83,3.97h0c5.79-1.44,8.22-9.02,15.08-9.5,5-.35,4.78-7.98,6.33-11.89h.01Z"/>
      <path d="m1540.84.98c5.53,2.64,11.64,3.72,17.36,6.08,2.76,1.14,5.76,4.23,8.8,2.87,3.64-1.63,5.16-6.41,3.27-9.92h-30.69c.32.38.72.71,1.26.97h0Z"/>
      <path d="m1634.8,58.48c-2.76.19-3.52,3.14-2.87,5.53h5.23c.02-2.5-.95-5.63-2.36-5.53Z"/>
      <path d="m1585.67,6.31c3.37-1.01,5.37-3.89,7.73-6.3h-18.4c.25.22.52.44.82.64,3.13,2.11,5.32,7.01,9.85,5.66h0Z"/>
      <path d="m1633.89,20.33c-1.28,3.72-2.23,7.76-.73,11.67,1.12,2.91,4.12,4.64,6.83,3.97V11.68c-2.89,1.93-4.99,5.39-6.11,8.65h.01Z"/>
      <path d="m1589.27,61.11c-4.43-3.75-12.27-9.04-16.97-3.68-1.74,1.99-2.8,4.24-3.29,6.58h28.92c-.2-.08-.39-.17-.6-.24-2.66-.93-5.83-.77-8.06-2.66Z"/>
    </g>
  </g>
</svg>