<?xml version="1.0" encoding="UTF-8"?>
<svg id="Layer_2" data-name="Layer 2" xmlns="http://www.w3.org/2000/svg" viewBox="0 0 1640 64.14">
  <defs>
    <style>
      .cls-1 {
        fill: #fff;
      }
    </style>
  </defs>
  <g id="Layer_1-2" data-name="Layer 1">
    <polygon class="cls-1" points="1101.69 64.09 1101.78 64 1101.61 64 1101.69 64.09"/>
    <polygon class="cls-1" points="930.57 64.09 930.65 64 930.48 64 930.57 64.09"/>
    <polygon class="cls-1" points="1272.94 64.08 1273.02 64 1272.86 64 1272.94 64.08"/>
    <polygon class="cls-1" points="1444.06 64.08 1444.14 64 1443.98 64 1444.06 64.08"/>
    <polygon class="cls-1" points="1615.3 64.08 1615.38 64 1615.22 64 1615.3 64.08"/>
    <polygon class="cls-1" points="759.33 64.09 759.41 64 759.24 64 759.33 64.09"/>
    <polygon class="cls-1" points="74.65 64.14 74.79 64 74.51 64 74.65 64.14"/>
    <polygon class="cls-1" points="245.89 64.14 246.03 64 245.75 64 245.89 64.14"/>
    <polygon class="cls-1" points="588.21 64.09 588.29 64 588.12 64 588.21 64.09"/>
    <polygon class="cls-1" points="417.01 64.14 417.15 64 416.87 64 417.01 64.14"/>
    <path class="cls-1" d="m1198.02,53.38l-14.27-14.27,3.57-3.57h0l-14.27-14.27-3.57,3.57-7.14-7.14h0l-7.13-7.13,3.57-3.57-7-7h-21.41l3.43,3.43-3.57,3.57,14.27,14.27,3.57-3.57,14.27,14.27-3.57,3.57,3.57-3.57v7.14l-.71-.71.71.71h0c4.23,4.23,10.7,10.7,10.7,10.7l3.57-3.57,14.27,14.27-3.49,3.49h28.38l-14.19-14.19-3.57,3.57h0Z"/>
    <path class="cls-1" d="m342.09,53.44l-14.27-14.27,3.57-3.57h0l-14.27-14.27-3.57,3.57-7.14-7.14v-.13l-7-7,3.57-3.57-7.06-7.06h-21.41l3.49,3.49-3.57,3.57,14.27,14.27,3.57-3.57,14.27,14.27-3.57,3.57,3.57-3.57v7.14l-.71-.71.71.71v.13c4.23,4.23,10.57,10.57,10.57,10.57l3.57-3.57,14.27,14.27-3.43,3.43h28.26l-14.13-14.13-3.57,3.57h.01Z"/>
    <polygon class="cls-1" points="734.35 60.52 720.08 46.25 723.65 42.68 709.38 28.41 705.81 31.98 691.54 17.7 695.11 14.14 680.97 0 680.7 0 677.27 3.43 673.84 0 659.57 0 670.13 10.57 666.57 14.14 680.84 28.41 684.41 24.84 698.68 39.11 695.11 42.68 709.38 56.95 712.95 53.38 723.57 64 744.97 64 737.92 56.95 734.35 60.52"/>
    <polygon class="cls-1" points="648.73 60.52 648.73 53.38 648.73 53.38 648.73 53.25 638.15 42.68 634.59 46.25 620.32 31.98 623.88 28.41 623.88 28.41 609.61 14.14 606.04 17.7 591.77 3.43 595.21 0 566.93 0 581.07 14.14 584.64 10.57 598.91 24.84 595.34 28.41 609.61 42.68 613.18 39.11 627.45 53.38 623.88 56.95 630.93 64 652.21 64 648.73 60.52 648.73 60.52"/>
    <path class="cls-1" d="m684.41,53.38l-14.27-14.27,3.57-3.57h0l-14.27-14.27-3.57,3.57-7.14-7.14v-.13l-7-7,3.57-3.57-7.01-7h-21.41l3.43,3.43-3.57,3.57,14.27,14.27,3.57-3.57,14.27,14.27-3.57,3.57,3.57-3.57v7.14l-.71-.71.71.71v.13c4.23,4.23,10.57,10.57,10.57,10.57l3.57-3.57,14.27,14.27-3.48,3.48h28.37l-14.19-14.19-3.57,3.57h.02Z"/>
    <polygon class="cls-1" points="819.97 60.52 819.97 53.38 819.97 53.38 819.97 53.37 809.28 42.68 805.71 46.25 791.44 31.98 795.01 28.41 795.01 28.41 780.74 14.14 777.17 17.7 762.9 3.43 766.33 0 738.06 0 752.19 14.14 755.76 10.57 770.03 24.84 766.46 28.41 780.74 42.68 784.3 39.11 798.58 53.38 795.01 56.95 802.06 64 823.45 64 819.97 60.52 819.97 60.52"/>
    <polygon class="cls-1" points="905.59 60.52 891.32 46.25 894.89 42.68 880.62 28.41 877.05 31.98 862.78 17.7 866.35 14.14 852.21 0 851.94 0 848.51 3.43 845.07 0 830.8 0 841.37 10.57 837.8 14.14 852.08 28.41 855.64 24.84 869.91 39.11 866.35 42.68 880.62 56.95 884.19 53.38 894.8 64 916.21 64 909.16 56.95 905.59 60.52"/>
    <path class="cls-1" d="m855.64,53.38l-14.27-14.27,3.57-3.57h0l-14.27-14.27-3.57,3.57-7.14-7.14v-.02l-7.12-7.12,3.57-3.57-7-6.99h-21.41l3.43,3.43-3.57,3.57,14.27,14.27,3.57-3.57,14.27,14.27-3.57,3.57,3.57-3.57v7.14h0v.02c4.23,4.23,10.69,10.69,10.69,10.69l3.57-3.57,14.27,14.27-3.48,3.48h28.37l-14.19-14.19-3.57,3.57h0Z"/>
    <polygon class="cls-1" points="392.04 60.57 377.76 46.3 381.33 42.73 367.06 28.46 363.49 32.03 349.22 17.76 352.79 14.19 338.6 0 338.44 0 334.95 3.49 331.46 0 317.19 0 327.81 10.62 324.25 14.19 338.52 28.46 342.09 24.89 356.36 39.17 352.79 42.73 367.06 57 370.63 53.44 381.19 64 402.6 64 395.6 57 392.04 60.57"/>
    <polygon class="cls-1" points="431.28 49.87 417.01 35.6 413.44 39.17 399.17 24.89 402.74 21.33 388.47 7.06 384.9 10.62 374.28 0 352.87 0 359.93 7.06 363.49 3.49 377.76 17.76 374.2 21.33 388.47 35.6 392.04 32.03 406.31 46.3 402.74 49.87 416.87 64 417.15 64 420.58 60.57 424.01 64 438.28 64 427.71 53.44 431.28 49.87"/>
    <polygon class="cls-1" points="944.84 49.81 930.57 35.54 927 39.11 912.73 24.84 916.3 21.27 902.03 7 898.46 10.57 887.89 0 866.48 0 873.48 7 877.05 3.43 891.32 17.7 887.75 21.27 902.03 35.54 905.59 31.98 919.86 46.25 916.3 49.81 930.48 64 930.65 64 934.14 60.52 937.62 64 951.89 64 941.27 53.38 944.84 49.81"/>
    <polygon class="cls-1" points="477.6 60.52 477.6 53.38 477.6 53.38 477.6 53.38 466.96 42.73 463.39 46.3 449.12 32.03 452.69 28.46 452.69 28.46 438.42 14.19 434.85 17.76 420.58 3.49 424.07 0 395.68 0 409.87 14.19 413.44 10.62 427.71 24.89 424.15 28.46 438.42 42.73 441.98 39.17 456.26 53.44 452.69 57.01 459.68 64 481.09 64 477.6 60.52 477.6 60.52"/>
    <path class="cls-1" d="m513.28,53.38l-14.27-14.27,3.57-3.57h0l-14.27-14.27-3.57,3.57-7.14-7.14h0l-7.08-7.08,3.57-3.57-7.05-7.05h-21.41l3.49,3.49-3.57,3.57,14.27,14.27,3.57-3.57,14.27,14.27-3.57,3.57h0l3.57-3.57v7.14l-.89-.89.89.89h0c4.23,4.23,10.64,10.65,10.64,10.65l3.57-3.57,14.27,14.27-3.48,3.48h28.37l-14.19-14.19-3.57,3.57h.01Z"/>
    <polygon class="cls-1" points="602.48 49.81 588.21 35.54 584.64 39.11 570.37 24.84 573.93 21.27 559.66 7 556.1 10.57 545.53 0 524.12 0 531.12 7 534.69 3.43 548.96 17.7 545.39 21.27 559.66 35.54 563.23 31.98 577.5 46.25 573.93 49.81 588.12 64 588.29 64 591.77 60.52 595.26 64 609.53 64 598.91 53.38 602.48 49.81"/>
    <polygon class="cls-1" points="563.23 60.52 548.96 46.25 552.53 42.68 538.26 28.41 534.69 31.98 520.42 17.7 523.98 14.14 509.85 0 509.58 0 506.15 3.43 502.71 0 488.44 0 499.01 10.57 495.44 14.14 509.71 28.41 513.28 24.84 527.55 39.11 523.98 42.68 538.26 56.95 541.82 53.38 552.44 64 573.85 64 566.8 56.95 563.23 60.52"/>
    <polygon class="cls-1" points="773.6 49.81 759.33 35.54 755.76 39.11 741.49 24.84 745.06 21.27 730.79 7 727.22 10.57 716.65 0 695.24 0 702.24 7 705.81 3.43 720.08 17.7 716.52 21.27 730.79 35.54 734.35 31.98 748.63 46.25 745.06 49.81 759.24 64 759.41 64 762.9 60.52 766.38 64 780.65 64 770.03 53.38 773.6 49.81"/>
    <path class="cls-1" d="m1540.38,53.38l-14.27-14.27,3.57-3.57h0l-14.27-14.27-3.57,3.57-7.14-7.14v-.02l-7.12-7.12,3.57-3.57-7-6.99h-21.41l3.43,3.43-3.57,3.57,14.27,14.27,3.57-3.57,14.27,14.27-3.57,3.57,3.57-3.57v7.14h0v.02c4.23,4.23,10.69,10.69,10.69,10.69l3.57-3.57,14.27,14.27-3.49,3.49h28.38l-14.19-14.19-3.57,3.57h0Z"/>
    <polygon class="cls-1" points="991.09 60.52 991.09 53.38 991.09 53.38 991.09 53.25 980.52 42.68 976.95 46.25 962.68 31.98 966.25 28.41 966.25 28.41 951.97 14.14 948.41 17.7 934.14 3.43 937.57 0 909.3 0 923.43 14.14 927 10.57 941.27 24.84 937.7 28.41 951.97 42.68 955.54 39.11 969.81 53.38 966.25 56.95 973.3 64 994.57 64 991.09 60.52 991.09 60.52"/>
    <polygon class="cls-1" points="1590.33 60.51 1576.06 46.24 1579.62 42.67 1565.35 28.4 1561.78 31.97 1547.51 17.7 1551.08 14.13 1536.95 0 1536.67 0 1533.24 3.43 1529.81 0 1515.54 0 1526.11 10.56 1522.54 14.13 1536.81 28.4 1540.38 24.83 1554.65 39.11 1551.08 42.67 1565.35 56.94 1568.92 53.38 1579.54 64 1600.95 64 1593.89 56.94 1590.33 60.51"/>
    <polygon class="cls-1" points="1333.46 60.51 1333.46 53.38 1333.46 53.38 1333.46 53.25 1322.89 42.67 1319.32 46.24 1305.05 31.97 1308.62 28.4 1308.62 28.4 1294.35 14.13 1290.78 17.7 1276.51 3.43 1279.93 0 1251.67 0 1265.8 14.13 1269.37 10.56 1283.64 24.83 1280.07 28.4 1294.35 42.67 1297.91 39.11 1312.19 53.38 1308.62 56.94 1315.67 64 1336.95 64 1333.46 60.51 1333.46 60.51"/>
    <polygon class="cls-1" points="1504.7 60.51 1504.7 53.38 1504.7 53.38 1504.7 53.36 1494.01 42.67 1490.44 46.24 1476.17 31.97 1479.74 28.4 1479.74 28.4 1465.47 14.13 1461.9 17.7 1447.63 3.43 1451.06 0 1422.8 0 1436.93 14.13 1440.5 10.56 1454.77 24.83 1451.2 28.4 1465.47 42.67 1469.04 39.11 1483.31 53.38 1479.74 56.94 1486.8 64 1508.19 64 1504.7 60.51 1504.7 60.51"/>
    <polygon class="cls-1" points="1419.09 60.51 1404.82 46.24 1408.39 42.67 1394.11 28.4 1390.55 31.97 1376.27 17.7 1379.84 14.13 1365.71 0 1365.43 0 1362 3.43 1358.58 0 1344.3 0 1354.87 10.56 1351.3 14.13 1365.57 28.4 1369.14 24.83 1383.41 39.11 1379.84 42.67 1394.11 56.94 1397.68 53.38 1408.3 64 1429.71 64 1422.66 56.94 1419.09 60.51"/>
    <path class="cls-1" d="m1369.14,53.38l-14.27-14.27,3.57-3.57h0l-14.27-14.27-3.57,3.57-7.14-7.14v-.13l-7-7,3.57-3.57-7-7h-21.41l3.43,3.43-3.57,3.57,14.27,14.27,3.57-3.57,14.27,14.27-2.68,2.68,2.68-2.68v7.14h0v.13c4.23,4.23,10.57,10.57,10.57,10.57l3.57-3.57,14.27,14.27-3.49,3.49h28.38l-14.19-14.19-3.57,3.57h0Z"/>
    <polygon class="cls-1" points="1076.72 60.52 1062.45 46.25 1066.01 42.68 1051.74 28.41 1048.17 31.98 1033.9 17.7 1037.47 14.14 1023.33 0 1023.06 0 1019.63 3.43 1016.2 0 1001.93 0 1012.5 10.57 1008.93 14.14 1023.2 28.41 1026.77 24.84 1041.04 39.11 1037.47 42.68 1051.74 56.95 1055.31 53.38 1065.93 64 1087.33 64 1080.28 56.95 1076.72 60.52"/>
    <polygon class="cls-1" points="1287.21 49.81 1272.94 35.54 1269.37 39.11 1255.1 24.83 1258.67 21.27 1244.4 7 1240.83 10.56 1230.27 0 1208.86 0 1215.85 7 1219.42 3.43 1233.69 17.7 1230.13 21.27 1244.4 35.54 1247.96 31.97 1262.24 46.24 1258.67 49.81 1272.86 64 1273.02 64 1276.51 60.51 1279.99 64 1294.27 64 1283.64 53.38 1287.21 49.81"/>
    <polygon class="cls-1" points="1115.96 49.81 1101.69 35.54 1098.12 39.11 1083.85 24.84 1087.42 21.27 1073.15 7 1069.58 10.57 1059.01 0 1037.61 0 1044.61 7 1048.17 3.43 1062.45 17.7 1058.88 21.27 1073.15 35.54 1076.72 31.98 1090.99 46.25 1087.42 49.81 1101.61 64 1101.78 64 1105.26 60.52 1108.74 64 1123.01 64 1112.4 53.38 1115.96 49.81"/>
    <path class="cls-1" d="m1026.77,53.38l-14.27-14.27,3.57-3.57h0l-14.27-14.27-3.57,3.57-7.14-7.14v-.13l-7-7,3.57-3.57-7.01-7h-21.41l3.43,3.43-3.57,3.57,14.27,14.27,3.57-3.57,14.27,14.27-3.57,3.57h0l3.57-3.57v7.14l-.89-.89.89.89v.13c4.23,4.23,10.57,10.57,10.57,10.57l3.57-3.57,14.27,14.27-3.48,3.48h28.37l-14.19-14.19-3.57,3.57h.02Z"/>
    <polygon class="cls-1" points="1162.34 60.51 1162.34 53.38 1162.34 53.38 1162.34 53.38 1151.64 42.68 1148.07 46.25 1133.8 31.98 1137.37 28.41 1137.37 28.41 1123.1 14.14 1119.53 17.7 1105.26 3.43 1108.69 0 1080.42 0 1094.56 14.14 1098.12 10.57 1112.4 24.84 1108.83 28.41 1123.1 42.68 1126.67 39.11 1140.94 53.38 1137.37 56.95 1144.42 64 1165.82 64 1162.34 60.51 1162.34 60.51"/>
    <polygon class="cls-1" points="1247.96 60.51 1233.69 46.24 1237.26 42.67 1222.99 28.4 1219.42 31.97 1205.15 17.7 1208.72 14.13 1194.59 0 1194.31 0 1190.88 3.43 1187.45 0 1173.18 0 1183.74 10.56 1180.18 14.13 1194.45 28.4 1198.02 24.83 1212.29 39.11 1208.72 42.67 1222.99 56.94 1226.56 53.38 1237.18 64 1258.59 64 1251.53 56.94 1247.96 60.51"/>
    <polygon class="cls-1" points="1458.33 49.81 1444.06 35.54 1440.5 39.11 1426.22 24.83 1429.79 21.27 1415.52 7 1411.95 10.56 1401.39 0 1379.98 0 1386.98 7 1390.55 3.43 1404.82 17.7 1401.25 21.27 1415.52 35.54 1419.09 31.97 1433.36 46.24 1429.79 49.81 1443.98 64 1444.14 64 1447.63 60.51 1451.12 64 1465.39 64 1454.77 53.38 1458.33 49.81"/>
    <polygon class="cls-1" points="49.67 60.57 35.4 46.3 38.97 42.73 24.7 28.46 21.13 32.03 6.86 17.76 10.43 14.19 0 3.76 0 25.17 14 39.17 10.43 42.73 24.7 57 28.27 53.44 38.83 64 60.24 64 53.24 57 49.67 60.57"/>
    <path class="cls-1" d="m170.96,53.44l-14.27-14.27,3.57-3.57h0l-14.27-14.27-3.57,3.57-7.14-7.14v-.02l-7.12-7.12,3.57-3.57-7.05-7.05h-21.41l3.49,3.49-3.57,3.57,14.27,14.27,3.57-3.57,14.27,14.27-3.57,3.57,3.57-3.57v7.14l-.71-.71.71.71v.02c4.23,4.23,10.69,10.69,10.69,10.69l3.57-3.57,14.27,14.27-3.43,3.43h28.26l-14.13-14.13-3.57,3.57h0Z"/>
    <polygon class="cls-1" points="260.16 49.87 245.89 35.6 242.32 39.17 228.05 24.89 231.61 21.33 217.34 7.06 213.78 10.62 203.15 0 181.75 0 188.8 7.06 192.37 3.49 206.64 17.76 203.07 21.33 217.34 35.6 220.91 32.03 235.18 46.3 231.62 49.87 245.75 64 246.03 64 249.45 60.57 252.88 64 267.15 64 256.59 53.44 260.16 49.87"/>
    <polygon class="cls-1" points="220.91 60.57 206.64 46.3 210.21 42.73 195.94 28.46 192.37 32.03 178.1 17.76 181.67 14.19 167.47 0 167.31 0 163.83 3.49 160.34 0 146.07 0 156.69 10.62 153.12 14.19 167.39 28.46 170.96 24.89 185.23 39.17 181.67 42.73 195.94 57 199.5 53.44 210.07 64 231.47 64 224.48 57 220.91 60.57"/>
    <polygon class="cls-1" points="135.28 60.57 135.28 53.44 135.28 53.44 135.28 53.42 124.6 42.73 121.03 46.3 106.76 32.03 110.33 28.46 110.33 28.46 96.05 14.19 92.49 17.76 78.22 3.49 81.7 0 53.32 0 67.51 14.19 71.08 10.62 85.35 24.89 81.78 28.46 96.05 42.73 99.62 39.17 113.89 53.44 110.33 57.01 117.32 64 138.71 64 135.28 60.57 135.28 60.57"/>
    <polygon class="cls-1" points="88.92 49.87 74.65 35.6 71.08 39.17 56.81 24.89 60.38 21.33 46.11 7.06 42.54 10.62 31.91 0 10.51 0 17.56 7.06 21.13 3.49 35.4 17.76 31.83 21.33 46.11 35.6 49.67 32.03 63.94 46.3 60.38 49.87 74.51 64 74.79 64 78.22 60.57 81.64 64 95.91 64 85.35 53.44 88.92 49.87"/>
    <polygon class="cls-1" points="1608.17 14.13 1611.73 10.56 1626.01 24.83 1622.44 28.4 1636.71 42.67 1640 39.38 1640 17.42 1636.71 14.13 1633.14 17.7 1618.87 3.43 1622.3 0 1594.04 0 1608.17 14.13"/>
    <polygon class="cls-1" points="1629.57 49.81 1615.3 35.54 1611.73 39.11 1597.46 24.83 1601.03 21.27 1586.76 7 1583.19 10.56 1572.63 0 1551.22 0 1558.22 7 1561.78 3.43 1576.06 17.7 1572.49 21.27 1586.76 35.54 1590.33 31.97 1604.6 46.24 1601.03 49.81 1615.22 64 1615.38 64 1618.87 60.51 1622.36 64 1636.63 64 1626.01 53.38 1629.57 49.81"/>
    <polygon class="cls-1" points="306.41 60.57 306.41 53.44 306.41 53.44 306.41 53.31 295.84 42.73 292.27 46.3 278 32.03 281.56 28.46 281.56 28.46 267.29 14.19 263.73 17.76 249.45 3.49 252.94 0 224.56 0 238.75 14.19 242.32 10.62 256.59 24.89 253.02 28.46 267.29 42.73 270.86 39.17 285.13 53.44 281.56 57.01 288.56 64 309.84 64 306.41 60.57 306.41 60.57"/>
    <polygon class="cls-1" points="0 53.16 0 64 17.42 64 3.29 49.87 0 53.16"/>
    <polygon points="24.7 57 10.43 42.73 14 39.17 0 25.17 0 53.16 3.29 49.87 17.42 64 38.83 64 28.27 53.44 24.7 57"/>
    <polygon points="63.94 46.3 49.67 32.03 46.11 35.6 31.83 21.33 35.4 17.76 21.13 3.49 17.56 7.06 10.51 0 0 0 0 3.76 10.43 14.19 6.86 17.76 21.13 32.03 24.7 28.46 38.97 42.73 35.4 46.3 49.67 60.57 53.24 57 60.24 64 74.51 64 60.38 49.87 63.94 46.3"/>
    <polygon points="74.79 64 81.64 64 78.22 60.57 74.79 64"/>
    <polygon points="195.94 57 181.67 42.73 185.23 39.17 170.96 24.89 167.39 28.46 153.12 14.19 156.69 10.62 146.07 0 124.68 0 131.73 7.06 128.17 10.62 135.28 17.74 135.28 17.76 142.42 24.89 145.99 21.33 160.26 35.6 160.26 35.6 156.69 39.17 170.96 53.44 174.53 49.87 188.66 64 210.07 64 199.5 53.44 195.94 57"/>
    <path d="m149.56,46.3l-3.57,3.57s-6.46-6.46-10.69-10.69v-.02l-.71-.71.71.71v-7.14l-3.57,3.57,3.57-3.57-14.27-14.27-3.57,3.57-14.27-14.27,3.57-3.57-3.49-3.48h-21.57l-3.49,3.49,14.27,14.27,3.57-3.57,14.27,14.27h0l-3.57,3.57,14.27,14.27,3.57-3.57,10.69,10.69v.02h0v7.14h0l3.43,3.43h21.69l3.43-3.43-14.27-14.27h0Z"/>
    <polygon points="113.89 53.44 99.62 39.17 96.05 42.73 81.78 28.46 85.35 24.89 71.08 10.62 67.51 14.19 53.32 0 31.91 0 42.54 10.62 46.11 7.06 60.38 21.33 56.81 24.89 71.08 39.17 74.65 35.6 88.92 49.87 85.35 53.44 95.91 64 117.32 64 110.33 57.01 113.89 53.44"/>
    <polygon points="246.03 64 252.88 64 249.45 60.57 246.03 64"/>
    <polygon points="167.31 0 160.34 0 163.83 3.49 167.31 0"/>
    <polygon points="235.18 46.3 220.91 32.03 217.34 35.6 203.07 21.33 206.64 17.76 192.37 3.49 188.8 7.06 181.75 0 167.47 0 181.67 14.19 178.1 17.76 192.37 32.03 195.94 28.46 210.21 42.73 206.64 46.3 220.91 60.57 224.48 57 231.47 64 245.75 64 231.62 49.87 235.18 46.3"/>
    <polygon points="367.06 57 352.79 42.73 356.36 39.17 342.09 24.89 338.52 28.46 324.25 14.19 327.81 10.62 317.19 0 295.92 0 302.97 7.06 299.4 10.62 306.41 17.63 306.41 17.76 313.54 24.89 317.11 21.33 331.38 35.6 331.38 35.6 327.81 39.17 342.09 53.44 345.65 49.87 359.78 64 381.19 64 370.63 53.44 367.06 57"/>
    <path d="m320.68,46.3l-3.57,3.57s-6.34-6.34-10.57-10.57v-.13l-.71-.71.71.71v-7.14l-3.57,3.57,3.57-3.57-14.27-14.27-3.57,3.57-14.27-14.27,3.57-3.57-3.49-3.49h-21.57l-3.49,3.49,14.27,14.27,3.57-3.57,14.27,14.27h0l-3.57,3.57,14.27,14.27,3.57-3.57,10.57,10.57v.13h0v7.14h0l3.43,3.43h21.69l3.43-3.43-14.27-14.27Z"/>
    <polygon points="285.13 53.44 270.86 39.17 267.29 42.73 253.02 28.46 256.59 24.89 242.32 10.62 238.75 14.19 224.56 0 203.15 0 213.78 10.62 217.34 7.06 231.61 21.33 228.05 24.89 242.32 39.17 245.89 35.6 260.16 49.87 256.59 53.44 267.15 64 288.56 64 281.56 57.01 285.13 53.44"/>
    <polygon points="338.44 0 331.46 0 334.95 3.49 338.44 0"/>
    <polygon points="417.15 64 424.01 64 420.58 60.57 417.15 64"/>
    <polygon points="406.31 46.3 392.04 32.03 388.47 35.6 374.2 21.33 377.76 17.76 363.49 3.49 359.93 7.06 352.87 0 338.6 0 352.79 14.19 349.22 17.76 363.49 32.03 367.06 28.46 381.33 42.73 377.76 46.3 392.04 60.57 395.6 57 402.6 64 416.87 64 402.74 49.87 406.31 46.3"/>
    <polygon points="538.26 56.95 523.98 42.68 527.55 39.11 513.28 24.84 509.71 28.41 495.44 14.14 499.01 10.57 488.44 0 467.04 0 474.1 7.06 470.53 10.62 477.6 17.7 477.6 17.7 484.74 24.84 488.31 21.27 502.58 35.54 502.58 35.54 499.01 39.11 513.28 53.38 516.85 49.81 531.03 64 552.44 64 541.82 53.38 538.26 56.95"/>
    <path d="m491.87,46.25l-3.57,3.57s-6.42-6.42-10.64-10.64h0l-.89-.9.89.89v-7.14l-3.57,3.57h0l3.57-3.57-14.27-14.27-3.57,3.57-14.27-14.27,3.57-3.57-3.49-3.49h-21.57l-3.49,3.49,14.27,14.27,3.57-3.57,14.27,14.27h0l-3.57,3.57,14.27,14.27,3.57-3.57,10.64,10.64h0v7.14h0l3.48,3.48h21.58l3.48-3.48-14.27-14.27h0Z"/>
    <polygon points="456.26 53.44 441.98 39.17 438.42 42.73 424.15 28.46 427.71 24.89 413.44 10.62 409.87 14.19 395.68 0 374.28 0 384.9 10.62 388.47 7.06 402.74 21.33 399.17 24.89 413.44 39.17 417.01 35.6 431.28 49.87 427.71 53.44 438.28 64 459.68 64 452.69 57.01 456.26 53.44"/>
    <polygon points="509.58 0 502.71 0 506.15 3.43 509.58 0"/>
    <polygon points="577.5 46.25 563.23 31.98 559.66 35.54 545.39 21.27 548.96 17.7 534.69 3.43 531.12 7 524.12 0 509.85 0 523.98 14.14 520.42 17.7 534.69 31.98 538.26 28.41 552.53 42.68 548.96 46.25 563.23 60.52 566.8 56.95 573.85 64 588.12 64 573.93 49.81 577.5 46.25"/>
    <polygon points="588.29 64 595.26 64 591.77 60.52 588.29 64"/>
    <polygon points="709.38 56.95 695.11 42.68 698.68 39.11 684.41 24.84 680.84 28.41 666.57 14.14 670.13 10.57 659.57 0 638.29 0 645.29 7 641.72 10.57 648.73 17.57 648.73 17.7 655.86 24.84 659.43 21.27 673.7 35.54 673.7 35.54 670.13 39.11 684.41 53.38 687.97 49.81 702.16 64 723.57 64 712.95 53.38 709.38 56.95"/>
    <path d="m663,46.25l-3.57,3.57s-6.34-6.34-10.57-10.57v-.13l-.71-.71.71.71v-7.14l-3.57,3.57,3.57-3.57-14.27-14.27-3.57,3.57-14.27-14.27,3.57-3.57-3.44-3.44h-21.68l-3.43,3.43,14.27,14.27,3.57-3.57,14.27,14.27h0l-3.57,3.57,14.27,14.27,3.57-3.57,10.57,10.57v.13h0v7.14h0l3.48,3.48h21.58l3.48-3.48-14.27-14.27h0Z"/>
    <polygon points="627.45 53.38 613.18 39.11 609.61 42.68 595.34 28.41 598.91 24.84 584.64 10.57 581.07 14.14 566.93 0 545.53 0 556.1 10.57 559.66 7 573.93 21.27 570.37 24.84 584.64 39.11 588.21 35.54 602.48 49.81 598.91 53.38 609.53 64 630.93 64 623.88 56.95 627.45 53.38"/>
    <polygon points="680.7 0 673.84 0 677.27 3.43 680.7 0"/>
    <polygon points="748.63 46.25 734.35 31.98 730.79 35.54 716.52 21.27 720.08 17.7 705.81 3.43 702.24 7 695.24 0 680.97 0 695.11 14.14 691.54 17.7 705.81 31.98 709.38 28.41 723.65 42.68 720.08 46.25 734.35 60.52 737.92 56.95 744.97 64 759.24 64 745.06 49.81 748.63 46.25"/>
    <polygon points="759.41 64 766.38 64 762.9 60.52 759.41 64"/>
    <polygon points="880.62 56.95 866.35 42.68 869.91 39.11 855.64 24.84 852.08 28.41 837.8 14.14 841.37 10.57 830.8 0 809.41 0 816.41 7 812.85 10.57 819.97 17.69 819.97 17.7 827.1 24.84 830.67 21.27 844.94 35.54 844.94 35.54 841.37 39.11 855.64 53.38 859.21 49.81 873.4 64 894.8 64 884.19 53.38 880.62 56.95"/>
    <path d="m834.24,46.25l-3.57,3.57s-6.46-6.46-10.69-10.69v-.02h0v-7.14l-3.57,3.57,3.57-3.57-14.27-14.27-3.57,3.57-14.27-14.27,3.57-3.57-3.43-3.43h-21.68l-3.43,3.43,14.27,14.27,3.57-3.57,14.27,14.27h0l-3.57,3.57,14.27,14.27,3.57-3.57,10.69,10.69v.02h0v7.14h0l3.48,3.48h21.58l3.48-3.48-14.27-14.27h0Z"/>
    <polygon points="798.58 53.38 784.3 39.11 780.74 42.68 766.46 28.41 770.03 24.84 755.76 10.57 752.19 14.14 738.06 0 716.65 0 727.22 10.57 730.79 7 745.06 21.27 741.49 24.84 755.76 39.11 759.33 35.54 773.6 49.81 770.03 53.38 780.65 64 802.06 64 795.01 56.95 798.58 53.38"/>
    <polygon points="851.94 0 845.07 0 848.51 3.43 851.94 0"/>
    <polygon points="930.65 64 937.62 64 934.14 60.52 930.65 64"/>
    <polygon points="919.86 46.25 905.59 31.98 902.03 35.54 887.75 21.27 891.32 17.7 877.05 3.43 873.48 7 866.48 0 852.21 0 866.35 14.14 862.78 17.7 877.05 31.98 880.62 28.41 894.89 42.68 891.32 46.25 905.59 60.52 909.16 56.95 916.21 64 930.48 64 916.3 49.81 919.86 46.25"/>
    <polygon points="1051.74 56.95 1037.47 42.68 1041.04 39.11 1026.77 24.84 1023.2 28.41 1008.93 14.14 1012.5 10.57 1001.93 0 980.65 0 987.65 7 984.08 10.57 991.09 17.57 991.09 17.7 998.22 24.84 1001.79 21.27 1016.06 35.54 1016.06 35.54 1012.5 39.11 1026.77 53.38 1030.33 49.81 1044.52 64 1065.93 64 1055.31 53.38 1051.74 56.95"/>
    <path d="m1005.36,46.25l-3.57,3.57s-6.34-6.34-10.57-10.57v-.13l-.89-.89.89.89v-7.14l-3.57,3.57h0l3.57-3.57-14.27-14.27-3.57,3.57-14.27-14.27,3.57-3.57-3.44-3.44h-21.68l-3.43,3.43,14.27,14.27,3.57-3.57,14.27,14.27h0l-3.57,3.57,14.27,14.27,3.57-3.57,10.57,10.57v.13h0v7.14h0l3.48,3.48h21.58l3.48-3.48-14.27-14.27h0Z"/>
    <polygon points="969.81 53.38 955.54 39.11 951.97 42.68 937.7 28.41 941.27 24.84 927 10.57 923.43 14.14 909.3 0 887.89 0 898.46 10.57 902.03 7 916.3 21.27 912.73 24.84 927 39.11 930.57 35.54 944.84 49.81 941.27 53.38 951.89 64 973.3 64 966.25 56.95 969.81 53.38"/>
    <polygon points="1101.78 64 1108.74 64 1105.26 60.52 1101.78 64"/>
    <polygon points="1090.99 46.25 1076.72 31.98 1073.15 35.54 1058.88 21.27 1062.45 17.7 1048.17 3.43 1044.61 7 1037.61 0 1023.33 0 1037.47 14.14 1033.9 17.7 1048.17 31.98 1051.74 28.41 1066.01 42.68 1062.45 46.25 1076.72 60.52 1080.28 56.95 1087.33 64 1101.61 64 1087.42 49.81 1090.99 46.25"/>
    <polygon points="1023.06 0 1016.2 0 1019.63 3.43 1023.06 0"/>
    <polygon points="1222.99 56.94 1208.72 42.67 1212.29 39.11 1198.02 24.83 1194.45 28.4 1180.18 14.13 1183.74 10.56 1173.18 0 1151.78 0 1158.78 7 1155.21 10.57 1162.34 17.7 1162.34 17.7 1169.47 24.83 1173.04 21.27 1187.31 35.54 1187.31 35.54 1183.74 39.11 1198.02 53.38 1201.58 49.81 1215.77 64 1237.18 64 1226.56 53.38 1222.99 56.94"/>
    <path d="m1176.61,46.24l-3.57,3.57s-6.47-6.47-10.7-10.7h0l-.71-.71.71.71v-7.14l-3.57,3.57,3.57-3.57-14.27-14.27-3.57,3.57-14.27-14.27,3.57-3.57-3.43-3.43h-21.68l-3.43,3.43,14.27,14.27,3.57-3.57,14.27,14.27h0l-3.57,3.57,14.27,14.27,3.57-3.57,10.7,10.7h0v7.14h0l3.49,3.49h21.57l3.49-3.49-14.27-14.27h0Z"/>
    <polygon points="1140.94 53.38 1126.67 39.11 1123.1 42.68 1108.83 28.41 1112.4 24.84 1098.12 10.57 1094.56 14.14 1080.42 0 1059.01 0 1069.58 10.57 1073.15 7 1087.42 21.27 1083.85 24.84 1098.12 39.11 1101.69 35.54 1115.96 49.81 1112.4 53.38 1123.01 64 1144.42 64 1137.37 56.95 1140.94 53.38"/>
    <polygon points="1262.24 46.24 1247.96 31.97 1244.4 35.54 1230.13 21.27 1233.69 17.7 1219.42 3.43 1215.85 7 1208.86 0 1194.59 0 1208.72 14.13 1205.15 17.7 1219.42 31.97 1222.99 28.4 1237.26 42.67 1233.69 46.24 1247.96 60.51 1251.53 56.94 1258.59 64 1272.86 64 1258.67 49.81 1262.24 46.24"/>
    <polygon points="1194.31 0 1187.45 0 1190.88 3.43 1194.31 0"/>
    <polygon points="1273.02 64 1279.99 64 1276.51 60.51 1273.02 64"/>
    <polygon points="1394.11 56.94 1379.84 42.67 1383.41 39.11 1369.14 24.83 1365.57 28.4 1351.3 14.13 1354.87 10.56 1344.3 0 1323.03 0 1330.02 7 1326.46 10.56 1333.46 17.57 1333.46 17.7 1340.6 24.83 1344.16 21.27 1358.44 35.54 1358.44 35.54 1354.87 39.11 1369.14 53.38 1372.71 49.81 1386.9 64 1408.3 64 1397.68 53.38 1394.11 56.94"/>
    <path d="m1347.73,46.24l-3.57,3.57s-6.34-6.34-10.57-10.57v-.13h0v-7.14l-2.68,2.68,2.68-2.68-14.27-14.27-3.57,3.57-14.27-14.27,3.57-3.57-3.43-3.43h-21.69l-3.43,3.43,14.27,14.27,3.57-3.57,14.27,14.27h0l-3.57,3.57,14.27,14.27,3.57-3.57,10.57,10.57v.13h0v7.14h0l3.49,3.49h21.57l3.49-3.49-14.27-14.27h0Z"/>
    <polygon points="1312.19 53.38 1297.91 39.11 1294.35 42.67 1280.07 28.4 1283.64 24.83 1269.37 10.56 1265.8 14.13 1251.67 0 1230.27 0 1240.83 10.56 1244.4 7 1258.67 21.27 1255.1 24.83 1269.37 39.11 1272.94 35.54 1287.21 49.81 1283.64 53.38 1294.27 64 1315.67 64 1308.62 56.94 1312.19 53.38"/>
    <polygon points="1433.36 46.24 1419.09 31.97 1415.52 35.54 1401.25 21.27 1404.82 17.7 1390.55 3.43 1386.98 7 1379.98 0 1365.71 0 1379.84 14.13 1376.27 17.7 1390.55 31.97 1394.11 28.4 1408.39 42.67 1404.82 46.24 1419.09 60.51 1422.66 56.94 1429.71 64 1443.98 64 1429.79 49.81 1433.36 46.24"/>
    <polygon points="1365.43 0 1358.58 0 1362 3.43 1365.43 0"/>
    <polygon points="1444.14 64 1451.12 64 1447.63 60.51 1444.14 64"/>
    <polygon points="1565.35 56.94 1551.08 42.67 1554.65 39.11 1540.38 24.83 1536.81 28.4 1522.54 14.13 1526.11 10.56 1515.54 0 1494.15 0 1501.15 7 1497.58 10.56 1504.7 17.68 1504.7 17.7 1511.84 24.83 1515.4 21.27 1529.67 35.54 1529.67 35.54 1526.11 39.11 1540.38 53.38 1543.95 49.81 1558.14 64 1579.54 64 1568.92 53.38 1565.35 56.94"/>
    <path d="m1518.97,46.24l-3.57,3.57s-6.46-6.46-10.69-10.69v-.02h0v-7.14l-3.57,3.57,3.57-3.57-14.27-14.27-3.57,3.57-14.27-14.27,3.57-3.57-3.42-3.42h-21.69l-3.43,3.43,14.27,14.27,3.57-3.57,14.27,14.27h0l-3.57,3.57,14.27,14.27,3.57-3.57,10.69,10.69v.02h0v7.14h0l3.49,3.49h21.57l3.49-3.49-14.27-14.27h0Z"/>
    <polygon points="1483.31 53.38 1469.04 39.11 1465.47 42.67 1451.2 28.4 1454.77 24.83 1440.5 10.56 1436.93 14.13 1422.8 0 1401.39 0 1411.95 10.56 1415.52 7 1429.79 21.27 1426.22 24.83 1440.5 39.11 1444.06 35.54 1458.33 49.81 1454.77 53.38 1465.39 64 1486.8 64 1479.74 56.94 1483.31 53.38"/>
    <polygon points="1604.6 46.24 1590.33 31.97 1586.76 35.54 1572.49 21.27 1576.06 17.7 1561.78 3.43 1558.22 7 1551.22 0 1536.95 0 1551.08 14.13 1547.51 17.7 1561.78 31.97 1565.35 28.4 1579.62 42.67 1576.06 46.24 1590.33 60.51 1593.89 56.94 1600.95 64 1615.22 64 1601.03 49.81 1604.6 46.24"/>
    <polygon points="1536.67 0 1529.81 0 1533.24 3.43 1536.67 0"/>
    <polygon points="1615.38 64 1622.36 64 1618.87 60.51 1615.38 64"/>
    <polygon points="1633.14 17.7 1636.71 14.13 1640 17.42 1640 0 1622.3 0 1618.87 3.43 1633.14 17.7"/>
    <polygon points="1622.44 28.4 1626.01 24.83 1611.73 10.56 1608.17 14.13 1594.04 0 1572.63 0 1583.19 10.56 1586.76 7 1601.03 21.27 1597.46 24.83 1611.73 39.11 1615.3 35.54 1629.57 49.81 1626.01 53.38 1636.63 64 1640 64 1640 39.38 1636.71 42.67 1622.44 28.4"/>
  </g>
</svg>